<svg width="244" height="42" viewBox="0 0 244 42" fill="none" xmlns="http://www.w3.org/2000/svg">
<path d="M13.6702 41.184C5.60623 41.184 -0.00976562 34.992 -0.00976562 26.448C-0.00976562 17.904 5.60623 11.712 13.6702 11.712C17.3662 11.712 20.0542 13.008 21.7342 15.264C21.7342 13.6734 23.0237 12.384 24.6142 12.384H26.0062C28.3656 12.384 30.2782 14.2966 30.2782 16.656V36.24C30.2782 38.5994 28.3656 40.512 26.0062 40.512H24.6142C23.0237 40.512 21.7342 39.2226 21.7342 37.632C20.0542 39.888 17.3662 41.184 13.6702 41.184ZM15.0142 33.888C19.1902 33.888 21.8782 30.768 21.8782 26.448C21.8782 22.128 19.1902 19.008 15.0142 19.008C10.9342 19.008 8.34223 22.128 8.34223 26.448C8.34223 30.768 10.9342 33.888 15.0142 33.888Z" fill="#F89A05"/>
<path d="M40.9991 0.191998C43.3585 0.191998 45.2711 2.10464 45.2711 4.464V36.24C45.2711 38.5994 43.3585 40.512 40.9991 40.512C38.6397 40.512 36.7271 38.5994 36.7271 36.24V4.46401C36.7271 2.10465 38.6397 0.191998 40.9991 0.191998Z" fill="#F89A05"/>
<path d="M68.2882 41.184C64.5922 41.184 61.9042 39.888 60.2242 37.632C60.2242 39.2226 58.9348 40.512 57.3442 40.512H55.9522C53.5929 40.512 51.6802 38.5994 51.6802 36.24V4.46401C51.6802 2.10465 53.5929 0.191998 55.9522 0.191998C58.3116 0.191998 60.2242 2.10464 60.2242 4.464V15.264C61.9042 13.008 64.5922 11.712 68.2882 11.712C76.3522 11.712 81.9682 17.904 81.9682 26.448C81.9682 34.992 76.3522 41.184 68.2882 41.184ZM66.9442 33.888C71.0242 33.888 73.6162 30.768 73.6162 26.448C73.6162 22.128 71.0242 19.008 66.9442 19.008C62.7682 19.008 60.0802 22.128 60.0802 26.448C60.0802 30.768 62.7682 33.888 66.9442 33.888Z" fill="#F89A05"/>
<path d="M99.2171 41.184C91.1531 41.184 85.5371 34.992 85.5371 26.448C85.5371 17.904 91.1531 11.712 99.2171 11.712C102.913 11.712 105.601 13.008 107.281 15.264C107.281 13.6734 108.571 12.384 110.161 12.384H111.553C113.912 12.384 115.825 14.2966 115.825 16.656V36.24C115.825 38.5994 113.912 40.512 111.553 40.512H110.161C108.571 40.512 107.281 39.2226 107.281 37.632C105.601 39.888 102.913 41.184 99.2171 41.184ZM100.561 33.888C104.737 33.888 107.425 30.768 107.425 26.448C107.425 22.128 104.737 19.008 100.561 19.008C96.4811 19.008 93.8891 22.128 93.8891 26.448C93.8891 30.768 96.4811 33.888 100.561 33.888Z" fill="#F89A05"/>
<path d="M134.97 12.384C136.998 12.384 138.642 14.028 138.642 16.056C138.642 18.084 136.998 19.728 134.97 19.728H133.266V36.24C133.266 38.5994 131.353 40.512 128.994 40.512C126.635 40.512 124.722 38.5994 124.722 36.24V19.728H123.69C121.662 19.728 120.018 18.084 120.018 16.056C120.018 14.028 121.662 12.384 123.69 12.384H124.722V9.6C124.722 4.08 128.178 0 134.274 0C134.584 0 134.891 0.00443654 135.193 0.0133097C136.92 0.0640156 138.162 1.5441 138.162 3.27217V5.22806C138.162 6.39111 137.117 7.344 135.954 7.344C134.274 7.344 133.266 8.4 133.266 10.08V12.384H134.97Z" fill="#F89A05"/>
<path d="M155.59 11.712C164.278 11.712 170.518 17.904 170.518 26.448C170.518 34.992 164.278 41.184 155.59 41.184C146.902 41.184 140.662 34.992 140.662 26.448C140.662 17.904 146.902 11.712 155.59 11.712ZM155.59 19.008C151.558 19.008 148.918 22.128 148.918 26.448C148.918 30.768 151.558 33.888 155.59 33.888C159.622 33.888 162.262 30.768 162.262 26.448C162.262 22.128 159.622 19.008 155.59 19.008Z" fill="#F89A05"/>
<path d="M179.796 40.512C177.437 40.512 175.524 38.5994 175.524 36.24V16.656C175.524 14.2966 177.437 12.384 179.796 12.384H181.188C182.779 12.384 184.068 13.6734 184.068 15.264C185.748 13.008 188.34 11.712 191.94 11.712C194.157 11.712 195.581 13.7043 195.499 15.9201L195.451 17.2407C195.366 19.5587 193.679 19.1033 191.364 19.248C186.804 19.248 184.068 21.84 184.068 26.112V36.24C184.068 38.5994 182.155 40.512 179.796 40.512Z" fill="#F89A05"/>
<path d="M204.077 40.512C201.718 40.512 199.805 38.5994 199.805 36.24V16.656C199.805 14.2966 201.718 12.384 204.077 12.384H206.284C207.425 12.384 208.349 13.3085 208.349 14.449C208.349 14.6478 208.608 14.7351 208.736 14.5828C210.352 12.6563 212.376 11.712 215.261 11.712C218.813 11.712 221.741 13.152 223.613 15.744C225.725 13.056 228.701 11.712 232.973 11.712C239.453 11.712 243.773 16.416 243.773 24.24V36.24C243.773 38.5994 241.861 40.512 239.501 40.512C237.142 40.512 235.229 38.5994 235.229 36.24V25.68C235.229 21.408 233.597 19.056 230.477 19.056C227.693 19.056 226.205 21.264 226.061 25.248V36.24C226.061 38.5994 224.149 40.512 221.789 40.512C219.43 40.512 217.517 38.5994 217.517 36.24V25.68C217.517 21.408 215.885 19.056 212.765 19.056C209.981 19.056 208.493 21.264 208.349 25.248V36.24C208.349 38.5994 206.437 40.512 204.077 40.512Z" fill="#F89A05"/>
</svg>
