<svg width="111" height="110" viewBox="0 0 111 110" fill="none" xmlns="http://www.w3.org/2000/svg">
<circle cx="55.5" cy="55" r="38.5" fill="#F7F7F7" stroke="#F2F2F2" stroke-width="3"/>
<circle cx="55.5" cy="46" r="10" fill="#E6E6E6"/>
<path d="M36.5 72.2222C36.5 64.3675 42.8675 58 50.7222 58H60.2778C68.1325 58 74.5 64.3675 74.5 72.2222C74.5 73.2041 73.7041 74 72.7222 74H38.2778C37.2959 74 36.5 73.2041 36.5 72.2222Z" fill="#E6E6E6"/>
<rect x="70.5" y="70" width="26" height="26" rx="13" fill="#EFEFEF"/>
<rect x="70.5" y="70" width="26" height="26" rx="13" stroke="white" stroke-width="2"/>
<path fill-rule="evenodd" clip-rule="evenodd" d="M86.4417 77.5657C86.1292 77.2533 85.6227 77.2533 85.3103 77.5657L83.8176 79.0584L87.2485 82.4892L86.5623 83.1754L83.1314 79.7445L78.8136 84.0623C78.5432 84.3328 78.3785 84.6913 78.3496 85.0727L78.1832 87.2654C78.1462 87.7539 78.5529 88.1607 79.0415 88.1236L81.2342 87.9573C81.6156 87.9283 81.974 87.7637 82.2445 87.4932L88.7412 80.9966C89.0536 80.6841 89.0536 80.1776 88.7412 79.8652L86.4417 77.5657Z" fill="#C4C4C4"/>
<rect x="78.3003" y="89" width="11.2" height="0.8" fill="#C4C4C4"/>
</svg>
