<svg width="22" height="19" viewBox="0 0 22 19" fill="none" xmlns="http://www.w3.org/2000/svg">
<path fill-rule="evenodd" clip-rule="evenodd" d="M1.77325 1.83786C-0.439235 4.1181 -0.622813 7.76381 1.45658 10.1733C2.32359 11.178 3.23261 12.1959 4.03984 13.0278C5.95865 15.0054 8.89687 17.5758 10.259 18.7483C10.4735 18.933 10.7393 19.0149 10.9995 18.9977C11.2599 19.0151 11.5259 18.9332 11.7406 18.7484C13.1027 17.576 16.0409 15.006 17.9596 13.0286C18.767 12.1964 19.6763 11.1782 20.5435 10.1732C22.6228 7.76358 22.4392 4.11797 20.2268 1.83782C17.8491 -0.612638 13.9942 -0.612601 11.6165 1.8379L10.9999 2.47332L10.3833 1.83778C8.00572 -0.6126 4.15087 -0.612562 1.77325 1.83786Z" fill="#F89A05"/>
</svg>
