<svg width="14" height="12" viewBox="0 0 14 12" fill="none" xmlns="http://www.w3.org/2000/svg">
<path fill-rule="evenodd" clip-rule="evenodd" d="M1.11297 1.119C-0.275378 2.50735 -0.390574 4.72708 0.914253 6.19415C1.45831 6.80585 2.02872 7.4256 2.53526 7.93214C3.73933 9.13622 5.58308 10.7012 6.43782 11.4151C6.57243 11.5275 6.7392 11.5775 6.90248 11.567C7.06588 11.5776 7.23281 11.5277 7.36753 11.4152C8.22226 10.7014 10.066 9.13655 11.27 7.93258C11.7766 7.4259 12.3472 6.80594 12.8914 6.19406C14.1962 4.72694 14.081 2.50727 12.6927 1.11897C11.2007 -0.373011 8.78166 -0.372988 7.28965 1.11902L6.90277 1.50591L6.51581 1.11895C5.02387 -0.372988 2.60494 -0.372966 1.11297 1.119Z" fill="#E6E6E6"/>
</svg>
