<svg width="28" height="28" viewBox="0 0 28 28" fill="none" xmlns="http://www.w3.org/2000/svg">
<rect x="1" y="1" width="26" height="26" rx="13" fill="#EFEFEF"/>
<rect x="1" y="1" width="26" height="26" rx="13" stroke="white" stroke-width="2"/>
<path d="M12.7449 18.4927C12.4745 18.7631 12.1161 18.9285 11.7347 18.9574L9.54225 19.1238C9.05376 19.1609 8.64689 18.754 8.68392 18.2655L8.85033 16.073C8.87927 15.6916 9.04389 15.3326 9.31437 15.0621L13.6323 10.7442L17.0629 14.1748L12.7449 18.4927ZM19.2415 10.865C19.5539 11.1774 19.5538 11.6837 19.2415 11.9961L17.7486 13.4891L14.318 10.0585L15.8109 8.56555C16.1233 8.25331 16.6296 8.25331 16.942 8.56555L19.2415 10.865Z" fill="#C4C4C4"/>
<rect x="8.80029" y="20" width="11.2" height="0.8" fill="#C4C4C4"/>
</svg>
