<svg width="24" height="24" viewBox="0 0 24 24" fill="none" xmlns="http://www.w3.org/2000/svg">
<path d="M18.5031 5H5.49672C3.94992 5 2.9886 6.68073 3.77283 8.01399L4.25893 8.84042C4.4173 9.10965 4.5104 9.41224 4.53077 9.72394L5.21111 20.1305C5.27987 21.1821 6.15293 22 7.20685 22H16.7931C17.847 22 18.7201 21.1821 18.7889 20.1304L19.469 9.724C19.4894 9.41227 19.5825 9.10964 19.7409 8.84037L20.227 8.01407C21.0113 6.6808 20.0499 5 18.5031 5Z" fill="#ABABAB"/>
<path d="M10 10V17" stroke="#DEDEDE" stroke-linecap="round"/>
<path d="M14 10V17" stroke="#DEDEDE" stroke-linecap="round"/>
<path d="M7 6L7.99359 3.61538C8.14886 3.24274 8.51297 3 8.91667 3H15.0833C15.487 3 15.8511 3.24274 16.0064 3.61538L17 6" stroke="#ABABAB" stroke-linecap="round"/>
</svg>
