<svg width="36" height="36" viewBox="0 0 36 36" fill="none" xmlns="http://www.w3.org/2000/svg">
<path d="M9.53846 10.3076C9.13043 10.3076 8.73912 10.4697 8.4506 10.7582C8.16209 11.0467 8 11.438 8 11.8461V26.4615C8 26.8695 8.16209 27.2608 8.4506 27.5493C8.73912 27.8378 9.13043 27.9999 9.53846 27.9999H26.4615C26.8695 27.9999 27.2609 27.8378 27.5494 27.5493C27.8378 27.2608 28 26.8695 28 26.4615V11.8461C28 11.438 27.8378 11.0467 27.5494 10.7582C27.2609 10.4697 26.8695 10.3076 26.4615 10.3076H23.3846" stroke="#1F1F1F" stroke-width="1.5" stroke-linecap="round" stroke-linejoin="round"/>
<path d="M8 15.6924H28" stroke="#1F1F1F" stroke-width="1.5" stroke-linecap="round" stroke-linejoin="round"/>
<path d="M12.6152 8V12.6154" stroke="#1F1F1F" stroke-width="1.5" stroke-linecap="round" stroke-linejoin="round"/>
<path d="M23.3848 8V12.6154" stroke="#1F1F1F" stroke-width="1.5" stroke-linecap="round" stroke-linejoin="round"/>
<path d="M12.6152 10.3076H20.3075" stroke="#1F1F1F" stroke-width="1.5" stroke-linecap="round" stroke-linejoin="round"/>
</svg>
