<svg width="36" height="36" viewBox="0 0 36 36" fill="none" xmlns="http://www.w3.org/2000/svg">
<path d="M20.7302 19.3072C24.7449 19.3072 27.9994 17.8608 27.9994 16.0765C27.9994 14.2922 24.7449 12.8457 20.7302 12.8457C16.7155 12.8457 13.4609 14.2922 13.4609 16.0765C13.4609 17.8608 16.7155 19.3072 20.7302 19.3072Z" stroke="#1F1F1F" stroke-width="1.5" stroke-linecap="round" stroke-linejoin="round"/>
<path d="M13.4609 16.0762V25.7685C13.4609 27.5454 16.6917 28.9992 20.7302 28.9992C24.7686 28.9992 27.9994 27.5454 27.9994 25.7685V16.0762" stroke="#1F1F1F" stroke-width="1.5" stroke-linecap="round" stroke-linejoin="round"/>
<path d="M27.9994 20.9238C27.9994 22.7008 24.7686 24.1546 20.7302 24.1546C16.6917 24.1546 13.4609 22.7008 13.4609 20.9238" stroke="#1F1F1F" stroke-width="1.5" stroke-linecap="round" stroke-linejoin="round"/>
<path d="M20.5692 9.62957C18.6816 8.46467 16.4845 7.90129 14.2692 8.01418C10.2469 8.01418 7 9.46803 7 11.245C7 12.198 7.93692 13.0542 9.42308 13.668" stroke="#1F1F1F" stroke-width="1.5" stroke-linecap="round" stroke-linejoin="round"/>
<path d="M9.42308 23.3605C7.93692 22.7467 7 21.8905 7 20.9374V11.2451" stroke="#1F1F1F" stroke-width="1.5" stroke-linecap="round" stroke-linejoin="round"/>
<path d="M9.42308 18.5139C7.93692 17.9001 7 17.0439 7 16.0908" stroke="#1F1F1F" stroke-width="1.5" stroke-linecap="round" stroke-linejoin="round"/>
</svg>
