<svg width="36" height="36" viewBox="0 0 36 36" fill="none" xmlns="http://www.w3.org/2000/svg">
<path d="M13.3848 12.6154V8" stroke="#1F1F1F" stroke-width="1.5" stroke-linecap="round" stroke-linejoin="round"/>
<path d="M18 12.6154V8" stroke="#1F1F1F" stroke-width="1.5" stroke-linecap="round" stroke-linejoin="round"/>
<path d="M22.6152 12.6154V8" stroke="#1F1F1F" stroke-width="1.5" stroke-linecap="round" stroke-linejoin="round"/>
<path d="M26.4615 10.3076H9.53846C8.68879 10.3076 8 10.9964 8 11.8461V26.4615C8 27.3112 8.68879 28 9.53846 28H26.4615C27.3112 28 28 27.3112 28 26.4615V11.8461C28 10.9964 27.3112 10.3076 26.4615 10.3076Z" stroke="#1F1F1F" stroke-width="1.5" stroke-linecap="round" stroke-linejoin="round"/>
<path d="M26 31C28.7615 31 31 28.7615 31 26C31 23.2386 28.7615 21 26 21C23.2386 21 21 23.2386 21 26C21 28.7615 23.2386 31 26 31Z" fill="#F2F2F2" stroke="#1F1F1F" stroke-width="1.5" stroke-linecap="round" stroke-linejoin="round"/>
<path d="M26 24.4609V25.9994L27.5631 27.8209" stroke="#1F1F1F" stroke-width="1.5" stroke-linecap="round" stroke-linejoin="round"/>
</svg>
