<svg width="327" height="344" viewBox="0 0 327 344" fill="none" xmlns="http://www.w3.org/2000/svg">
<rect width="327" height="344" rx="16" fill="#4672E1"/>
<path d="M29.6836 46.6289H36.9883V45.3789H29.6836V46.6289ZM39.4492 31.043V41.2773H36.9688V31.043H39.4492ZM24.5469 38.5039C27.8672 38.5039 32.1836 38.5039 35.9922 38.0352L36.1094 39.793C34.7422 40.0273 33.3359 40.1836 31.9492 40.2812V42.3711H29.6836V43.5039H36.9883V42H39.4492V48.6016H27.2227V42H29.4688V40.418C27.8184 40.4863 26.2461 40.4961 24.8398 40.4961L24.5469 38.5039ZM31.8516 32.1953C31.8516 33.6992 33.1406 35.125 35.8945 35.6523L34.8398 37.5273C32.8086 37.1172 31.3828 36.1699 30.6016 34.8906C29.8301 36.2871 28.3848 37.3418 26.2656 37.8008L25.1719 35.9062C27.9844 35.3398 29.2734 33.8164 29.293 32.1953V31.4727H31.8516V32.1953ZM56.4609 32.5664V34.2461C56.4609 36.4727 56.4609 38.9727 55.7383 42.7422L53.2383 42.4883C53.9121 39.1289 53.9414 36.6289 53.9609 34.5391H43.4922V32.5664H56.4609ZM58.0234 44.5977V46.6289H41.8125V44.5977H47.6133V38.4844H50.0938V44.5977H58.0234ZM78.4531 31.0234V34.4805H80.25V36.5117H78.4531V40.2031H76.0312V31.0234H78.4531ZM65.9336 31.7852V33.7969H67.0859V31.7852H69.0977V39.5977H63.9219V31.7852H65.9336ZM65.9336 37.6641H67.0859V35.6914H65.9336V37.6641ZM71.8711 31.7852V33.7969H72.9844V31.7852H75.0156V39.5977H69.8594V31.7852H71.8711ZM71.8711 37.6641H72.9844V35.6914H71.8711V37.6641ZM78.4531 40.8086V45.5742H68.7656V46.707H79.0391V48.6797H66.3047V43.7773H76.0117V42.7422H66.2852V40.8086H78.4531ZM95.0156 31.0234V37.7422H97.6328V39.793H95.0156V48.8359H92.5547V31.0234H95.0156ZM89.9375 32.5078V39.4023H84.2148V42.625C86.8027 42.6152 88.9414 42.498 91.3047 42.0977L91.5195 44.0898C88.8047 44.5781 86.3633 44.6953 83.2383 44.6953H81.7344V37.4297H87.457V34.5195H81.7148V32.5078H89.9375ZM114.547 44.6758V46.7266H98.2773V44.6758H101.91V40.3203C100.533 39.5 99.7031 38.2402 99.7031 36.668C99.7031 33.7969 102.516 31.8828 106.383 31.8828C110.23 31.8828 113.062 33.7969 113.082 36.668C113.072 38.2012 112.262 39.4512 110.934 40.2812V44.6758H114.547ZM106.383 33.8555C103.844 33.8555 102.164 34.8711 102.164 36.668C102.164 38.4062 103.844 39.4805 106.383 39.4805C108.902 39.4805 110.602 38.4062 110.621 36.668C110.602 34.8711 108.902 33.8555 106.383 33.8555ZM104.371 44.6758H108.414V41.2188C107.779 41.3457 107.096 41.4141 106.383 41.4141C105.67 41.4141 104.996 41.3555 104.371 41.2188V44.6758Z" fill="white"/>
<path d="M29.5312 71.6875V83H27.4844V73.6719H27.4219L24.7812 75.3594V73.5L27.5781 71.6875H29.5312ZM44.7031 77.5781V78.9688H39.25V81.4062H37.5312V78.9688H31.7969V77.5781H44.7031ZM43.2812 82.7031V84.1094H33.3594V80.2188H35.0781V82.7031H43.2812ZM35.2031 70.7188V72.3125H41.2969V70.7188H43.0156V76.4688H33.4844V70.7188H35.2031ZM35.2031 75.0938H41.2969V73.6094H35.2031V75.0938ZM52.8125 71.4844V78.1562H46.125V71.4844H52.8125ZM47.8281 72.875V76.7812H51.1094V72.875H47.8281ZM56.7812 70.2656V74.4062H58.75V75.8594H56.7812V80.5781H55.0469V70.2656H56.7812ZM57.3438 82.7031V84.1094H47.7344V79.5781H49.4688V82.7031H57.3438ZM71.6562 70.2656V84.3906H69.9844V70.2656H71.6562ZM68.75 70.5156V83.7031H67.0938V76.9844H65.75C65.5859 79.7344 64.4062 81.4375 62.6562 81.4219C60.8125 81.4375 59.6094 79.4844 59.6094 76.375C59.6094 73.2656 60.8125 71.3438 62.6562 71.3438C64.3672 71.3438 65.5312 72.9375 65.7344 75.5781H67.0938V70.5156H68.75ZM62.6562 72.9844C61.7656 72.9688 61.2031 74.1719 61.2188 76.375C61.2031 78.5781 61.7656 79.7812 62.6562 79.7656C63.5938 79.7812 64.1562 78.5781 64.1562 76.375C64.1562 74.1719 63.5938 72.9688 62.6562 72.9844ZM88.2344 70.2656V73.1094H90.2031V74.5469H88.2344V77.3594H86.5V70.2656H88.2344ZM88.2344 77.9688V81.6719H80.7344V82.8438H88.6719V84.2188H79.0156V80.4062H86.5V79.3125H79V77.9688H88.2344ZM81 70.7344C83.1562 70.7344 84.7344 72.0312 84.75 73.9062C84.7344 75.75 83.1562 77.0625 81 77.0625C78.8438 77.0625 77.2344 75.75 77.25 73.9062C77.2344 72.0312 78.8438 70.7344 81 70.7344ZM81 72.1406C79.8125 72.1406 78.9375 72.8281 78.9531 73.9062C78.9375 74.9688 79.8125 75.6875 81 75.6875C82.1875 75.6875 83.0625 74.9688 83.0625 73.9062C83.0625 72.8281 82.1875 72.1406 81 72.1406ZM101.984 70.2656V75.6406H104.156V77.1094H101.984V84.3906H100.25V70.2656H101.984ZM93.1406 71.4219V74.9531H96.4688V71.4219H98.2031V81.0781H91.4219V71.4219H93.1406ZM93.1406 79.6562H96.4688V76.3125H93.1406V79.6562ZM117.625 77.2031V78.5781H104.75V77.2031H110.297V75.9062H105.984V74.5H107.844V72.0781H105.906V70.6875H116.438V72.0781H114.5V74.5H116.359V75.9062H112.031V77.2031H117.625ZM116.062 79.6875V84.2188H106.266V79.6875H116.062ZM107.984 81.0469V82.8125H114.375V81.0469H107.984ZM109.578 74.5H112.75V72.0781H109.578V74.5ZM125 70.4844C128.219 70.4844 130.078 71.3438 130.094 72.9062C130.078 74.4844 128.219 75.3281 125 75.3438C121.781 75.3281 119.906 74.4844 119.906 72.9062C119.906 71.3438 121.781 70.4844 125 70.4844ZM125 71.7656C122.844 71.7656 121.719 72.1719 121.734 72.9062C121.719 73.6875 122.844 74.0469 125 74.0469C127.188 74.0469 128.297 73.6875 128.297 72.9062C128.297 72.1719 127.188 71.7656 125 71.7656ZM131.453 76.0938V77.4844H118.578V76.0938H131.453ZM129.844 78.4375V81.8906H121.812V82.9375H130.234V84.2656H120.109V80.6562H128.141V79.7188H120.094V78.4375H129.844ZM143.375 71.4844V78.1562H136.688V71.4844H143.375ZM138.391 72.875V76.7812H141.672V72.875H138.391ZM147.344 70.2656V74.4062H149.312V75.8594H147.344V80.5781H145.609V70.2656H147.344ZM147.906 82.7031V84.1094H138.297V79.5781H140.031V82.7031H147.906ZM162.922 75.9219V77.2969H150.031V75.9219H162.922ZM161.391 73.6406V75.0156H151.672V70.625H161.266V72.0156H153.406V73.6406H161.391ZM161.297 78.2656V81.8125H153.266V82.8906H161.688V84.25H151.562V80.5625H159.594V79.5781H151.547V78.2656H161.297ZM167.719 71.2969C169.633 71.2969 171.047 72.8906 171.297 75.4688H173.984V70.2656H175.703V84.4062H173.984V76.875H171.312C171.125 79.6016 169.688 81.2812 167.719 81.2812C165.594 81.2812 164.094 79.3594 164.094 76.2812C164.094 73.2344 165.594 71.2969 167.719 71.2969ZM167.719 72.8594C166.547 72.8594 165.75 74.125 165.766 76.2812C165.75 78.4531 166.547 79.7188 167.719 79.7188C168.891 79.7188 169.672 78.4531 169.688 76.2812C169.672 74.125 168.891 72.8594 167.719 72.8594ZM194.391 81.2656V82.6875H181.484V81.2656H187.047V78.5156H182.906V71.2031H184.641V73.5156H191.188V71.2031H192.922V78.5156H188.766V81.2656H194.391ZM184.641 77.1094H191.188V74.9062H184.641V77.1094ZM199.719 73.9688C199.719 76.25 200.516 78.625 202.422 79.8281L201.469 81.1562C200.195 80.3906 199.367 79.0703 198.906 77.5156C198.391 79.2266 197.484 80.6719 196.156 81.4844L195.078 80.1875C197.125 78.9375 198.047 76.4531 198.047 74.0469V71.5156H199.719V73.9688ZM207.5 70.2656V84.3906H205.828V70.2656H207.5ZM204.562 70.5156V83.7031H202.922V76.5625H200.906V75.125H202.922V70.5156H204.562ZM222.047 81.25V82.6719H209.141V81.25H212.125V77.6719C211 77.0312 210.32 76.0234 210.328 74.7656C210.312 72.5156 212.531 71.0312 215.562 71.0312C218.609 71.0312 220.828 72.5156 220.828 74.7656C220.828 76 220.172 76.9922 219.078 77.6406V81.25H222.047ZM215.562 72.4062C213.453 72.4062 212.016 73.2969 212.031 74.7656C212.016 76.2188 213.453 77.125 215.562 77.125C217.672 77.125 219.125 76.2188 219.125 74.7656C219.125 73.2969 217.672 72.4062 215.562 72.4062ZM213.844 81.25H217.312V78.2969C216.773 78.4219 216.188 78.4844 215.562 78.4844C214.953 78.4844 214.375 78.4219 213.844 78.3125V81.25ZM225.875 71.6875L225.703 79.6719H223.938L223.75 71.6875H225.875ZM224.828 83.125C224.156 83.125 223.609 82.5781 223.609 81.9062C223.609 81.25 224.156 80.7031 224.828 80.7031C225.469 80.7031 226.031 81.25 226.031 81.9062C226.031 82.5781 225.469 83.125 224.828 83.125ZM36.2344 96.2812V104.891H34.4844V96.2812H36.2344ZM31.7031 97.125V101.266H26.9219V102.781C29.3438 102.773 31.0547 102.695 33.0781 102.391L33.2969 103.781C31.0625 104.141 29.1562 104.203 26.4219 104.203H25.2188V99.9688H29.9844V98.5469H25.1875V97.125H31.7031ZM31.4844 105.141C34.4844 105.141 36.3125 106.094 36.3125 107.766C36.3125 109.406 34.4844 110.375 31.4844 110.375C28.4688 110.375 26.6562 109.406 26.6562 107.766C26.6562 106.094 28.4688 105.141 31.4844 105.141ZM31.4844 106.5C29.4844 106.5 28.375 106.938 28.375 107.766C28.375 108.578 29.4844 109.016 31.4844 109.016C33.4688 109.016 34.5781 108.578 34.5781 107.766C34.5781 106.938 33.4688 106.5 31.4844 106.5ZM49.75 97.5781V99.2656C49.75 101.312 49.75 103.266 49.125 106.25L47.3906 106.094C47.6797 104.859 47.8438 103.773 47.9375 102.766L39.6094 103.203L39.375 101.797L48.0156 101.469C48.0469 100.711 48.0469 99.9844 48.0469 99.2656V98.9844H39.7969V97.5781H49.75ZM51.1719 107.172V108.594H38.2969V107.172H51.1719ZM65.0156 102.672V103.984H52.1094V102.672H65.0156ZM63.4531 104.828V108.047H55.3594V109.031H63.875V110.234H53.625V106.922H61.7344V106.047H53.6094V104.828H63.4531ZM63.4219 96.5781V99.7656H55.4688V100.688H63.6719V101.875H53.75V98.6406H61.6875V97.7812H53.7031V96.5781H63.4219ZM82.625 103.375V104.766H69.75V103.375H75.2969V102.016H71.4219V96.6094H73.1406V98.0156H79.2344V96.6094H80.9531V102.016H77.0469V103.375H82.625ZM81.0469 105.891V110.391H79.3125V107.266H71.1719V105.891H81.0469ZM73.1406 100.625H79.2344V99.3125H73.1406V100.625ZM88.625 99.6562C88.6094 102.172 89.875 104.734 92.0625 105.781L91 107.172C89.4688 106.398 88.3672 104.906 87.7656 103.109C87.1484 105.031 85.9922 106.625 84.375 107.438L83.3125 106.047C85.5781 104.969 86.875 102.266 86.8906 99.6562V97.4062H88.625V99.6562ZM94.6406 96.2656V101.797H96.8125V103.281H94.6406V110.391H92.9062V96.2656H94.6406ZM108.469 96.2656V101.891H110.641V103.328H108.469V110.391H106.75V96.2656H108.469ZM105.656 98.4375V99.8281H97.3281V98.4375H100.672V96.4688H102.406V98.4375H105.656ZM101.547 100.75C103.578 100.75 105.094 102.125 105.094 104.078C105.094 106.031 103.578 107.391 101.547 107.391C99.4844 107.391 97.9688 106.031 97.9844 104.078C97.9688 102.125 99.4844 100.75 101.547 100.75ZM101.547 102.172C100.438 102.172 99.6406 102.922 99.6406 104.078C99.6406 105.234 100.438 105.969 101.547 105.953C102.625 105.969 103.422 105.234 103.438 104.078C103.422 102.922 102.625 102.172 101.547 102.172ZM115.094 97.2969C116.375 97.2969 117.43 98.0078 118.062 99.25H121.359V96.2656H123.078V110.406H121.359V105.062H118.188C117.578 106.469 116.461 107.281 115.094 107.281C112.969 107.281 111.469 105.359 111.469 102.281C111.469 99.2344 112.969 97.2969 115.094 97.2969ZM115.094 98.8594C113.922 98.8594 113.125 100.125 113.141 102.281C113.125 104.453 113.922 105.719 115.094 105.719C116.266 105.719 117.047 104.453 117.062 102.281C117.047 100.125 116.266 98.8594 115.094 98.8594ZM118.547 100.672C118.648 101.164 118.703 101.703 118.703 102.281C118.703 102.773 118.664 103.227 118.594 103.656H121.359V100.672H118.547ZM132.719 97.2969C134.633 97.2969 136.047 98.8906 136.297 101.469H138.984V96.2656H140.703V110.406H138.984V102.875H136.312C136.125 105.602 134.688 107.281 132.719 107.281C130.594 107.281 129.094 105.359 129.094 102.281C129.094 99.2344 130.594 97.2969 132.719 97.2969ZM132.719 98.8594C131.547 98.8594 130.75 100.125 130.766 102.281C130.75 104.453 131.547 105.719 132.719 105.719C133.891 105.719 134.672 104.453 134.688 102.281C134.672 100.125 133.891 98.8594 132.719 98.8594ZM154.438 96.2656V110.406H152.688V96.2656H154.438ZM150.375 97.5469V98.9688H145.312V105.531C147.914 105.523 149.547 105.445 151.422 105.109L151.594 106.547C149.578 106.922 147.75 107 144.766 107H143.562V97.5469H150.375ZM161.734 99.6562C161.734 102.281 162.984 104.859 165.234 105.844L164.188 107.234C162.586 106.453 161.461 104.953 160.859 103.109C160.242 105.055 159.094 106.672 157.469 107.5L156.375 106.094C158.672 105.016 159.953 102.297 159.969 99.6562V97.4062H161.734V99.6562ZM168.359 96.2656V110.406H166.641V102.234H163.672V100.828H166.641V96.2656H168.359ZM183.234 103.297V104.688H170.344V103.297H183.234ZM181.797 100.609V102.016H171.922V96.8281H181.672V98.2031H173.656V100.609H181.797ZM181.891 108.688V110.094H171.938V105.922H173.641V108.688H181.891ZM189.5 100.281C189.5 102.594 190.859 105.031 193.141 105.984L192.188 107.359C190.516 106.641 189.297 105.156 188.656 103.359C188 105.297 186.766 106.922 185.109 107.703L184.109 106.344C186.344 105.312 187.734 102.688 187.734 100.281V99.0938H184.625V97.6562H192.594V99.0938H189.5V100.281ZM195.922 96.2656V110.391H194.172V96.2656H195.922ZM206.844 99.6562C206.828 102.172 208.094 104.734 210.281 105.781L209.219 107.172C207.688 106.398 206.586 104.906 205.984 103.109C205.367 105.031 204.211 106.625 202.594 107.438L201.531 106.047C203.797 104.969 205.094 102.266 205.109 99.6562V97.4062H206.844V99.6562ZM212.859 96.2656V101.797H215.031V103.281H212.859V110.391H211.125V96.2656H212.859ZM228.5 103.062V104.453H215.625V103.062H218.625V101.266C217.562 100.82 216.953 100.109 216.953 99.1875C216.953 97.5 218.938 96.5 222.047 96.5C225.156 96.5 227.125 97.5 227.141 99.1875C227.133 100.117 226.523 100.828 225.453 101.266V103.062H228.5ZM222.047 105.312C225.094 105.297 226.922 106.203 226.938 107.828C226.922 109.469 225.094 110.359 222.047 110.359C218.969 110.359 217.125 109.469 217.125 107.828C217.125 106.203 218.969 105.297 222.047 105.312ZM222.047 106.625C219.984 106.625 218.875 107.031 218.891 107.828C218.875 108.625 219.984 109.047 222.047 109.047C224.062 109.047 225.188 108.625 225.203 107.828C225.188 107.031 224.062 106.625 222.047 106.625ZM222.047 97.8438C219.953 97.8438 218.75 98.3125 218.766 99.1875C218.75 100.047 219.953 100.5 222.047 100.5C224.125 100.5 225.344 100.047 225.344 99.1875C225.344 98.3125 224.125 97.8438 222.047 97.8438ZM220.375 103.062H223.719V101.719C223.211 101.789 222.648 101.828 222.047 101.828C221.445 101.828 220.883 101.789 220.375 101.719V103.062ZM240.516 96.2656V101.891H242.688V103.328H240.516V110.391H238.797V96.2656H240.516ZM237.703 98.4375V99.8281H229.375V98.4375H232.719V96.4688H234.453V98.4375H237.703ZM233.594 100.75C235.625 100.75 237.141 102.125 237.141 104.078C237.141 106.031 235.625 107.391 233.594 107.391C231.531 107.391 230.016 106.031 230.031 104.078C230.016 102.125 231.531 100.75 233.594 100.75ZM233.594 102.172C232.484 102.172 231.688 102.922 231.688 104.078C231.688 105.234 232.484 105.969 233.594 105.953C234.672 105.969 235.469 105.234 235.484 104.078C235.469 102.922 234.672 102.172 233.594 102.172ZM247.688 99.9688C247.688 102.25 248.484 104.625 250.391 105.828L249.438 107.156C248.164 106.391 247.336 105.07 246.875 103.516C246.359 105.227 245.453 106.672 244.125 107.484L243.047 106.188C245.094 104.938 246.016 102.453 246.016 100.047V97.5156H247.688V99.9688ZM255.469 96.2656V110.391H253.797V96.2656H255.469ZM252.531 96.5156V109.703H250.891V102.562H248.875V101.125H250.891V96.5156H252.531ZM270.016 107.25V108.672H257.109V107.25H260.094V103.672C258.969 103.031 258.289 102.023 258.297 100.766C258.281 98.5156 260.5 97.0312 263.531 97.0312C266.578 97.0312 268.797 98.5156 268.797 100.766C268.797 102 268.141 102.992 267.047 103.641V107.25H270.016ZM263.531 98.4062C261.422 98.4062 259.984 99.2969 260 100.766C259.984 102.219 261.422 103.125 263.531 103.125C265.641 103.125 267.094 102.219 267.094 100.766C267.094 99.2969 265.641 98.4062 263.531 98.4062ZM261.812 107.25H265.281V104.297C264.742 104.422 264.156 104.484 263.531 104.484C262.922 104.484 262.344 104.422 261.812 104.312V107.25ZM272.656 109.125C271.984 109.125 271.438 108.578 271.438 107.906C271.438 107.25 271.984 106.703 272.656 106.703C273.297 106.703 273.859 107.25 273.859 107.906C273.859 108.578 273.297 109.125 272.656 109.125Z" fill="#DEDEDE"/>
<mask id="mask0_1240_71013" style="mask-type:alpha" maskUnits="userSpaceOnUse" x="0" y="0" width="327" height="344">
<rect width="327" height="344" rx="16" fill="#4672E1"/>
</mask>
<g mask="url(#mask0_1240_71013)">
<circle cx="228" cy="260" r="112" fill="#15388E"/>
<rect x="225.2" y="214.641" width="5.6" height="45.36" fill="#34CEFF"/>
<rect x="285.928" y="224.719" width="4.48" height="70.1224" transform="rotate(60 285.928 224.719)" fill="#34CEFF"/>
<rect x="227.944" y="258.879" width="1.12" height="70.1224" transform="rotate(49.9835 227.944 258.879)" fill="#FCFCFC"/>
<rect x="226.32" y="158.078" width="3.36" height="13.44" fill="#1B53DF"/>
<rect x="226.32" y="159.199" width="3.36" height="12.32" fill="#1B53DF"/>
<rect x="139.52" y="258.32" width="3.36" height="12.32" transform="rotate(90 139.52 258.32)" fill="#1B53DF"/>
<rect x="166.52" y="196.145" width="3.36" height="12.32" transform="rotate(135 166.52 196.145)" fill="#1B53DF"/>
<rect x="300.919" y="330.543" width="3.36" height="12.32" transform="rotate(135 300.919 330.543)" fill="#1B53DF"/>
<rect width="3.36" height="12.32" transform="matrix(0.707107 0.707107 0.707107 -0.707107 289.04 196.145)" fill="#1B53DF"/>
<rect width="3.36" height="12.32" transform="matrix(0.707107 0.707107 0.707107 -0.707107 154.64 330.543)" fill="#1B53DF"/>
<rect x="328.8" y="258.32" width="3.36" height="12.32" transform="rotate(90 328.8 258.32)" fill="#1B53DF"/>
<rect x="191.04" y="340.641" width="1.12" height="11.2" transform="rotate(30 191.04 340.641)" fill="#1B53DF"/>
<rect width="1.12" height="11.2" transform="matrix(0.866025 -0.5 -0.5 -0.866025 191.04 178.98)" fill="#1B53DF"/>
<rect width="1.12" height="11.2" transform="matrix(0.866025 -0.5 -0.5 -0.866025 191.04 178.98)" fill="#1B53DF"/>
<rect width="1.12" height="11.2" transform="matrix(0.5 -0.866025 -0.866025 -0.5 144.18 222.332)" fill="#1B53DF"/>
<rect x="311.44" y="222.332" width="1.12" height="11.2" transform="rotate(-120 311.44 222.332)" fill="#1B53DF"/>
<rect x="134.48" y="304.09" width="1.12" height="11.2" transform="rotate(-120 134.48 304.09)" fill="#1B53DF"/>
<rect width="1.12" height="11.2" transform="matrix(0.5 -0.866025 -0.866025 -0.5 321.14 304.09)" fill="#1B53DF"/>
<rect width="1.12" height="11.2" transform="matrix(-0.866025 0.5 0.5 0.866025 264.81 340.641)" fill="#1B53DF"/>
<rect x="264.81" y="178.98" width="1.12" height="11.2" transform="rotate(-150 264.81 178.98)" fill="#1B53DF"/>
<circle cx="228" cy="260.001" r="6.72" fill="#34CEFF"/>
<path d="M295 151L320 177" stroke="white" stroke-width="2"/>
<path d="M293 133L337 177" stroke="white" stroke-width="2"/>
</g>
<path d="M90 312L102 324L114 336" stroke="white" stroke-width="2"/>
<path d="M106 315L127 335" stroke="white" stroke-width="2"/>
</svg>
