<svg width="1140" height="640" viewBox="0 0 1140 640" fill="none" xmlns="http://www.w3.org/2000/svg">
<rect width="1140" height="640" rx="20" fill="#F89A05"/>
<path d="M83.6406 118.109H101.172V115.109H83.6406V118.109ZM107.078 80.7031V105.266H101.125V80.7031H107.078ZM71.3125 98.6094C79.2812 98.6094 89.6406 98.6094 98.7812 97.4844L99.0625 101.703C95.7812 102.266 92.4062 102.641 89.0781 102.875V107.891H83.6406V110.609H101.172V107H107.078V122.844H77.7344V107H83.125V103.203C79.1641 103.367 75.3906 103.391 72.0156 103.391L71.3125 98.6094ZM88.8438 83.4688C88.8438 87.0781 91.9375 90.5 98.5469 91.7656L96.0156 96.2656C91.1406 95.2812 87.7188 93.0078 85.8438 89.9375C83.9922 93.2891 80.5234 95.8203 75.4375 96.9219L72.8125 92.375C79.5625 91.0156 82.6562 87.3594 82.7031 83.4688V81.7344H88.8438V83.4688ZM147.906 84.3594V88.3906C147.906 93.7344 147.906 99.7344 146.172 108.781L140.172 108.172C141.789 100.109 141.859 94.1094 141.906 89.0938H116.781V84.3594H147.906ZM151.656 113.234V118.109H112.75V113.234H126.672V98.5625H132.625V113.234H151.656ZM200.688 80.6562V96.4062H205V101.375H200.688V123.312H194.781V80.6562H200.688ZM170.547 84.5V94.3906H173.266V84.5H178.141V113.469H165.625V84.5H170.547ZM170.547 108.547H173.266V99.125H170.547V108.547ZM184.703 84.5V94.3906H187.469V84.5H192.344V113.469H179.875V84.5H184.703ZM184.703 108.547H187.469V99.125H184.703V108.547ZM245.828 113.562V118.438H206.781V113.562H245.828ZM241.328 83.5156V97.7188H217.281V102.594H242.312V107.281H211.281V92.9375H235.422V88.2969H211.234V83.5156H241.328ZM285.25 80.6562V123.312H279.625V80.6562H285.25ZM276.156 81.5938V121.438H270.578V101.844H263.594C261.156 106.719 257.195 110.938 251.125 114.453L247.75 110.234C256.352 105.125 260.148 98.9141 260.969 90.5469H250.094V85.7188H266.922C266.898 89.7734 266.477 93.5938 265.469 97.1094H270.578V81.5938H276.156ZM334.656 80.6562V88.9062H340.422V93.8281H334.656V101.984H328.656V80.6562H334.656ZM334.656 103.672V115.297H312.297V118.156H335.875V122.844H306.438V110.984H328.703V108.266H306.344V103.672H334.656ZM312.578 81.9219C319.141 81.9688 324.016 85.9062 324.016 91.5781C324.016 97.2031 319.141 101.234 312.578 101.234C306.016 101.234 301.094 97.2031 301.094 91.5781C301.094 85.9062 306.016 81.9688 312.578 81.9219ZM312.578 86.7969C309.297 86.7969 306.906 88.5781 306.953 91.5781C306.906 94.625 309.297 96.5 312.578 96.5C315.859 96.5 318.203 94.625 318.203 91.5781C318.203 88.5781 315.859 86.7969 312.578 86.7969ZM375.953 80.6562V96.5938H382.234V101.609H375.953V123.312H369.953V80.6562H375.953ZM349.609 84.0312V94.4375H358.469V84.0312H364.422V113.422H343.656V84.0312H349.609ZM349.609 108.594H358.469V99.0781H349.609V108.594ZM411.391 92.2812C411.391 99.1719 414.906 106.531 422.078 109.531L418.844 114.219C413.805 112.086 410.336 107.844 408.438 102.641C406.492 108.289 402.953 112.977 397.938 115.297L394.516 110.562C401.594 107.422 405.25 99.5 405.25 92.2812V89.6562H396.203V84.7812H420.297V89.6562H411.391V92.2812ZM430.562 80.6562V123.312H424.516V80.6562H430.562ZM472.469 80.7031V112.906H466.469V109.531H458.312V105.453H466.469V80.7031H472.469ZM473.406 117.781V122.562H441.625V109.812H447.578V104.141C443.758 104.305 440.125 104.328 436.891 104.328L436.188 99.5938C444.016 99.5469 454.562 99.4531 463.562 98.3281L463.891 102.594C460.516 103.156 457.023 103.555 453.578 103.812V111.922H447.578V117.781H473.406ZM450.062 82.1562C456.25 82.1094 460.703 85.25 460.703 89.7969C460.703 94.3438 456.25 97.2969 450.062 97.2969C443.734 97.2969 439.328 94.3438 439.328 89.7969C439.328 85.25 443.688 82.1094 450.062 82.1562ZM450.062 86.5156C447.016 86.5156 444.953 87.6875 445 89.7969C444.953 91.8594 447.016 92.9844 450.062 92.9844C452.922 92.9844 454.984 91.8594 455.031 89.7969C454.984 87.6875 452.922 86.5156 450.062 86.5156Z" fill="#FFF7EB"/>
<path d="M90.3164 180.715V187.824H93.7617V190.367H90.3164V198.543H87.2266V180.715H90.3164ZM83.5898 182.602C83.5898 189.164 79.3242 193.84 71.9961 195.973L70.7383 193.566C76.3848 191.939 79.748 188.863 80.2812 185.09H71.7773V182.602H83.5898ZM91.2461 202.48V204.941H74.4297V196.711H77.5195V202.48H91.2461ZM114.516 180.715V187.66H117.988V190.176H114.516V198.598H111.48V180.715H114.516ZM107.133 182.766V185.199H99.0664V191.926C103.715 191.939 106.299 191.775 109.238 191.16L109.566 193.621C106.34 194.25 103.441 194.414 98.0547 194.414H96.0586V182.766H107.133ZM115.5 202.48V204.941H98.6836V196.711H101.719V202.48H115.5ZM138.715 180.742V188.508H142.16V191.023H138.715V199.199H135.68V180.742H138.715ZM133.902 183.477V185.91H119.246V183.477H125.07V180.715H128.105V183.477H133.902ZM126.574 186.922C130.129 186.922 132.59 188.809 132.617 191.652C132.59 194.469 130.129 196.328 126.574 196.328C122.992 196.328 120.504 194.469 120.504 191.652C120.504 188.809 122.992 186.922 126.574 186.922ZM126.574 189.273C124.688 189.273 123.457 190.148 123.457 191.652C123.457 193.129 124.688 194.004 126.574 193.977C128.461 194.004 129.719 193.129 129.719 191.652C129.719 190.148 128.461 189.273 126.574 189.273ZM139.699 202.48V204.941H122.883V197.75H125.918V202.48H139.699ZM170.762 180.715V195.398H167.727V189.355H163.516V186.867H167.727V180.715H170.762ZM162.395 196.027C167.645 196.027 170.844 197.75 170.844 200.73C170.844 203.711 167.645 205.434 162.395 205.434C157.172 205.434 153.973 203.711 154 200.73C153.973 197.75 157.172 196.027 162.395 196.027ZM162.395 198.352C158.949 198.352 157.008 199.172 157.008 200.73C157.008 202.262 158.949 203.082 162.395 203.082C165.84 203.082 167.809 202.262 167.809 200.73C167.809 199.172 165.84 198.352 162.395 198.352ZM159.141 184.953C159.141 187.961 161.137 190.996 164.965 192.281L163.434 194.688C160.686 193.758 158.73 191.871 157.664 189.547C156.57 192.186 154.506 194.291 151.566 195.344L149.98 192.938C153.945 191.57 156.051 188.234 156.051 184.98V184.789H150.91V182.328H164.254V184.789H159.141V184.953ZM196.848 199.965V202.453H174.262V199.965H183.996V195.152H176.75V182.355H179.785V186.402H191.242V182.355H194.277V195.152H187.004V199.965H196.848ZM179.785 192.691H191.242V188.836H179.785V192.691ZM211.012 182.848V194.523H199.309V182.848H211.012ZM202.289 185.281V192.117H208.031V185.281H202.289ZM217.957 180.715V187.961H221.402V190.504H217.957V198.762H214.922V180.715H217.957ZM218.941 202.48V204.941H202.125V197.012H205.16V202.48H218.941ZM249.895 180.715V193.977H246.832V180.715H249.895ZM236.551 195.125V197.668H246.859V195.125H249.895V205.133H233.543V195.125H236.551ZM236.551 202.672H246.859V200.047H236.551V202.672ZM236.414 181.809C240.215 181.781 243.059 184.16 243.059 187.605C243.059 190.969 240.215 193.348 236.414 193.348C232.586 193.348 229.742 190.969 229.742 187.605C229.742 184.16 232.586 181.781 236.414 181.809ZM236.414 184.352C234.254 184.352 232.695 185.609 232.723 187.605C232.695 189.574 234.254 190.832 236.414 190.859C238.547 190.832 240.078 189.574 240.078 187.605C240.078 185.609 238.547 184.352 236.414 184.352ZM265.316 182.191V189.629H257.523V192.664C261.488 192.678 263.771 192.555 266.383 192.062L266.684 194.523C263.73 195.016 261.16 195.098 256.32 195.098H254.516V187.359H262.281V184.598H254.461V182.191H265.316ZM274.203 180.742V195.945H271.168V191.871H266.793V189.438H271.168V186.676H266.793V184.242H271.168V180.742H274.203ZM274.203 197.121V205.434H271.168V199.555H257.305V197.121H274.203ZM289.762 184.652V187.086H277.648V184.652H282.242V181.426H285.25V184.652H289.762ZM283.746 188.398C286.891 188.398 289.133 190.777 289.133 194.141C289.133 197.559 286.891 199.965 283.746 199.965C280.629 199.965 278.332 197.559 278.359 194.141C278.332 190.777 280.629 188.398 283.746 188.398ZM283.746 190.914C282.133 190.914 281.012 192.199 281.039 194.141C281.012 196.137 282.133 197.395 283.746 197.367C285.332 197.395 286.453 196.137 286.453 194.141C286.453 192.199 285.332 190.914 283.746 190.914ZM298.949 180.715V205.434H296.051V193.348H293.645V204.312H290.801V181.234H293.645V190.887H296.051V180.715H298.949ZM321.973 191.953V194.359H314.645V200.02H324.488V202.508H301.902V200.02H311.637V194.359H304.637V182.547H321.781V184.98H307.672V191.953H321.973ZM90.3164 226.715V231.691H93.7617V234.207H90.3164V239.129H87.2812V226.715H90.3164ZM90.3164 240.195V246.676H77.1914V248.727H91.082V251.133H74.1836V244.461H87.2812V242.547H74.1562V240.195H90.3164ZM77.6562 227.535C81.4297 227.535 84.1914 229.805 84.2188 233.086C84.1914 236.312 81.4297 238.609 77.6562 238.609C73.8828 238.609 71.0664 236.312 71.0938 233.086C71.0664 229.805 73.8828 227.535 77.6562 227.535ZM77.6562 229.996C75.5781 229.996 74.0469 231.199 74.0742 233.086C74.0469 234.945 75.5781 236.203 77.6562 236.203C79.7344 236.203 81.2656 234.945 81.2656 233.086C81.2656 231.199 79.7344 229.996 77.6562 229.996ZM114.379 226.715V236.121H118.18V238.691H114.379V251.434H111.344V226.715H114.379ZM98.9023 228.738V234.918H104.727V228.738H107.762V245.637H95.8945V228.738H98.9023ZM98.9023 243.148H104.727V237.297H98.9023V243.148ZM135.188 233.742C135.188 237.789 137.566 242.055 141.559 243.723L139.891 246.129C136.965 244.871 134.832 242.273 133.711 239.129C132.562 242.52 130.402 245.363 127.504 246.73L125.754 244.352C129.664 242.547 132.098 237.953 132.098 233.742V231.664H126.656V229.148H140.602V231.664H135.188V233.742ZM146.426 226.715V251.434H143.363V226.715H146.426ZM170.789 226.742V245.445H167.727V243.285H162.887V241.152H167.727V226.742H170.789ZM171.363 248.48V250.941H153.234V243.641H156.27V248.48H171.363ZM149.953 237.844C154.52 237.816 160.645 237.762 165.895 237.105L166.059 239.293C164.021 239.635 161.916 239.867 159.824 240.004V244.762H156.789V240.168C154.479 240.264 152.277 240.277 150.336 240.277L149.953 237.844ZM158.02 227.645C161.629 227.645 164.145 229.422 164.172 232.02C164.145 234.672 161.629 236.367 158.02 236.367C154.355 236.367 151.84 234.672 151.84 232.02C151.84 229.422 154.355 227.645 158.02 227.645ZM158.02 229.887C156.051 229.887 154.711 230.68 154.711 232.02C154.711 233.359 156.051 234.152 158.02 234.152C159.906 234.152 161.246 233.359 161.273 232.02C161.246 230.68 159.906 229.887 158.02 229.887ZM194.824 226.715V251.461H191.762V226.715H194.824ZM181.508 228.52C185.227 228.52 187.934 231.91 187.961 237.242C187.934 242.629 185.227 245.992 181.508 245.992C177.762 245.992 175.055 242.629 175.055 237.242C175.055 231.91 177.762 228.52 181.508 228.52ZM181.508 231.254C179.402 231.254 177.98 233.469 177.98 237.242C177.98 241.043 179.402 243.258 181.508 243.258C183.586 243.258 185.008 241.043 185.008 237.242C185.008 233.469 183.586 231.254 181.508 231.254ZM224.465 226.715V236.367H228.129V238.91H224.465V251.379H221.43V226.715H224.465ZM217.93 229.285C217.93 236.559 214.922 242.93 206.691 246.977L204.969 244.625C210.984 241.631 214.238 237.42 214.867 231.801H206.309V229.285H217.93ZM249.293 233.141V235.602H232.23V227.152H235.266V233.141H249.293ZM251.863 237.98V240.441H229.305V237.98H251.863ZM240.543 242.219C245.875 242.246 249.074 243.887 249.102 246.785C249.074 249.684 245.875 251.324 240.543 251.324C235.156 251.324 231.93 249.684 231.93 246.785C231.93 243.887 235.156 242.246 240.543 242.219ZM240.543 244.598C236.934 244.625 234.992 245.309 235.02 246.785C234.992 248.207 236.934 249 240.543 249C244.07 249 246.039 248.207 246.066 246.785C246.039 245.309 244.07 244.625 240.543 244.598ZM273 226.715V232.812H276.445V235.328H273V241.152H269.965V226.715H273ZM260.039 242.137V244.27H269.965V242.137H273V251.133H257.031V242.137H260.039ZM260.039 248.727H269.965V246.621H260.039V248.727ZM268.188 229.012V231.445H253.531V229.012H259.355V226.523H262.391V229.012H268.188ZM260.859 232.293C264.441 232.293 266.875 234.016 266.902 236.641C266.875 239.266 264.441 240.988 260.859 240.988C257.25 240.988 254.789 239.266 254.789 236.641C254.789 234.016 257.25 232.293 260.859 232.293ZM260.859 234.535C258.973 234.535 257.742 235.328 257.742 236.641C257.742 237.98 258.973 238.746 260.859 238.746C262.746 238.746 264.004 237.98 264.004 236.641C264.004 235.328 262.746 234.535 260.859 234.535ZM298.32 226.715V251.434H295.312V226.715H298.32ZM282.133 229.121V242.629C285.605 242.574 289.297 242.26 293.098 241.508L293.48 244.051C289.133 244.953 285.086 245.227 281.258 245.227H279.125V229.121H282.133ZM321.262 226.715V236.094H325.062V238.582H321.262V251.461H318.227V226.715H321.262ZM314.48 229.066V231.527H305.949V242.875C309.791 242.875 312.826 242.684 316.23 242.082L316.586 244.652C312.758 245.309 309.422 245.418 304.965 245.418H302.914V229.066H314.48ZM329.109 249.219C327.934 249.219 326.977 248.262 326.977 247.086C326.977 245.938 327.934 244.98 329.109 244.98C330.23 244.98 331.215 245.938 331.215 247.086C331.215 248.262 330.23 249.219 329.109 249.219Z" fill="#FFE1B2"/>
<path d="M605.5 361C613.321 383.125 646.771 437.899 712 472" stroke="#F2F2F2" stroke-width="44"/>
<path d="M1049.5 361C1041.68 383.125 1008.23 437.899 943 472" stroke="#F2F2F2" stroke-width="44"/>
<path fill-rule="evenodd" clip-rule="evenodd" d="M695.946 429L770.424 472H880.59L955.068 429L988.947 499.21L940.129 522.902L951.94 640H717.94L723.858 527.981L663.356 500.126L695.946 429Z" fill="#1F1F1F"/>
<path d="M625.169 330.858C626.638 307.363 560.891 332.998 571.08 354.845C584.548 383.724 597.05 392.83 597.05 392.83L634.748 372.577C634.748 372.577 624.406 343.053 625.169 330.858Z" fill="#F2F2F2"/>
<rect width="14.5696" height="53.0575" rx="7.28478" transform="matrix(0.994154 0.107971 -0.0666666 0.997775 612.092 303.254)" fill="#F2F2F2"/>
<path d="M587.333 307.613C585.846 303.974 587.477 299.808 591.04 298.147C594.729 296.426 599.113 298.022 600.834 301.71L616.632 335.584C618.668 339.95 616.559 345.125 612.052 346.825C607.858 348.405 603.168 346.36 601.473 342.212L587.333 307.613Z" fill="#F2F2F2"/>
<path d="M569.542 309.006C567.988 305.378 569.595 301.172 573.171 299.504C576.829 297.798 581.178 299.38 582.884 303.039L599.136 337.884C600.984 341.846 599.269 346.557 595.307 348.405C591.256 350.294 586.444 348.457 584.684 344.348L569.542 309.006Z" fill="#F2F2F2"/>
<path d="M557.404 326.187C555.674 322.479 557.278 318.071 560.987 316.341C564.54 314.684 568.769 316.082 570.635 319.53L588.589 352.718C590.926 357.038 589.143 362.434 584.691 364.51C580.421 366.502 575.344 364.654 573.352 360.384L557.404 326.187Z" fill="#F2F2F2"/>
<path d="M1029.83 330.858C1028.36 307.363 1094.11 332.998 1083.92 354.845C1070.45 383.724 1057.95 392.83 1057.95 392.83L1020.25 372.577C1020.25 372.577 1030.59 343.053 1029.83 330.858Z" fill="#F2F2F2"/>
<rect width="14.5696" height="53.0575" rx="7.28478" transform="matrix(-0.994154 0.107971 0.0666666 0.997775 1042.91 303.254)" fill="#F2F2F2"/>
<path d="M1067.67 307.613C1069.15 303.974 1067.52 299.808 1063.96 298.147C1060.27 296.426 1055.89 298.022 1054.17 301.71L1038.37 335.584C1036.33 339.95 1038.44 345.125 1042.95 346.825C1047.14 348.405 1051.83 346.36 1053.53 342.212L1067.67 307.613Z" fill="#F2F2F2"/>
<path d="M1085.46 309.006C1087.01 305.378 1085.41 301.172 1081.83 299.504C1078.17 297.798 1073.82 299.38 1072.12 303.039L1055.86 337.884C1054.02 341.846 1055.73 346.557 1059.69 348.405C1063.74 350.294 1068.56 348.457 1070.32 344.348L1085.46 309.006Z" fill="#F2F2F2"/>
<path d="M1097.6 326.187C1099.33 322.479 1097.72 318.071 1094.01 316.341C1090.46 314.684 1086.23 316.082 1084.37 319.53L1066.41 352.718C1064.07 357.038 1065.86 362.434 1070.31 364.51C1074.58 366.502 1079.66 364.654 1081.65 360.384L1097.6 326.187Z" fill="#F2F2F2"/>
<ellipse cx="831.998" cy="399.009" rx="61.9562" ry="61.0711" transform="rotate(22.7364 831.998 399.009)" fill="#F2F2F2"/>
<mask id="mask0_1240_71007" style="mask-type:alpha" maskUnits="userSpaceOnUse" x="770" y="333" width="126" height="127">
<path d="M890.051 420.783C876.58 452.928 840.077 468.265 808.519 455.04C776.96 441.816 762.297 405.036 775.767 372.892C789.237 340.747 818.418 324.548 853.655 339.315C888.893 354.081 903.521 388.638 890.051 420.783Z" fill="#FEB9BF"/>
</mask>
<g mask="url(#mask0_1240_71007)">
<ellipse cx="805.112" cy="321.567" rx="62.9888" ry="66.2282" transform="rotate(22.7364 805.112 321.567)" fill="#4570EF"/>
<ellipse cx="881.301" cy="353.493" rx="62.9888" ry="66.2282" transform="rotate(22.7364 881.301 353.493)" fill="#4570EF"/>
</g>
<ellipse cx="882.349" cy="431.147" rx="9.29343" ry="10.1785" transform="rotate(22.7364 882.349 431.147)" fill="#F2F2F2"/>
<path d="M884.875 427.789C885.788 429.643 886.436 433.741 881.728 435.299" stroke="black" stroke-width="1.5"/>
<ellipse cx="798.024" cy="407.947" rx="3.09781" ry="3.05356" transform="rotate(22.7364 798.024 407.947)" fill="#1F1F1F"/>
<ellipse cx="828.499" cy="420.721" rx="3.09781" ry="3.05356" transform="rotate(22.7364 828.499 420.721)" fill="#1F1F1F"/>
<path d="M811.915 414.875C810.978 416.517 808.336 419.06 804.163 420.682C803.167 421.069 802.296 421.915 802.549 422.953C802.888 424.34 804.053 425.928 806.801 427.079" stroke="black" stroke-width="1.5"/>
<path d="M796.603 435.385C798.096 439.54 803.922 444.636 813.57 437.643" stroke="black" stroke-width="1.5"/>
<ellipse cx="888.148" cy="358.531" rx="23.7499" ry="22.3927" transform="rotate(22.7364 888.148 358.531)" fill="#4570EF"/>
<ellipse cx="904.71" cy="383.132" rx="15.4891" ry="16.2856" transform="rotate(22.7364 904.71 383.132)" fill="#4570EF"/>
<ellipse cx="912.142" cy="402.798" rx="13.4238" ry="13.2321" transform="rotate(22.7364 912.142 402.798)" fill="#4570EF"/>
<ellipse cx="909.657" cy="419.416" rx="9.29343" ry="9.16067" transform="rotate(22.7364 909.657 419.416)" fill="#4570EF"/>
<path d="M698 146L728.311 163.5V198.5L698 216L667.689 198.5V163.5L698 146Z" fill="#FEF2DD"/>
<path fill-rule="evenodd" clip-rule="evenodd" d="M808.874 209.126C802.04 202.291 790.96 202.291 784.126 209.126C777.292 215.96 777.291 227.04 784.126 233.874L787.591 237.339L784.126 240.804C777.291 247.638 777.291 258.719 784.126 265.553C790.96 272.387 802.04 272.387 808.874 265.553L812.339 262.088L815.804 265.553C822.638 272.387 833.719 272.387 840.553 265.553C847.387 258.719 847.387 247.638 840.553 240.804L837.088 237.339L840.553 233.874C847.387 227.04 847.387 215.96 840.553 209.126C833.719 202.292 822.638 202.292 815.804 209.126L812.339 212.59L808.874 209.126Z" fill="#FEF2DD"/>
<path fill-rule="evenodd" clip-rule="evenodd" d="M942.639 179.041L921.598 158L882 197.598L921.598 237.196L937.088 221.706L941.287 237.378L995.379 222.884L980.885 168.793L942.639 179.041Z" fill="#FEF2DD"/>
</svg>
