<svg width="1140" height="640" viewBox="0 0 1140 640" fill="none" xmlns="http://www.w3.org/2000/svg">
<rect width="1140" height="640" rx="20" fill="#4672E1"/>
<mask id="mask0_1240_71005" style="mask-type:alpha" maskUnits="userSpaceOnUse" x="0" y="0" width="1140" height="640">
<rect width="1140" height="640" rx="20" fill="#4672E1"/>
</mask>
<g mask="url(#mask0_1240_71005)">
<circle cx="887" cy="457" r="280" fill="#15388E"/>
<rect x="880" y="343.602" width="14" height="113.4" fill="#34CEFF"/>
<rect x="1031.82" y="368.801" width="11.2" height="175.306" transform="rotate(60 1031.82 368.801)" fill="#34CEFF"/>
<rect x="886.86" y="454.199" width="2.8" height="175.306" transform="rotate(49.9835 886.86 454.199)" fill="#FCFCFC"/>
<rect x="882.8" y="202.199" width="8.4" height="33.6" fill="#1B53DF"/>
<rect x="882.8" y="205" width="8.4" height="30.8" fill="#1B53DF"/>
<rect x="665.8" y="452.801" width="8.4" height="30.8" transform="rotate(90 665.8 452.801)" fill="#1B53DF"/>
<rect x="733.298" y="297.359" width="8.4" height="30.8" transform="rotate(135 733.298 297.359)" fill="#1B53DF"/>
<rect x="1069.3" y="633.359" width="8.4" height="30.8" transform="rotate(135 1069.3 633.359)" fill="#1B53DF"/>
<rect width="8.4" height="30.8" transform="matrix(0.707107 0.707107 0.707107 -0.707107 1039.6 297.359)" fill="#1B53DF"/>
<rect width="8.4" height="30.8" transform="matrix(0.707107 0.707107 0.707107 -0.707107 703.6 633.359)" fill="#1B53DF"/>
<rect x="1139" y="452.801" width="8.4" height="30.8" transform="rotate(90 1139 452.801)" fill="#1B53DF"/>
<rect width="2.8" height="28" transform="matrix(0.866025 -0.5 -0.5 -0.866025 794.6 254.449)" fill="#1B53DF"/>
<rect width="2.8" height="28" transform="matrix(0.866025 -0.5 -0.5 -0.866025 794.6 254.449)" fill="#1B53DF"/>
<rect width="2.8" height="28" transform="matrix(0.5 -0.866025 -0.866025 -0.5 677.449 362.824)" fill="#1B53DF"/>
<rect x="1095.6" y="362.824" width="2.8" height="28" transform="rotate(-120 1095.6 362.824)" fill="#1B53DF"/>
<rect x="653.2" y="567.227" width="2.8" height="28" transform="rotate(-120 653.2 567.227)" fill="#1B53DF"/>
<rect width="2.8" height="28" transform="matrix(0.5 -0.866025 -0.866025 -0.5 1119.85 567.227)" fill="#1B53DF"/>
<rect x="979.025" y="254.449" width="2.8" height="28" transform="rotate(-150 979.025 254.449)" fill="#1B53DF"/>
<circle cx="887" cy="456.999" r="16.8" fill="#34CEFF"/>
</g>
<path d="M1008 117L1068 177" stroke="white" stroke-width="2"/>
<path d="M1004 73L1107 176" stroke="white" stroke-width="2"/>
<path d="M83.6406 118.109H101.172V115.109H83.6406V118.109ZM107.078 80.7031V105.266H101.125V80.7031H107.078ZM71.3125 98.6094C79.2812 98.6094 89.6406 98.6094 98.7812 97.4844L99.0625 101.703C95.7812 102.266 92.4062 102.641 89.0781 102.875V107.891H83.6406V110.609H101.172V107H107.078V122.844H77.7344V107H83.125V103.203C79.1641 103.367 75.3906 103.391 72.0156 103.391L71.3125 98.6094ZM88.8438 83.4688C88.8438 87.0781 91.9375 90.5 98.5469 91.7656L96.0156 96.2656C91.1406 95.2812 87.7188 93.0078 85.8438 89.9375C83.9922 93.2891 80.5234 95.8203 75.4375 96.9219L72.8125 92.375C79.5625 91.0156 82.6562 87.3594 82.7031 83.4688V81.7344H88.8438V83.4688ZM147.906 84.3594V88.3906C147.906 93.7344 147.906 99.7344 146.172 108.781L140.172 108.172C141.789 100.109 141.859 94.1094 141.906 89.0938H116.781V84.3594H147.906ZM151.656 113.234V118.109H112.75V113.234H126.672V98.5625H132.625V113.234H151.656ZM200.688 80.6562V88.9531H205V93.8281H200.688V102.688H194.875V80.6562H200.688ZM170.641 82.4844V87.3125H173.406V82.4844H178.234V101.234H165.812V82.4844H170.641ZM170.641 96.5938H173.406V91.8594H170.641V96.5938ZM184.891 82.4844V87.3125H187.562V82.4844H192.438V101.234H180.062V82.4844H184.891ZM184.891 96.5938H187.562V91.8594H184.891V96.5938ZM200.688 104.141V115.578H177.438V118.297H202.094V123.031H171.531V111.266H194.828V108.781H171.484V104.141H200.688ZM240.438 80.6562V96.7812H246.719V101.703H240.438V123.406H234.531V80.6562H240.438ZM228.25 84.2188V100.766H214.516V108.5C220.727 108.477 225.859 108.195 231.531 107.234L232.047 112.016C225.531 113.188 219.672 113.469 212.172 113.469H208.562V96.0312H222.297V89.0469H208.516V84.2188H228.25ZM287.312 113.422V118.344H248.266V113.422H256.984V102.969C253.68 101 251.688 97.9766 251.688 94.2031C251.688 87.3125 258.438 82.7188 267.719 82.7188C276.953 82.7188 283.75 87.3125 283.797 94.2031C283.773 97.8828 281.828 100.883 278.641 102.875V113.422H287.312ZM267.719 87.4531C261.625 87.4531 257.594 89.8906 257.594 94.2031C257.594 98.375 261.625 100.953 267.719 100.953C273.766 100.953 277.844 98.375 277.891 94.2031C277.844 89.8906 273.766 87.4531 267.719 87.4531ZM262.891 113.422H272.594V105.125C271.07 105.43 269.43 105.594 267.719 105.594C266.008 105.594 264.391 105.453 262.891 105.125V113.422Z" fill="white"/>
<path d="M79.6797 183.203V203H76.0977V186.676H75.9883L71.3672 189.629V186.375L76.2617 183.203H79.6797ZM106.23 193.512V195.945H96.6875V200.211H93.6797V195.945H83.6445V193.512H106.23ZM103.742 202.48V204.941H86.3789V198.133H89.3867V202.48H103.742ZM89.6055 181.508V184.297H100.27V181.508H103.277V191.57H86.5977V181.508H89.6055ZM89.6055 189.164H100.27V186.566H89.6055V189.164ZM120.422 182.848V194.523H108.719V182.848H120.422ZM111.699 185.281V192.117H117.441V185.281H111.699ZM127.367 180.715V187.961H130.812V190.504H127.367V198.762H124.332V180.715H127.367ZM128.352 202.48V204.941H111.535V197.012H114.57V202.48H128.352ZM153.398 180.715V205.434H150.473V180.715H153.398ZM148.312 181.152V204.23H145.414V192.473H143.062C142.775 197.285 140.711 200.266 137.648 200.238C134.422 200.266 132.316 196.848 132.316 191.406C132.316 185.965 134.422 182.602 137.648 182.602C140.643 182.602 142.68 185.391 143.035 190.012H145.414V181.152H148.312ZM137.648 185.473C136.09 185.445 135.105 187.551 135.133 191.406C135.105 195.262 136.09 197.367 137.648 197.34C139.289 197.367 140.273 195.262 140.273 191.406C140.273 187.551 139.289 185.445 137.648 185.473ZM182.41 180.715V185.691H185.855V188.207H182.41V193.129H179.375V180.715H182.41ZM182.41 194.195V200.676H169.285V202.727H183.176V205.133H166.277V198.461H179.375V196.547H166.25V194.195H182.41ZM169.75 181.535C173.523 181.535 176.285 183.805 176.312 187.086C176.285 190.312 173.523 192.609 169.75 192.609C165.977 192.609 163.16 190.312 163.188 187.086C163.16 183.805 165.977 181.535 169.75 181.535ZM169.75 183.996C167.672 183.996 166.141 185.199 166.168 187.086C166.141 188.945 167.672 190.203 169.75 190.203C171.828 190.203 173.359 188.945 173.359 187.086C173.359 185.199 171.828 183.996 169.75 183.996ZM206.473 180.715V190.121H210.273V192.691H206.473V205.434H203.438V180.715H206.473ZM190.996 182.738V188.918H196.82V182.738H199.855V199.637H187.988V182.738H190.996ZM190.996 197.148H196.82V191.297H190.996V197.148ZM233.844 192.855V195.262H211.312V192.855H221.02V190.586H213.473V188.125H216.727V183.887H213.336V181.453H231.766V183.887H228.375V188.125H231.629V190.586H224.055V192.855H233.844ZM231.109 197.203V205.133H213.965V197.203H231.109ZM216.973 199.582V202.672H228.156V199.582H216.973ZM219.762 188.125H225.312V183.887H219.762V188.125ZM246.75 181.098C252.383 181.098 255.637 182.602 255.664 185.336C255.637 188.098 252.383 189.574 246.75 189.602C241.117 189.574 237.836 188.098 237.836 185.336C237.836 182.602 241.117 181.098 246.75 181.098ZM246.75 183.34C242.977 183.34 241.008 184.051 241.035 185.336C241.008 186.703 242.977 187.332 246.75 187.332C250.578 187.332 252.52 186.703 252.52 185.336C252.52 184.051 250.578 183.34 246.75 183.34ZM258.043 190.914V193.348H235.512V190.914H258.043ZM255.227 195.016V201.059H241.172V202.891H255.91V205.215H238.191V198.898H252.246V197.258H238.164V195.016H255.227ZM278.906 182.848V194.523H267.203V182.848H278.906ZM270.184 185.281V192.117H275.926V185.281H270.184ZM285.852 180.715V187.961H289.297V190.504H285.852V198.762H282.816V180.715H285.852ZM286.836 202.48V204.941H270.02V197.012H273.055V202.48H286.836ZM313.113 190.613V193.02H290.555V190.613H313.113ZM310.434 186.621V189.027H293.426V181.344H310.215V183.777H296.461V186.621H310.434ZM310.27 194.715V200.922H296.215V202.809H310.953V205.188H293.234V198.734H307.289V197.012H293.207V194.715H310.27ZM321.508 182.52C324.857 182.52 327.332 185.309 327.77 189.82H332.473V180.715H335.48V205.461H332.473V192.281H327.797C327.469 197.053 324.953 199.992 321.508 199.992C317.789 199.992 315.164 196.629 315.164 191.242C315.164 185.91 317.789 182.52 321.508 182.52ZM321.508 185.254C319.457 185.254 318.062 187.469 318.09 191.242C318.062 195.043 319.457 197.258 321.508 197.258C323.559 197.258 324.926 195.043 324.953 191.242C324.926 187.469 323.559 185.254 321.508 185.254ZM368.184 199.965V202.453H345.598V199.965H355.332V195.152H348.086V182.355H351.121V186.402H362.578V182.355H365.613V195.152H358.34V199.965H368.184ZM351.121 192.691H362.578V188.836H351.121V192.691ZM377.508 187.195C377.508 191.188 378.902 195.344 382.238 197.449L380.57 199.773C378.342 198.434 376.893 196.123 376.086 193.402C375.184 196.396 373.598 198.926 371.273 200.348L369.387 198.078C372.969 195.891 374.582 191.543 374.582 187.332V182.902H377.508V187.195ZM391.125 180.715V205.434H388.199V180.715H391.125ZM385.984 181.152V204.23H383.113V191.734H379.586V189.219H383.113V181.152H385.984ZM416.582 199.938V202.426H393.996V199.938H399.219V193.676C397.25 192.555 396.061 190.791 396.074 188.59C396.047 184.652 399.93 182.055 405.234 182.055C410.566 182.055 414.449 184.652 414.449 188.59C414.449 190.75 413.301 192.486 411.387 193.621V199.938H416.582ZM405.234 184.461C401.543 184.461 399.027 186.02 399.055 188.59C399.027 191.133 401.543 192.719 405.234 192.719C408.926 192.719 411.469 191.133 411.469 188.59C411.469 186.02 408.926 184.461 405.234 184.461ZM402.227 199.938H408.297V194.77C407.354 194.988 406.328 195.098 405.234 195.098C404.168 195.098 403.156 194.988 402.227 194.797V199.938ZM423.281 183.203L422.98 197.176H419.891L419.562 183.203H423.281ZM421.449 203.219C420.273 203.219 419.316 202.262 419.316 201.086C419.316 199.938 420.273 198.98 421.449 198.98C422.57 198.98 423.555 199.938 423.555 201.086C423.555 202.262 422.57 203.219 421.449 203.219ZM91.4102 226.742V241.809H88.3477V226.742H91.4102ZM83.4805 228.219V235.465H75.1133V238.117C79.3516 238.104 82.3457 237.967 85.8867 237.434L86.2695 239.867C82.3594 240.496 79.0234 240.605 74.2383 240.605H72.1328V233.195H80.4727V230.707H72.0781V228.219H83.4805ZM83.0977 242.246C88.3477 242.246 91.5469 243.914 91.5469 246.84C91.5469 249.711 88.3477 251.406 83.0977 251.406C77.8203 251.406 74.6484 249.711 74.6484 246.84C74.6484 243.914 77.8203 242.246 83.0977 242.246ZM83.0977 244.625C79.5977 244.625 77.6562 245.391 77.6562 246.84C77.6562 248.262 79.5977 249.027 83.0977 249.027C86.5703 249.027 88.5117 248.262 88.5117 246.84C88.5117 245.391 86.5703 244.625 83.0977 244.625ZM115.062 229.012V231.965C115.062 235.547 115.062 238.965 113.969 244.188L110.934 243.914C111.439 241.754 111.727 239.854 111.891 238.09L97.3164 238.855L96.9062 236.395L112.027 235.82C112.082 234.494 112.082 233.223 112.082 231.965V231.473H97.6445V229.012H115.062ZM117.551 245.801V248.289H95.0195V245.801H117.551ZM141.777 237.926V240.223H119.191V237.926H141.777ZM139.043 241.699V247.332H124.879V249.055H139.781V251.16H121.844V245.363H136.035V243.832H121.816V241.699H139.043ZM138.988 227.262V232.84H125.07V234.453H139.426V236.531H122.062V230.871H135.953V229.367H121.98V227.262H138.988ZM172.594 239.156V241.59H150.062V239.156H159.77V236.777H152.988V227.316H155.996V229.777H166.66V227.316H169.668V236.777H162.832V239.156H172.594ZM169.832 243.559V251.434H166.797V245.965H152.551V243.559H169.832ZM155.996 234.344H166.66V232.047H155.996V234.344ZM183.094 232.648C183.066 237.051 185.281 241.535 189.109 243.367L187.25 245.801C184.57 244.447 182.643 241.836 181.59 238.691C180.51 242.055 178.486 244.844 175.656 246.266L173.797 243.832C177.762 241.945 180.031 237.215 180.059 232.648V228.711H183.094V232.648ZM193.621 226.715V236.395H197.422V238.992H193.621V251.434H190.586V226.715H193.621ZM217.82 226.715V236.559H221.621V239.074H217.82V251.434H214.812V226.715H217.82ZM212.898 230.516V232.949H198.324V230.516H204.176V227.07H207.211V230.516H212.898ZM205.707 234.562C209.262 234.562 211.914 236.969 211.914 240.387C211.914 243.805 209.262 246.184 205.707 246.184C202.098 246.184 199.445 243.805 199.473 240.387C199.445 236.969 202.098 234.562 205.707 234.562ZM205.707 237.051C203.766 237.051 202.371 238.363 202.371 240.387C202.371 242.41 203.766 243.695 205.707 243.668C207.594 243.695 208.988 242.41 209.016 240.387C208.988 238.363 207.594 237.051 205.707 237.051ZM229.414 228.52C231.656 228.52 233.502 229.764 234.609 231.938H240.379V226.715H243.387V251.461H240.379V242.109H234.828C233.762 244.57 231.807 245.992 229.414 245.992C225.695 245.992 223.07 242.629 223.07 237.242C223.07 231.91 225.695 228.52 229.414 228.52ZM229.414 231.254C227.363 231.254 225.969 233.469 225.996 237.242C225.969 241.043 227.363 243.258 229.414 243.258C231.465 243.258 232.832 241.043 232.859 237.242C232.832 233.469 231.465 231.254 229.414 231.254ZM235.457 234.426C235.635 235.287 235.73 236.23 235.73 237.242C235.73 238.104 235.662 238.896 235.539 239.648H240.379V234.426H235.457ZM260.258 228.52C263.607 228.52 266.082 231.309 266.52 235.82H271.223V226.715H274.23V251.461H271.223V238.281H266.547C266.219 243.053 263.703 245.992 260.258 245.992C256.539 245.992 253.914 242.629 253.914 237.242C253.914 231.91 256.539 228.52 260.258 228.52ZM260.258 231.254C258.207 231.254 256.812 233.469 256.84 237.242C256.812 241.043 258.207 243.258 260.258 243.258C262.309 243.258 263.676 241.043 263.703 237.242C263.676 233.469 262.309 231.254 260.258 231.254ZM298.266 226.715V251.461H295.203V226.715H298.266ZM291.156 228.957V231.445H282.297V242.93C286.85 242.916 289.707 242.779 292.988 242.191L293.289 244.707C289.762 245.363 286.562 245.5 281.34 245.5H279.234V228.957H291.156ZM311.035 232.648C311.035 237.242 313.223 241.754 317.16 243.477L315.328 245.91C312.525 244.543 310.557 241.918 309.504 238.691C308.424 242.096 306.414 244.926 303.57 246.375L301.656 243.914C305.676 242.027 307.918 237.27 307.945 232.648V228.711H311.035V232.648ZM322.629 226.715V251.461H319.621V237.16H314.426V234.699H319.621V226.715H322.629ZM348.66 239.02V241.453H326.102V239.02H348.66ZM346.145 234.316V236.777H328.863V227.699H345.926V230.105H331.898V234.316H346.145ZM346.309 248.453V250.914H328.891V243.613H331.871V248.453H346.309ZM359.625 233.742C359.625 237.789 362.004 242.055 365.996 243.723L364.328 246.129C361.402 244.871 359.27 242.273 358.148 239.129C357 242.52 354.84 245.363 351.941 246.73L350.191 244.352C354.102 242.547 356.535 237.953 356.535 233.742V231.664H351.094V229.148H365.039V231.664H359.625V233.742ZM370.863 226.715V251.434H367.801V226.715H370.863ZM389.977 232.648C389.949 237.051 392.164 241.535 395.992 243.367L394.133 245.801C391.453 244.447 389.525 241.836 388.473 238.691C387.393 242.055 385.369 244.844 382.539 246.266L380.68 243.832C384.645 241.945 386.914 237.215 386.941 232.648V228.711H389.977V232.648ZM400.504 226.715V236.395H404.305V238.992H400.504V251.434H397.469V226.715H400.504ZM427.875 238.609V241.043H405.344V238.609H410.594V235.465C408.734 234.686 407.668 233.441 407.668 231.828C407.668 228.875 411.141 227.125 416.582 227.125C422.023 227.125 425.469 228.875 425.496 231.828C425.482 233.455 424.416 234.699 422.543 235.465V238.609H427.875ZM416.582 242.547C421.914 242.52 425.113 244.105 425.141 246.949C425.113 249.82 421.914 251.379 416.582 251.379C411.195 251.379 407.969 249.82 407.969 246.949C407.969 244.105 411.195 242.52 416.582 242.547ZM416.582 244.844C412.973 244.844 411.031 245.555 411.059 246.949C411.031 248.344 412.973 249.082 416.582 249.082C420.109 249.082 422.078 248.344 422.105 246.949C422.078 245.555 420.109 244.844 416.582 244.844ZM416.582 229.477C412.918 229.477 410.812 230.297 410.84 231.828C410.812 233.332 412.918 234.125 416.582 234.125C420.219 234.125 422.352 233.332 422.352 231.828C422.352 230.297 420.219 229.477 416.582 229.477ZM413.656 238.609H419.508V236.258C418.619 236.381 417.635 236.449 416.582 236.449C415.529 236.449 414.545 236.381 413.656 236.258V238.609ZM448.902 226.715V236.559H452.703V239.074H448.902V251.434H445.895V226.715H448.902ZM443.98 230.516V232.949H429.406V230.516H435.258V227.07H438.293V230.516H443.98ZM436.789 234.562C440.344 234.562 442.996 236.969 442.996 240.387C442.996 243.805 440.344 246.184 436.789 246.184C433.18 246.184 430.527 243.805 430.555 240.387C430.527 236.969 433.18 234.562 436.789 234.562ZM436.789 237.051C434.848 237.051 433.453 238.363 433.453 240.387C433.453 242.41 434.848 243.695 436.789 243.668C438.676 243.695 440.07 242.41 440.098 240.387C440.07 238.363 438.676 237.051 436.789 237.051ZM461.453 233.195C461.453 237.188 462.848 241.344 466.184 243.449L464.516 245.773C462.287 244.434 460.838 242.123 460.031 239.402C459.129 242.396 457.543 244.926 455.219 246.348L453.332 244.078C456.914 241.891 458.527 237.543 458.527 233.332V228.902H461.453V233.195ZM475.07 226.715V251.434H472.145V226.715H475.07ZM469.93 227.152V250.23H467.059V237.734H463.531V235.219H467.059V227.152H469.93ZM500.527 245.938V248.426H477.941V245.938H483.164V239.676C481.195 238.555 480.006 236.791 480.02 234.59C479.992 230.652 483.875 228.055 489.18 228.055C494.512 228.055 498.395 230.652 498.395 234.59C498.395 236.75 497.246 238.486 495.332 239.621V245.938H500.527ZM489.18 230.461C485.488 230.461 482.973 232.02 483 234.59C482.973 237.133 485.488 238.719 489.18 238.719C492.871 238.719 495.414 237.133 495.414 234.59C495.414 232.02 492.871 230.461 489.18 230.461ZM486.172 245.938H492.242V240.77C491.299 240.988 490.273 241.098 489.18 241.098C488.113 241.098 487.102 240.988 486.172 240.797V245.938ZM505.148 249.219C503.973 249.219 503.016 248.262 503.016 247.086C503.016 245.938 503.973 244.98 505.148 244.98C506.27 244.98 507.254 245.938 507.254 247.086C507.254 248.262 506.27 249.219 505.148 249.219Z" fill="#DEDEDE"/>
<path d="M456 497L528 569" stroke="white" stroke-width="2"/>
<path d="M504 505L567 568" stroke="white" stroke-width="2"/>
</svg>
