<svg width="327" height="352" viewBox="0 0 327 352" fill="none" xmlns="http://www.w3.org/2000/svg">
<rect width="327" height="344" rx="16" fill="#FEF2DD"/>
<g filter="url(#filter0_d_1240_71014)">
<path d="M126.6 168.8C126.6 161.731 132.331 156 139.4 156H293.4C300.469 156 306.2 161.731 306.2 168.8V344H126.6V168.8Z" fill="#FCFCFC"/>
</g>
<path d="M177.8 156H255L250.563 160.699C249.354 161.979 247.671 162.704 245.91 162.704H188.074C186.562 162.704 185.098 162.169 183.943 161.192L177.8 156Z" fill="#2A2C3D"/>
<g filter="url(#filter1_d_1240_71014)">
<rect width="151.6" height="44" transform="translate(140.6 192)" fill="#E9EAEC"/>
<circle cx="170" cy="213.997" r="12.2" fill="#CCCED2"/>
<rect x="192.2" y="200.398" width="24.4" height="3.2" rx="1.6" fill="#CCCED2"/>
<rect x="192.2" y="214.797" width="82.8" height="3.2" rx="1.6" fill="#CCCED2"/>
<rect x="192.2" y="224.398" width="48.4" height="3.2" rx="1.6" fill="#CCCED2"/>
</g>
<g filter="url(#filter2_d_1240_71014)">
<rect width="151.6" height="44" transform="translate(140.6 252)" fill="#F3F3F4"/>
<circle cx="170" cy="273.997" r="12.2" fill="#E9EAEC"/>
<rect x="192.2" y="260.398" width="24.4" height="3.2" rx="1.6" fill="#E9EAEC"/>
<rect x="192.2" y="274.797" width="82.8" height="3.2" rx="1.6" fill="#E9EAEC"/>
<rect x="192.2" y="284.398" width="48.4" height="3.2" rx="1.6" fill="#E9EAEC"/>
</g>
<path d="M140.6 312H292.2V344H140.6V312Z" fill="#F3F3F4"/>
<mask id="mask0_1240_71014" style="mask-type:alpha" maskUnits="userSpaceOnUse" x="140" y="312" width="153" height="32">
<rect x="140.6" y="312" width="151.6" height="32" fill="#F3F3F4"/>
</mask>
<g mask="url(#mask0_1240_71014)">
<circle cx="168.4" cy="333.399" r="12.2" fill="#E9EAEC"/>
</g>
<rect x="192.2" y="334.801" width="82.8" height="3.2" rx="1.6" fill="#E9EAEC"/>
<rect x="192.2" y="320.398" width="24.4" height="3.2" rx="1.6" fill="#E9EAEC"/>
<g filter="url(#filter3_d_1240_71014)">
<rect x="87" y="203.602" width="188" height="64.8" rx="8" fill="#F89A05"/>
<circle cx="125.4" cy="236.001" r="19.2" fill="#FCC369"/>
<mask id="mask1_1240_71014" style="mask-type:alpha" maskUnits="userSpaceOnUse" x="106" y="216" width="39" height="40">
<circle cx="125.4" cy="236.001" r="19.2" fill="#FCC369"/>
</mask>
<g mask="url(#mask1_1240_71014)">
<ellipse cx="125.4" cy="252.002" rx="15.2" ry="11.6" fill="#FFF7EB"/>
</g>
<circle cx="125.4" cy="230" r="8" fill="#FFF7EB"/>
<rect x="154.6" y="220" width="35.2" height="4.8" rx="2.4" fill="#FCC369"/>
<rect x="154.6" y="236" width="101.2" height="4.8" rx="2.4" fill="#FCC369"/>
<rect x="154.6" y="247.199" width="76.8" height="4.8" rx="2.4" fill="#FCC369"/>
</g>
<path d="M38.6289 31.043V36.4922H41.0312V38.5234H38.6289V44.3047H36.1289V31.043H38.6289ZM35.0742 32.8984V34.8711H24.5273V32.8984H28.5703V31.0039H31.0508V32.8984H35.0742ZM29.8008 35.4961C32.3789 35.4961 34.1758 36.8828 34.1758 38.9336C34.1758 40.9844 32.3789 42.332 29.8008 42.332C27.2031 42.332 25.3867 40.9844 25.3867 38.9336C25.3867 36.8828 27.2031 35.4961 29.8008 35.4961ZM29.8008 37.3906C28.6094 37.4102 27.8086 37.957 27.8281 38.9336C27.8086 39.9102 28.6094 40.4375 29.8008 40.4375C30.9922 40.4375 31.8125 39.9102 31.8125 38.9336C31.8125 37.957 30.9922 37.4102 29.8008 37.3906ZM39.2734 46.4922V48.4844H27.1055V43.2891H29.5859V46.4922H39.2734ZM60.6797 31.8438V33.2305C60.6797 34.5781 60.6797 36.1211 60.25 38.0938L57.7695 37.8594C58.1211 36.1797 58.1699 34.9492 58.1992 33.7969H48.2773V31.8438H60.6797ZM62.5938 39.0508V41.0234H46.4609V39.0508H52.5156V35.75H54.9766V39.0508H62.5938ZM55.6992 42.6445C55.6992 44.4805 57.5547 46.3359 61.5195 46.8047L60.6211 48.7188C57.6719 48.3379 55.5625 47.1758 54.4492 45.5547C53.3359 47.1758 51.2266 48.3379 48.2969 48.7188L47.418 46.8047C51.3242 46.3359 53.1797 44.4805 53.1797 42.6445V42.0977H55.6992V42.6445ZM79.1172 31.0234V48.7969H76.7344V31.0234H79.1172ZM75.4062 31.2773V47.9766H73.0625V39.5781H71.6367C71.4023 43.0742 69.918 45.1836 67.7305 45.1836C65.3867 45.1836 63.8633 42.7227 63.8633 38.7188C63.8633 34.7344 65.3867 32.293 67.7305 32.293C69.8691 32.293 71.334 34.2852 71.6172 37.6055H73.0625V31.2773H75.4062ZM67.7305 34.6367C66.7344 34.6367 66.1484 36.0039 66.168 38.7188C66.1484 41.4531 66.7344 42.8008 67.7305 42.7812C68.7461 42.8008 69.3516 41.4531 69.3516 38.7188C69.3516 36.0039 68.7461 34.6367 67.7305 34.6367ZM87.7109 35.0469C87.7109 38.3867 89.0586 41.6289 92.0273 42.918L90.5039 44.9102C88.5312 43.9434 87.2129 42.1758 86.4805 39.9883C85.6992 42.3125 84.332 44.2168 82.3008 45.2227L80.7383 43.1914C83.7852 41.8242 85.1719 38.3867 85.1914 35.0469V32.3906H87.7109V35.0469ZM95.9922 31.0234V48.8359H93.5312V38.6211H90.0352V36.6094H93.5312V31.0234H95.9922ZM108.043 46.6289H115.348V45.3789H108.043V46.6289ZM117.809 31.043V41.2773H115.328V31.043H117.809ZM102.906 38.5039C106.227 38.5039 110.543 38.5039 114.352 38.0352L114.469 39.793C113.102 40.0273 111.695 40.1836 110.309 40.2812V42.3711H108.043V43.5039H115.348V42H117.809V48.6016H105.582V42H107.828V40.418C106.178 40.4863 104.605 40.4961 103.199 40.4961L102.906 38.5039ZM110.211 32.1953C110.211 33.6992 111.5 35.125 114.254 35.6523L113.199 37.5273C111.168 37.1172 109.742 36.1699 108.961 34.8906C108.189 36.2871 106.744 37.3418 104.625 37.8008L103.531 35.9062C106.344 35.3398 107.633 33.8164 107.652 32.1953V31.4727H110.211V32.1953ZM135.582 31.0234V48.7969H133.238V31.0234H135.582ZM131.793 31.4141V48.0156H129.469V39.8516H126.559C125.543 41.8828 123.893 43.6406 121.363 45.1055L119.957 43.3477C123.541 41.2188 125.123 38.6309 125.465 35.1445H120.934V33.1328H127.945C127.936 34.8223 127.76 36.4141 127.34 37.8789H129.469V31.4141H131.793ZM152.027 32.3125V33.4258C152.027 34.6562 152.027 36.4336 151.617 38.6406L149.176 38.4062C149.488 36.6973 149.566 35.4082 149.586 34.3438H142.887V32.3125H152.027ZM147.613 36.4141V39.8125C149.381 39.7441 151.197 39.6074 152.867 39.3633L153.004 41.1602C149.312 41.8438 145.133 41.9023 142.047 41.9219L141.832 39.9297C142.828 39.9297 143.951 39.9297 145.133 39.8906V36.4141H147.613ZM156.383 31.0234V36.4336H158.531V38.5234H156.383V44.3242H153.824V31.0234H156.383ZM156.93 46.4922V48.4844H144.449V43.1328H146.949V46.4922H156.93ZM174.254 31.0234V48.8359H171.773V31.0234H174.254ZM168.746 32.5078V39.3633H162.887V42.625C165.592 42.6152 167.896 42.459 170.504 42.0391L170.719 44.0508C167.789 44.5586 165.152 44.6758 161.91 44.6758H160.309V37.3906H166.207V34.5195H160.289V32.5078H168.746ZM190.66 31.0234V37.9766H193.277V40.0273H190.66V48.7969H188.199V31.0234H190.66ZM186.988 33.6797V35.6719H176.539V33.6797H180.562V31.2969H183.062V33.6797H186.988ZM181.812 36.668C184.41 36.668 186.344 38.4258 186.344 40.9062C186.344 43.3867 184.41 45.1445 181.812 45.1445C179.195 45.1445 177.262 43.3867 177.262 40.9062C177.262 38.4258 179.195 36.668 181.812 36.668ZM181.812 38.6797C180.562 38.6992 179.645 39.5391 179.645 40.9062C179.645 42.293 180.562 43.1133 181.812 43.0938C183.062 43.1133 183.961 42.293 183.961 40.9062C183.961 39.5391 183.062 38.6992 181.812 38.6797ZM199.625 35.4961C199.625 38.3672 200.426 41.3359 202.848 42.8984L201.5 44.832C199.967 43.9043 198.99 42.3809 198.434 40.5547C197.789 42.5664 196.725 44.2461 195.113 45.2227L193.59 43.3867C196.227 41.7461 197.203 38.6211 197.203 35.6133V32.5469H199.625V35.4961ZM209.332 31.0234V48.7969H206.949V31.0234H209.332ZM205.602 31.2773V47.9766H203.277V39.0508H200.973V37.0195H203.277V31.2773H205.602ZM227.477 44.6758V46.7266H211.207V44.6758H214.84V40.3203C213.463 39.5 212.633 38.2402 212.633 36.668C212.633 33.7969 215.445 31.8828 219.312 31.8828C223.16 31.8828 225.992 33.7969 226.012 36.668C226.002 38.2012 225.191 39.4512 223.863 40.2812V44.6758H227.477ZM219.312 33.8555C216.773 33.8555 215.094 34.8711 215.094 36.668C215.094 38.4062 216.773 39.4805 219.312 39.4805C221.832 39.4805 223.531 38.4062 223.551 36.668C223.531 34.8711 221.832 33.8555 219.312 33.8555ZM217.301 44.6758H221.344V41.2188C220.709 41.3457 220.025 41.4141 219.312 41.4141C218.6 41.4141 217.926 41.3555 217.301 41.2188V44.6758Z" fill="#F89A05"/>
<path d="M35.6094 70.2656V73.1094H37.5781V74.5469H35.6094V77.3594H33.875V70.2656H35.6094ZM35.6094 77.9688V81.6719H28.1094V82.8438H36.0469V84.2188H26.3906V80.4062H33.875V79.3125H26.375V77.9688H35.6094ZM28.375 70.7344C30.5312 70.7344 32.1094 72.0312 32.125 73.9062C32.1094 75.75 30.5312 77.0625 28.375 77.0625C26.2188 77.0625 24.6094 75.75 24.625 73.9062C24.6094 72.0312 26.2188 70.7344 28.375 70.7344ZM28.375 72.1406C27.1875 72.1406 26.3125 72.8281 26.3281 73.9062C26.3125 74.9688 27.1875 75.6875 28.375 75.6875C29.5625 75.6875 30.4375 74.9688 30.4375 73.9062C30.4375 72.8281 29.5625 72.1406 28.375 72.1406ZM49.3594 70.2656V75.6406H51.5312V77.1094H49.3594V84.3906H47.625V70.2656H49.3594ZM40.5156 71.4219V74.9531H43.8438V71.4219H45.5781V81.0781H38.7969V71.4219H40.5156ZM40.5156 79.6562H43.8438V76.3125H40.5156V79.6562ZM65 77.2031V78.5781H52.125V77.2031H57.6719V75.9062H53.3594V74.5H55.2188V72.0781H53.2812V70.6875H63.8125V72.0781H61.875V74.5H63.7344V75.9062H59.4062V77.2031H65ZM63.4375 79.6875V84.2188H53.6406V79.6875H63.4375ZM55.3594 81.0469V82.8125H61.75V81.0469H55.3594ZM56.9531 74.5H60.125V72.0781H56.9531V74.5ZM77.6406 71.3125V72.1562C77.625 73.125 77.625 74.5156 77.2969 76.3125L75.5781 76.1562C75.8516 74.6953 75.9062 73.6172 75.9375 72.75H70.4375V71.3125H77.6406ZM74.0781 74.5312V77.3438C75.5391 77.2891 77.0391 77.1797 78.4062 76.9844L78.5 78.2344C75.5625 78.7656 72.2344 78.8125 69.75 78.8281L69.5938 77.4375C70.4297 77.4297 71.3672 77.4219 72.3594 77.4062V74.5312H74.0781ZM81.0156 70.2656V74.6719H82.8438V76.125H81.0156V80.8438H79.2344V70.2656H81.0156ZM81.4688 82.7031V84.1094H71.7031V79.9062H73.4531V82.7031H81.4688ZM95.3438 70.2656V84.4062H93.625V70.2656H95.3438ZM91 71.5V76.7969H86.1406V79.6406C88.3672 79.625 90.2891 79.5156 92.4844 79.1406L92.6406 80.5625C90.2344 80.9844 88.125 81.0625 85.5938 81.0625H84.3594V75.4219H89.2344V72.9062H84.3438V71.5H91ZM113.469 70.2656V84.3906H111.812V70.2656H113.469ZM110.656 70.5625V83.6875H109V77.0312H107.438V75.4844H109V70.5625H110.656ZM107.797 71.9375V73.3438H106.797V79.4375C107.242 79.3984 107.664 79.3516 108.062 79.2969L108.172 80.5625C105.953 81.0156 103.047 81.0625 101.25 81.0625L101.047 79.625L102.328 79.6094V73.3438H101.328V71.9375H107.797ZM103.891 79.5781L105.203 79.5312V73.3438H103.891V79.5781ZM126.781 70.2656V84.4062H125.031V70.2656H126.781ZM119.172 71.2969C121.297 71.2969 122.844 73.2344 122.859 76.2812C122.844 79.3594 121.297 81.2812 119.172 81.2812C117.031 81.2812 115.484 79.3594 115.484 76.2812C115.484 73.2344 117.031 71.2969 119.172 71.2969ZM119.172 72.8594C117.969 72.8594 117.156 74.125 117.156 76.2812C117.156 78.4531 117.969 79.7188 119.172 79.7188C120.359 79.7188 121.172 78.4531 121.172 76.2812C121.172 74.125 120.359 72.8594 119.172 72.8594ZM134.188 74.2812C134.188 76.5938 135.547 79.0312 137.828 79.9844L136.875 81.3594C135.203 80.6406 133.984 79.1562 133.344 77.3594C132.688 79.2969 131.453 80.9219 129.797 81.7031L128.797 80.3438C131.031 79.3125 132.422 76.6875 132.422 74.2812V73.0938H129.312V71.6562H137.281V73.0938H134.188V74.2812ZM140.609 70.2656V84.3906H138.859V70.2656H140.609ZM154.875 70.2656V84.3906H153.203V70.2656H154.875ZM151.969 70.5156V83.7031H150.312V76.9844H148.969C148.805 79.7344 147.625 81.4375 145.875 81.4219C144.031 81.4375 142.828 79.4844 142.828 76.375C142.828 73.2656 144.031 71.3438 145.875 71.3438C147.586 71.3438 148.75 72.9375 148.953 75.5781H150.312V70.5156H151.969ZM145.875 72.9844C144.984 72.9688 144.422 74.1719 144.438 76.375C144.422 78.5781 144.984 79.7812 145.875 79.7656C146.812 79.7812 147.375 78.5781 147.375 76.375C147.375 74.1719 146.812 72.9688 145.875 72.9844ZM161.734 73.6562C161.734 76.2812 162.984 78.8594 165.234 79.8438L164.188 81.2344C162.586 80.4531 161.461 78.9531 160.859 77.1094C160.242 79.0547 159.094 80.6719 157.469 81.5L156.375 80.0938C158.672 79.0156 159.953 76.2969 159.969 73.6562V71.4062H161.734V73.6562ZM168.359 70.2656V84.4062H166.641V76.2344H163.672V74.8281H166.641V70.2656H168.359ZM29.7969 100.281C29.7969 102.594 31.1562 105.031 33.4375 105.984L32.4844 107.359C30.8125 106.641 29.5938 105.156 28.9531 103.359C28.2969 105.297 27.0625 106.922 25.4062 107.703L24.4062 106.344C26.6406 105.312 28.0312 102.688 28.0312 100.281V99.0938H24.9219V97.6562H32.8906V99.0938H29.7969V100.281ZM36.2188 96.2656V110.391H34.4688V96.2656H36.2188ZM50.1406 96.2812V106.969H48.3906V105.734H45.625V104.516H48.3906V96.2812H50.1406ZM50.4688 108.703V110.109H40.1094V105.938H41.8438V108.703H50.4688ZM38.2344 102.625C40.8438 102.609 44.3438 102.578 47.3438 102.203L47.4375 103.453C46.2734 103.648 45.0703 103.781 43.875 103.859V106.578H42.1406V103.953C40.8203 104.008 39.5625 104.016 38.4531 104.016L38.2344 102.625ZM42.8438 96.7969C44.9062 96.7969 46.3438 97.8125 46.3594 99.2969C46.3438 100.812 44.9062 101.781 42.8438 101.781C40.75 101.781 39.3125 100.812 39.3125 99.2969C39.3125 97.8125 40.75 96.7969 42.8438 96.7969ZM42.8438 98.0781C41.7188 98.0781 40.9531 98.5312 40.9531 99.2969C40.9531 100.062 41.7188 100.516 42.8438 100.516C43.9219 100.516 44.6875 100.062 44.7031 99.2969C44.6875 98.5312 43.9219 98.0781 42.8438 98.0781ZM67.75 96.2812V107.031H66.0156V104.25H63.9219V102.859H66.0156V101.281H63.9219V99.875H66.0156V96.2812H67.75ZM63.8438 97.8438V99.2344H55.9531V97.8438H59.1094V96.2656H60.8438V97.8438H63.8438ZM59.9531 99.8125C61.875 99.8125 63.25 100.938 63.2656 102.562C63.25 104.188 61.875 105.312 59.9531 105.312C58.0469 105.312 56.6719 104.188 56.6875 102.562C56.6719 100.938 58.0469 99.8125 59.9531 99.8125ZM59.9531 101.172C58.9844 101.188 58.2969 101.703 58.3125 102.562C58.2969 103.453 58.9844 103.969 59.9531 103.969C60.9219 103.969 61.625 103.453 61.625 102.562C61.625 101.703 60.9219 101.188 59.9531 101.172ZM68.0625 108.703V110.109H58.4375V106.109H60.2031V108.703H68.0625ZM80.9375 96.2812V100.375H82.8438V101.797H80.9375V105.828H79.2031V96.2812H80.9375ZM76.2656 105.953C79.2656 105.953 81 106.75 81.0156 108.188C81 109.625 79.2656 110.391 76.2656 110.391C73.2188 110.391 71.5 109.625 71.5 108.188C71.5 106.75 73.2188 105.953 76.2656 105.953ZM76.2656 107.234C74.2344 107.219 73.2344 107.547 73.2344 108.188C73.2344 108.781 74.2344 109.109 76.2656 109.109C78.2656 109.109 79.25 108.781 79.2656 108.188C79.25 107.547 78.2656 107.219 76.2656 107.234ZM69.625 104.016C70.6953 104.016 71.9141 104.016 73.1875 103.969V103.047C71.6016 102.867 70.625 102.148 70.625 101.078C70.625 99.8281 71.9531 99.0625 74.0312 99.0625C76.1094 99.0625 77.4375 99.8281 77.4375 101.078C77.4375 102.141 76.4844 102.852 74.9219 103.031V103.906C76.125 103.852 77.3359 103.75 78.4688 103.594L78.6094 104.797C75.5938 105.312 72.3125 105.359 69.8125 105.359L69.625 104.016ZM78.0938 97.3594V98.6406H69.9844V97.3594H73.1875V96.1562H74.9219V97.3594H78.0938ZM74.0312 100.219C72.9375 100.219 72.2812 100.547 72.2969 101.078C72.2812 101.641 72.9375 101.953 74.0312 101.953C75.125 101.953 75.7812 101.641 75.7812 101.078C75.7812 100.547 75.125 100.219 74.0312 100.219ZM90 96.4844C93.2188 96.4844 95.0781 97.3438 95.0938 98.9062C95.0781 100.484 93.2188 101.328 90 101.344C86.7812 101.328 84.9062 100.484 84.9062 98.9062C84.9062 97.3438 86.7812 96.4844 90 96.4844ZM90 97.7656C87.8438 97.7656 86.7188 98.1719 86.7344 98.9062C86.7188 99.6875 87.8438 100.047 90 100.047C92.1875 100.047 93.2969 99.6875 93.2969 98.9062C93.2969 98.1719 92.1875 97.7656 90 97.7656ZM96.4531 102.094V103.484H83.5781V102.094H96.4531ZM94.8438 104.438V107.891H86.8125V108.938H95.2344V110.266H85.1094V106.656H93.1406V105.719H85.0938V104.438H94.8438ZM112.391 96.2812V100.391H114.297V101.828H112.391V105.828H110.656V96.2812H112.391ZM101.078 104.141C102.141 104.141 103.367 104.133 104.641 104.094V103.234C103.07 103.039 102.078 102.281 102.078 101.172C102.078 99.875 103.438 99.0625 105.484 99.0781C107.547 99.0625 108.891 99.875 108.891 101.172C108.891 102.273 107.922 103.023 106.375 103.219V104.031C107.578 103.977 108.789 103.883 109.922 103.734L110.062 104.938C107.047 105.469 103.75 105.5 101.266 105.5L101.078 104.141ZM112.391 106.438V110.391H110.656V107.797H102.859V106.438H112.391ZM109.547 97.3906V98.6719H101.438V97.3906H104.641V96.1562H106.375V97.3906H109.547ZM105.484 100.25C104.391 100.234 103.734 100.562 103.75 101.172C103.734 101.75 104.391 102.125 105.484 102.109C106.578 102.125 107.234 101.75 107.234 101.172C107.234 100.562 106.578 100.234 105.484 100.25ZM126.797 96.2812V106.484H125.047V96.2812H126.797ZM127.188 108.703V110.109H117.453V105.453H119.203V108.703H127.188ZM119.094 97.2031C121.234 97.2031 122.891 98.6875 122.891 100.734C122.891 102.828 121.234 104.281 119.094 104.281C116.938 104.281 115.281 102.828 115.281 100.734C115.281 98.6875 116.938 97.2031 119.094 97.2031ZM119.094 98.7188C117.891 98.7188 116.969 99.5156 116.984 100.734C116.969 101.984 117.891 102.766 119.094 102.766C120.266 102.766 121.188 101.984 121.188 100.734C121.188 99.5156 120.266 98.7188 119.094 98.7188ZM139.922 96.2656V101.891H142.094V103.328H139.922V110.391H138.203V96.2656H139.922ZM137.109 98.4375V99.8281H128.781V98.4375H132.125V96.4688H133.859V98.4375H137.109ZM133 100.75C135.031 100.75 136.547 102.125 136.547 104.078C136.547 106.031 135.031 107.391 133 107.391C130.938 107.391 129.422 106.031 129.438 104.078C129.422 102.125 130.938 100.75 133 100.75ZM133 102.172C131.891 102.172 131.094 102.922 131.094 104.078C131.094 105.234 131.891 105.969 133 105.953C134.078 105.969 134.875 105.234 134.891 104.078C134.875 102.922 134.078 102.172 133 102.172ZM154.219 97.5625V98.9219C154.203 100.672 154.203 102.641 153.656 105.594L151.906 105.406C152.453 102.656 152.453 100.648 152.469 98.9531H144.031V97.5625H154.219ZM155.562 107.141V108.562H142.688V107.141H147.438V102.234H149.156V107.141H155.562ZM29.7969 126.281C29.7969 128.594 31.1562 131.031 33.4375 131.984L32.4844 133.359C30.8125 132.641 29.5938 131.156 28.9531 129.359C28.2969 131.297 27.0625 132.922 25.4062 133.703L24.4062 132.344C26.6406 131.312 28.0312 128.688 28.0312 126.281V125.094H24.9219V123.656H32.8906V125.094H29.7969V126.281ZM36.2188 122.266V136.391H34.4688V122.266H36.2188ZM50.1406 122.281V132.969H48.3906V131.734H45.625V130.516H48.3906V122.281H50.1406ZM50.4688 134.703V136.109H40.1094V131.938H41.8438V134.703H50.4688ZM38.2344 128.625C40.8438 128.609 44.3438 128.578 47.3438 128.203L47.4375 129.453C46.2734 129.648 45.0703 129.781 43.875 129.859V132.578H42.1406V129.953C40.8203 130.008 39.5625 130.016 38.4531 130.016L38.2344 128.625ZM42.8438 122.797C44.9062 122.797 46.3438 123.812 46.3594 125.297C46.3438 126.812 44.9062 127.781 42.8438 127.781C40.75 127.781 39.3125 126.812 39.3125 125.297C39.3125 123.812 40.75 122.797 42.8438 122.797ZM42.8438 124.078C41.7188 124.078 40.9531 124.531 40.9531 125.297C40.9531 126.062 41.7188 126.516 42.8438 126.516C43.9219 126.516 44.6875 126.062 44.7031 125.297C44.6875 124.531 43.9219 124.078 42.8438 124.078ZM57.1875 126.281C57.1875 128.469 58.4844 130.953 60.7188 131.984L59.75 133.359C58.1562 132.609 56.9766 131.094 56.3438 129.328C55.7031 131.266 54.4688 132.922 52.8438 133.703L51.8281 132.344C54.0781 131.281 55.4375 128.625 55.4531 126.281V125.094H52.375V123.656H60.1406V125.094H57.1875V126.281ZM63.1875 122.266V127.766H65.3594V129.219H63.1875V136.391H61.4531V122.266H63.1875ZM77.7812 122.266V129.562H76.0469V128.031H73.2031V129.109H66.5938V122.891H68.3281V124.672H71.4844V122.891H73.2031V124.141H76.0469V122.266H77.7812ZM77.7812 130.141V133.766H70.2188V134.844H78.2344V136.219H68.4844V132.484H76.0469V131.5H68.4688V130.141H77.7812ZM68.3281 127.734H71.4844V126H68.3281V127.734ZM73.2031 126.703H76.0469V125.453H73.2031V126.703ZM88.5781 124.516C88.5781 126.297 89.7344 127.969 91.9062 128.656L90.9688 130.016C89.4453 129.5 88.3516 128.469 87.75 127.156C87.125 128.656 85.9844 129.836 84.3594 130.406L83.4219 129.047C85.7031 128.25 86.8281 126.375 86.8438 124.359V123.016H88.5781V124.516ZM94.7188 122.266V125.703H96.6875V127.141H94.7188V130.719H92.9844V122.266H94.7188ZM90.125 131.031C93.0469 131.016 94.8438 132.016 94.8594 133.688C94.8438 135.391 93.0469 136.375 90.125 136.375C87.1719 136.375 85.3438 135.391 85.3438 133.688C85.3438 132.016 87.1719 131.016 90.125 131.031ZM90.125 132.391C88.1875 132.391 87.0781 132.859 87.0781 133.688C87.0781 134.562 88.1875 135 90.125 135C92.0625 135 93.1406 134.562 93.1406 133.688C93.1406 132.859 92.0625 132.391 90.125 132.391ZM103.609 123.797V125.188H99.5781V127.5H103.359V128.859H99.5781V131.609C101.32 131.594 102.531 131.531 103.969 131.312L104.109 132.734C102.469 133.016 101.078 133.062 98.875 133.062H97.9219V123.797H103.609ZM109.594 122.266V136.391H107.922V129.219H106.469V135.703H104.828V122.516H106.469V127.812H107.922V122.266H109.594ZM124.125 128.672V129.984H111.219V128.672H124.125ZM122.562 130.828V134.047H114.469V135.031H122.984V136.234H112.734V132.922H120.844V132.047H112.719V130.828H122.562ZM122.531 122.578V125.766H114.578V126.688H122.781V127.875H112.859V124.641H120.797V123.781H112.812V122.578H122.531ZM136.75 123.312V124.156C136.734 125.125 136.734 126.516 136.406 128.312L134.688 128.156C134.961 126.695 135.016 125.617 135.047 124.75H129.547V123.312H136.75ZM133.188 126.531V129.344C134.648 129.289 136.148 129.18 137.516 128.984L137.609 130.234C134.672 130.766 131.344 130.812 128.859 130.828L128.703 129.438C129.539 129.43 130.477 129.422 131.469 129.406V126.531H133.188ZM140.125 122.266V126.672H141.953V128.125H140.125V132.844H138.344V122.266H140.125ZM140.578 134.703V136.109H130.812V131.906H132.562V134.703H140.578ZM154.453 122.266V136.406H152.734V122.266H154.453ZM150.109 123.5V128.797H145.25V131.641C147.477 131.625 149.398 131.516 151.594 131.141L151.75 132.562C149.344 132.984 147.234 133.062 144.703 133.062H143.469V127.422H148.344V124.906H143.453V123.5H150.109ZM167.656 122.234V125.422H169.641V126.828H167.656V129.938H165.922V122.234H167.656ZM167.656 130.562V133.969H160.156V134.969H168.094V136.266H158.438V132.766H165.922V131.828H158.422V130.562H167.656ZM164.906 123.406V124.734H156.531V123.406H159.859V122.156H161.594V123.406H164.906ZM160.719 125.172C162.812 125.188 164.156 126.078 164.172 127.484C164.156 128.938 162.812 129.797 160.719 129.797C158.625 129.797 157.25 128.938 157.25 127.484C157.25 126.078 158.625 125.188 160.719 125.172ZM160.719 126.422C159.625 126.422 158.938 126.812 158.938 127.484C158.938 128.172 159.625 128.547 160.719 128.547C161.812 128.547 162.516 128.172 162.516 127.484C162.516 126.812 161.812 126.422 160.719 126.422ZM181.5 123.438C181.5 125.219 183.484 127.016 186.5 127.406L185.812 128.812C183.414 128.453 181.508 127.273 180.594 125.672C179.664 127.273 177.766 128.453 175.391 128.812L174.703 127.406C177.688 127.016 179.672 125.219 179.672 123.438V122.719H181.5V123.438ZM187.016 130.031V131.469H181.406V136.391H179.688V131.469H174.141V130.031H187.016ZM196.781 131.453C196.781 132.625 197.32 133.859 198.531 134.625C199.758 133.805 200.328 132.523 200.344 131.453V130.875H202.047V131.453C202.031 132.938 202.906 134.312 204.766 134.906L203.922 136.172C202.547 135.711 201.633 134.812 201.141 133.688C200.688 134.797 199.852 135.789 198.578 136.297C197.234 135.812 196.391 134.859 195.953 133.734C195.445 134.82 194.547 135.703 193.234 136.172L192.375 134.906C194.203 134.266 195.078 132.828 195.094 131.453V130.875H196.781V131.453ZM203.531 122.281V130.281H201.781V122.281H203.531ZM195.828 123.031C198 123.031 199.625 124.406 199.625 126.391C199.625 128.359 198 129.734 195.828 129.734C193.641 129.734 192.016 128.359 192.016 126.391C192.016 124.406 193.641 123.031 195.828 123.031ZM195.828 124.5C194.594 124.5 193.703 125.234 193.719 126.391C193.703 127.547 194.594 128.297 195.828 128.297C197.047 128.297 197.922 127.547 197.922 126.391C197.922 125.234 197.047 124.5 195.828 124.5ZM208.859 130.734V132.078H215.078V130.734H216.812V136.219H207.141V130.734H208.859ZM208.859 134.844H215.078V133.406H208.859V134.844ZM218.469 128.516V129.938H205.594V128.516H218.469ZM212.922 122.953C212.922 124.469 214.859 126.062 217.781 126.406L217.172 127.781C214.805 127.461 212.938 126.414 212.031 124.984C211.117 126.422 209.242 127.461 206.891 127.781L206.25 126.406C209.203 126.047 211.125 124.516 211.141 122.953V122.422H212.922V122.953ZM231.203 122.266V136.391H229.484V122.266H231.203ZM221.953 123.641V131.359C223.938 131.328 226.047 131.148 228.219 130.719L228.438 132.172C225.953 132.688 223.641 132.844 221.453 132.844H220.234V123.641H221.953ZM244.312 122.266V127.625H246.484V129.047H244.312V136.406H242.578V122.266H244.312ZM240.438 123.609V125.016H235.562V131.5C237.758 131.5 239.492 131.391 241.438 131.047L241.641 132.516C239.453 132.891 237.547 132.953 235 132.953H233.828V123.609H240.438ZM248.797 135.125C248.125 135.125 247.578 134.578 247.578 133.906C247.578 133.25 248.125 132.703 248.797 132.703C249.438 132.703 250 133.25 250 133.906C250 134.578 249.438 135.125 248.797 135.125Z" fill="#F9C675"/>
<defs>
<filter id="filter0_d_1240_71014" x="121" y="151.2" width="192.4" height="200.8" filterUnits="userSpaceOnUse" color-interpolation-filters="sRGB">
<feFlood flood-opacity="0" result="BackgroundImageFix"/>
<feColorMatrix in="SourceAlpha" type="matrix" values="0 0 0 0 0 0 0 0 0 0 0 0 0 0 0 0 0 0 127 0" result="hardAlpha"/>
<feOffset dx="0.8" dy="1.6"/>
<feGaussianBlur stdDeviation="3.2"/>
<feComposite in2="hardAlpha" operator="out"/>
<feColorMatrix type="matrix" values="0 0 0 0 0.872266 0 0 0 0 0.872266 0 0 0 0 0.872266 0 0 0 0.25 0"/>
<feBlend mode="normal" in2="BackgroundImageFix" result="effect1_dropShadow_1240_71014"/>
<feBlend mode="normal" in="SourceGraphic" in2="effect1_dropShadow_1240_71014" result="shape"/>
</filter>
<filter id="filter1_d_1240_71014" x="135" y="187.2" width="164.4" height="56.8" filterUnits="userSpaceOnUse" color-interpolation-filters="sRGB">
<feFlood flood-opacity="0" result="BackgroundImageFix"/>
<feColorMatrix in="SourceAlpha" type="matrix" values="0 0 0 0 0 0 0 0 0 0 0 0 0 0 0 0 0 0 127 0" result="hardAlpha"/>
<feOffset dx="0.8" dy="1.6"/>
<feGaussianBlur stdDeviation="3.2"/>
<feComposite in2="hardAlpha" operator="out"/>
<feColorMatrix type="matrix" values="0 0 0 0 0.842627 0 0 0 0 0.842627 0 0 0 0 0.842627 0 0 0 0.25 0"/>
<feBlend mode="normal" in2="BackgroundImageFix" result="effect1_dropShadow_1240_71014"/>
<feBlend mode="normal" in="SourceGraphic" in2="effect1_dropShadow_1240_71014" result="shape"/>
</filter>
<filter id="filter2_d_1240_71014" x="135" y="247.2" width="164.4" height="56.8" filterUnits="userSpaceOnUse" color-interpolation-filters="sRGB">
<feFlood flood-opacity="0" result="BackgroundImageFix"/>
<feColorMatrix in="SourceAlpha" type="matrix" values="0 0 0 0 0 0 0 0 0 0 0 0 0 0 0 0 0 0 127 0" result="hardAlpha"/>
<feOffset dx="0.8" dy="1.6"/>
<feGaussianBlur stdDeviation="3.2"/>
<feComposite in2="hardAlpha" operator="out"/>
<feColorMatrix type="matrix" values="0 0 0 0 0.91486 0 0 0 0 0.91486 0 0 0 0 0.91486 0 0 0 0.25 0"/>
<feBlend mode="normal" in2="BackgroundImageFix" result="effect1_dropShadow_1240_71014"/>
<feBlend mode="normal" in="SourceGraphic" in2="effect1_dropShadow_1240_71014" result="shape"/>
</filter>
<filter id="filter3_d_1240_71014" x="81.4" y="198.802" width="200.8" height="77.6008" filterUnits="userSpaceOnUse" color-interpolation-filters="sRGB">
<feFlood flood-opacity="0" result="BackgroundImageFix"/>
<feColorMatrix in="SourceAlpha" type="matrix" values="0 0 0 0 0 0 0 0 0 0 0 0 0 0 0 0 0 0 127 0" result="hardAlpha"/>
<feOffset dx="0.8" dy="1.6"/>
<feGaussianBlur stdDeviation="3.2"/>
<feComposite in2="hardAlpha" operator="out"/>
<feColorMatrix type="matrix" values="0 0 0 0 0.74929 0 0 0 0 0.727033 0 0 0 0 0.700905 0 0 0 0.25 0"/>
<feBlend mode="normal" in2="BackgroundImageFix" result="effect1_dropShadow_1240_71014"/>
<feBlend mode="normal" in="SourceGraphic" in2="effect1_dropShadow_1240_71014" result="shape"/>
</filter>
</defs>
</svg>
