<svg width="1140" height="640" viewBox="0 0 1140 640" fill="none" xmlns="http://www.w3.org/2000/svg">
<rect width="1140" height="640" rx="20" fill="#DCE6FF"/>
<mask id="mask0_1240_71004" style="mask-type:alpha" maskUnits="userSpaceOnUse" x="0" y="0" width="1140" height="640">
<rect width="1140" height="640" rx="20" fill="#DCE6FF"/>
</mask>
<g mask="url(#mask0_1240_71004)">
<g filter="url(#filter0_d_1240_71004)">
<rect x="751" y="207" width="354" height="461" rx="12" fill="#1F1F1F"/>
</g>
<g filter="url(#filter1_d_1240_71004)">
<rect x="733" y="206" width="354" height="462" rx="12" fill="#D9D9D9"/>
</g>
<path d="M829 206H991V209C991 225.569 977.569 239 961 239H859C842.431 239 829 225.569 829 209V206Z" fill="#1F1F1F"/>
<rect x="865" y="219.5" width="90" height="6" rx="3" fill="#D9D9D9"/>
<path d="M817.516 297H810.273L818.746 271.547H827.852L836.289 297H829.082L827.57 292.008H819.027L817.516 297ZM820.574 286.945H826.023L823.387 278.402H823.176L820.574 286.945ZM838.531 304.172V277.91H845.105V281.215H845.281C846.019 279.316 847.777 277.664 850.66 277.664C854.492 277.664 858.148 280.582 858.148 287.473C858.148 294.047 854.702 297.246 850.589 297.246C847.847 297.246 846.054 295.77 845.281 293.871H845.175V304.172H838.531ZM845.035 287.438C845.035 290.32 846.195 292.148 848.199 292.148C850.167 292.148 851.327 290.355 851.327 287.438C851.327 284.555 850.167 282.797 848.199 282.797C846.195 282.797 845.035 284.555 845.035 287.438ZM860.741 304.172V277.91H867.315V281.215H867.491C868.229 279.316 869.987 277.664 872.87 277.664C876.702 277.664 880.358 280.582 880.358 287.473C880.358 294.047 876.913 297.246 872.8 297.246C870.057 297.246 868.264 295.77 867.491 293.871H867.385V304.172H860.741ZM867.245 287.438C867.245 290.32 868.405 292.148 870.409 292.148C872.378 292.148 873.538 290.355 873.538 287.438C873.538 284.555 872.378 282.797 870.409 282.797C868.405 282.797 867.245 284.555 867.245 287.438ZM889.596 271.547V297H882.951V271.547H889.596ZM892.787 297V277.91H899.431V297H892.787ZM896.091 275.836C894.263 275.836 892.787 274.465 892.787 272.777C892.787 271.09 894.263 269.719 896.091 269.719C897.919 269.719 899.396 271.09 899.396 272.777C899.396 274.465 897.919 275.836 896.091 275.836ZM911.727 297.352C905.575 297.352 901.884 293.379 901.884 287.508C901.884 281.637 905.575 277.664 911.727 277.664C917.247 277.664 920.762 280.828 920.833 285.75H914.645C914.47 283.746 913.38 282.656 911.833 282.656C909.934 282.656 908.669 284.238 908.669 287.438C908.669 290.672 909.934 292.289 911.833 292.289C913.38 292.289 914.47 291.199 914.645 289.16H920.833C920.727 294.152 917.317 297.352 911.727 297.352ZM922.442 291.727C922.442 287.508 925.57 285.891 929.473 285.645L933.938 285.469V283.922C933.938 282.867 933.059 282.27 931.758 282.27C930.387 282.27 929.508 282.867 929.332 284.062H923.18C923.426 280.582 926.238 277.664 931.863 277.664C937.172 277.664 940.582 280.266 940.582 283.957V297H934.36V294.328H934.219C933.094 296.402 931.195 297.316 928.664 297.316C925.008 297.316 922.442 295.523 922.442 291.727ZM928.699 291.34C928.699 292.465 929.578 293.062 930.809 293.062C932.461 293.062 934.008 292.008 933.973 290.215V289.195C933.305 289.213 931.547 289.283 930.668 289.371C929.473 289.512 928.699 290.32 928.699 291.34ZM954.812 277.91V282.727H951.472V290.883C951.472 291.797 951.929 292.148 952.843 292.184C953.335 292.219 954.32 292.148 955.058 292.078V297.035C954.425 297.141 953.406 297.281 951.894 297.281C947.253 297.281 944.792 295.523 944.828 291.551V282.727H942.367V277.91H944.828V273.34H951.472V277.91H954.812ZM957.3 297V277.91H963.944V297H957.3ZM960.604 275.836C958.776 275.836 957.3 274.465 957.3 272.777C957.3 271.09 958.776 269.719 960.604 269.719C962.432 269.719 963.909 271.09 963.909 272.777C963.909 274.465 962.432 275.836 960.604 275.836ZM976.24 297.352C970.088 297.352 966.397 293.379 966.397 287.508C966.397 281.637 970.088 277.664 976.24 277.664C982.393 277.664 986.049 281.637 986.049 287.508C986.049 293.379 982.393 297.352 976.24 297.352ZM976.276 292.43C978.139 292.43 979.264 290.496 979.264 287.473C979.264 284.414 978.139 282.516 976.276 282.516C974.342 282.516 973.182 284.414 973.182 287.473C973.182 290.496 974.342 292.43 976.276 292.43ZM995.216 286.207V297H988.572V277.91H994.865V281.496H995.076C995.92 279.105 998.099 277.664 1000.91 277.664C1004.95 277.664 1007.59 280.617 1007.56 284.836V297H1000.91V286.207C1000.95 284.238 999.892 283.078 998.099 283.078C996.341 283.078 995.216 284.238 995.216 286.207Z" fill="black"/>
<circle cx="910" cy="437" r="109.5" fill="#1F1F1F"/>
<ellipse cx="896.956" cy="446.427" rx="61.9562" ry="61.0711" fill="#F2F2F2"/>
<mask id="mask1_1240_71004" style="mask-type:alpha" maskUnits="userSpaceOnUse" x="835" y="383" width="124" height="125">
<path d="M958.912 444.071C958.912 478.924 931.174 507.178 896.956 507.178C862.739 507.178 835 478.924 835 444.071C835 409.218 855.652 383 893.858 383C932.065 383 958.912 409.218 958.912 444.071Z" fill="#FEB9BF"/>
</mask>
<g mask="url(#mask1_1240_71004)">
<ellipse cx="842.228" cy="385.392" rx="62.9888" ry="66.2282" fill="#EE893F"/>
<ellipse cx="924.836" cy="385.392" rx="62.9888" ry="66.2282" fill="#EE893F"/>
</g>
<ellipse cx="955.814" cy="456.608" rx="9.29343" ry="10.1785" fill="#F2F2F2"/>
<path d="M956.847 452.535C958.406 453.892 960.587 457.421 956.847 460.678" stroke="black" stroke-width="1.5"/>
<ellipse cx="869.076" cy="467.804" rx="3.09781" ry="3.05356" fill="#1F1F1F"/>
<ellipse cx="902.119" cy="467.804" rx="3.09781" ry="3.05356" fill="#1F1F1F"/>
<path d="M884.565 468.82C884.335 470.697 882.882 474.064 879.66 477.172C878.89 477.914 878.414 479.031 879.049 479.891C879.898 481.039 881.586 482.052 884.565 482.052" stroke="black" stroke-width="1.5"/>
<path d="M878.369 493.654C881.352 496.91 888.695 499.358 894.891 489.18" stroke="black" stroke-width="1.5"/>
<ellipse cx="933.098" cy="387.393" rx="23.7499" ry="22.3927" fill="#EE893F"/>
<ellipse cx="957.88" cy="403.68" rx="15.4891" ry="16.2856" fill="#EE893F"/>
<ellipse cx="972.336" cy="418.947" rx="13.4238" ry="13.2321" fill="#EE893F"/>
<ellipse cx="976.467" cy="435.231" rx="9.29343" ry="9.16067" fill="#EE893F"/>
<rect x="790" y="566" width="240" height="7.5" rx="3.75" fill="#C4C4C4"/>
<rect x="790" y="582.5" width="207" height="7.5" rx="3.75" fill="#C4C4C4"/>
<rect x="790" y="599" width="159" height="7.5" rx="3.75" fill="#C4C4C4"/>
<rect x="790" y="615.5" width="186" height="7.5" rx="3.75" fill="#C4C4C4"/>
<rect x="790" y="632" width="76.5" height="7.5" rx="3.75" fill="#C4C4C4"/>
</g>
<path d="M83.0312 90.6562C88.7969 90.6562 93.0859 95.4141 93.9531 103.078H101.359V87.6562H107.266V130.406H101.359V107.859H94C93.3672 116.062 88.9844 121.078 83.0312 121.078C76.5625 121.078 71.9219 115.219 71.9688 105.844C71.9219 96.5625 76.5625 90.6562 83.0312 90.6562ZM83.0312 96.0469C79.8438 96.0469 77.6406 99.5156 77.6875 105.844C77.6406 112.219 79.8438 115.641 83.0312 115.641C86.2656 115.641 88.375 112.219 88.375 105.844C88.375 99.5156 86.2656 96.0469 83.0312 96.0469ZM148.469 87.6562V130.406H142.422V87.6562H148.469ZM136.094 91.4062V96.2812H121.328V115.172C128.969 115.148 133.656 114.984 139.047 114L139.609 118.922C133.703 120.047 128.266 120.234 119.031 120.234H115.328V91.4062H136.094ZM170.359 97.3125C170.359 105.328 173.594 113.109 180.719 116.203L177.062 120.984C172.328 118.664 169.164 114.422 167.406 109.172C165.531 114.75 162.25 119.32 157.375 121.734L153.625 116.859C160.938 113.578 164.266 105.328 164.312 97.3125V90.9375H170.359V97.3125ZM190.234 87.6562V130.406H184.328V105.891H175.938V101.062H184.328V87.6562H190.234ZM234.719 108.703V113.484H195.719V108.703H234.719ZM230.453 100.453V105.234H200.453V89.2031H230.031V93.9844H206.406V100.453H230.453ZM230.688 124.734V129.516H200.406V116.812H206.312V124.734H230.688ZM264.812 99.2812C264.812 106.172 268.328 113.531 275.5 116.531L272.266 121.219C267.227 119.086 263.758 114.844 261.859 109.641C259.914 115.289 256.375 119.977 251.359 122.297L247.938 117.562C255.016 114.422 258.672 106.5 258.672 99.2812V96.6562H249.625V91.7812H273.719V96.6562H264.812V99.2812ZM283.984 87.6562V130.312H277.938V87.6562H283.984ZM325.891 87.7031V119.906H319.891V116.531H311.734V112.453H319.891V87.7031H325.891ZM326.828 124.781V129.562H295.047V116.812H301V111.141C297.18 111.305 293.547 111.328 290.312 111.328L289.609 106.594C297.438 106.547 307.984 106.453 316.984 105.328L317.312 109.594C313.938 110.156 310.445 110.555 307 110.812V118.922H301V124.781H326.828ZM303.484 89.1562C309.672 89.1094 314.125 92.25 314.125 96.7969C314.125 101.344 309.672 104.297 303.484 104.297C297.156 104.297 292.75 101.344 292.75 96.7969C292.75 92.25 297.109 89.1094 303.484 89.1562ZM303.484 93.5156C300.438 93.5156 298.375 94.6875 298.422 96.7969C298.375 98.8594 300.438 99.9844 303.484 99.9844C306.344 99.9844 308.406 98.8594 308.453 96.7969C308.406 94.6875 306.344 93.5156 303.484 93.5156ZM365.078 87.6562V97.3594H370.844V102.281H365.078V112.547H359.078V87.6562H365.078ZM338.453 90.1406V95.5781H347.172V90.1406H353.172V110.438H332.5V90.1406H338.453ZM338.453 105.75H347.172V100.219H338.453V105.75ZM365.312 114.469V119.203H343.141V125.062H366.109V129.75H337.188V114.469H365.312ZM392.172 89.8125C401.172 89.8594 408.203 94.6875 408.25 102.094C408.203 109.547 401.172 114.422 392.172 114.375C383.125 114.422 376.141 109.547 376.141 102.094C376.141 94.6875 383.125 89.8594 392.172 89.8125ZM392.172 94.6875C386.266 94.6406 381.953 97.5 381.953 102.094C381.953 106.734 386.266 109.5 392.172 109.5C398.078 109.5 402.297 106.734 402.344 102.094C402.297 97.5 398.078 94.6406 392.172 94.6875ZM411.766 120.281V125.109H372.719V120.281H411.766ZM427.891 98.3906C427.891 105.281 429.812 112.406 435.625 116.156L432.391 120.797C428.711 118.57 426.367 114.914 425.031 110.531C423.484 115.359 420.93 119.391 417.062 121.734L413.406 117.328C419.734 113.391 422.078 105.891 422.078 98.6719V91.3125H427.891V98.3906ZM451.188 87.6562V130.312H445.469V87.6562H451.188ZM442.234 88.2656V128.344H436.656V106.922H431.125V102.047H436.656V88.2656H442.234ZM494.734 120.422V125.344H455.688V120.422H464.406V109.969C461.102 108 459.109 104.977 459.109 101.203C459.109 94.3125 465.859 89.7188 475.141 89.7188C484.375 89.7188 491.172 94.3125 491.219 101.203C491.195 104.883 489.25 107.883 486.062 109.875V120.422H494.734ZM475.141 94.4531C469.047 94.4531 465.016 96.8906 465.016 101.203C465.016 105.375 469.047 107.953 475.141 107.953C481.188 107.953 485.266 105.375 485.312 101.203C485.266 96.8906 481.188 94.4531 475.141 94.4531ZM470.312 120.422H480.016V112.125C478.492 112.43 476.852 112.594 475.141 112.594C473.43 112.594 471.812 112.453 470.312 112.125V120.422Z" fill="#3A5497"/>
<path d="M90.1797 187.715V197.094H93.9805V199.582H90.1797V212.461H87.1445V187.715H90.1797ZM83.3984 190.066V192.527H74.8672V203.875C78.709 203.875 81.7441 203.684 85.1484 203.082L85.5039 205.652C81.6758 206.309 78.3398 206.418 73.8828 206.418H71.832V190.066H83.3984ZM117.879 191.023V193.512H114.516V196.328H117.879V198.844H114.516V202.234H111.48V187.715H114.516V191.023H117.879ZM101.965 189.137C105.766 189.109 108.609 191.543 108.637 195.043C108.609 198.516 105.766 200.949 101.965 200.977C98.1367 200.949 95.2656 198.516 95.293 195.043C95.2656 191.543 98.1367 189.109 101.965 189.137ZM101.965 191.68C99.832 191.68 98.2461 193.02 98.2734 195.043C98.2461 197.094 99.832 198.379 101.965 198.406C104.07 198.379 105.656 197.094 105.656 195.043C105.656 193.02 104.07 191.68 101.965 191.68ZM106.477 202.809C111.535 202.809 114.734 204.613 114.762 207.621C114.734 210.629 111.535 212.406 106.477 212.406C101.363 212.406 98.1094 210.629 98.1094 207.621C98.1094 204.613 101.363 202.809 106.477 202.809ZM106.477 205.242C103.086 205.242 101.145 206.062 101.145 207.621C101.145 209.18 103.086 209.973 106.477 209.973C109.867 209.973 111.754 209.18 111.754 207.621C111.754 206.062 109.867 205.242 106.477 205.242ZM138.715 187.742V195.508H142.16V198.023H138.715V206.199H135.68V187.742H138.715ZM133.902 190.477V192.91H119.246V190.477H125.07V187.715H128.105V190.477H133.902ZM126.574 193.922C130.129 193.922 132.59 195.809 132.617 198.652C132.59 201.469 130.129 203.328 126.574 203.328C122.992 203.328 120.504 201.469 120.504 198.652C120.504 195.809 122.992 193.922 126.574 193.922ZM126.574 196.273C124.688 196.273 123.457 197.148 123.457 198.652C123.457 200.129 124.688 201.004 126.574 200.977C128.461 201.004 129.719 200.129 129.719 198.652C129.719 197.148 128.461 196.273 126.574 196.273ZM139.699 209.48V211.941H122.883V204.75H125.918V209.48H139.699ZM158.895 193.648C158.867 198.051 161.082 202.535 164.91 204.367L163.051 206.801C160.371 205.447 158.443 202.836 157.391 199.691C156.311 203.055 154.287 205.844 151.457 207.266L149.598 204.832C153.562 202.945 155.832 198.215 155.859 193.648V189.711H158.895V193.648ZM169.422 187.715V197.395H173.223V199.992H169.422V212.434H166.387V187.715H169.422ZM194.824 187.715V212.461H191.762V187.715H194.824ZM181.508 189.52C185.227 189.52 187.934 192.91 187.961 198.242C187.934 203.629 185.227 206.992 181.508 206.992C177.762 206.992 175.055 203.629 175.055 198.242C175.055 192.91 177.762 189.52 181.508 189.52ZM181.508 192.254C179.402 192.254 177.98 194.469 177.98 198.242C177.98 202.043 179.402 204.258 181.508 204.258C183.586 204.258 185.008 202.043 185.008 198.242C185.008 194.469 183.586 192.254 181.508 192.254ZM218.559 200.676V203.082H201.223V189.656H218.34V192.117H204.312V195.098H217.766V197.477H204.312V200.676H218.559ZM221.047 206.938V209.426H198.461V206.938H221.047ZM227.473 208.059L225.176 215.715H222.578L224 208.059H227.473ZM248.227 195.645C248.062 193.949 246.613 192.965 244.48 192.965C242.238 192.965 240.871 194.059 240.871 195.535C240.871 197.203 242.621 197.887 244.262 198.27L246.121 198.762C249.074 199.445 251.918 201.004 251.918 204.449C251.918 207.922 249.184 210.301 244.426 210.301C239.805 210.301 236.906 208.086 236.742 204.176H240.242C240.406 206.254 242.156 207.266 244.398 207.266C246.75 207.266 248.363 206.117 248.363 204.422C248.363 202.863 246.914 202.207 244.781 201.66L242.539 201.086C239.285 200.238 237.262 198.598 237.262 195.754C237.262 192.254 240.379 189.93 244.535 189.93C248.746 189.93 251.59 192.309 251.645 195.645H248.227ZM271.141 190.203V210H267.969L258.59 196.465H258.426V210H254.871V190.203H258.098L267.422 203.738H267.613V190.203H271.141ZM285.578 195.645C285.414 193.949 283.965 192.965 281.832 192.965C279.59 192.965 278.223 194.059 278.223 195.535C278.223 197.203 279.973 197.887 281.613 198.27L283.473 198.762C286.426 199.445 289.27 201.004 289.27 204.449C289.27 207.922 286.535 210.301 281.777 210.301C277.156 210.301 274.258 208.086 274.094 204.176H277.594C277.758 206.254 279.508 207.266 281.75 207.266C284.102 207.266 285.715 206.117 285.715 204.422C285.715 202.863 284.266 202.207 282.133 201.66L279.891 201.086C276.637 200.238 274.613 198.598 274.613 195.754C274.613 192.254 277.73 189.93 281.887 189.93C286.098 189.93 288.941 192.309 288.996 195.645H285.578ZM296.023 208.059L293.727 215.715H291.129L292.551 208.059H296.023ZM327.551 200.074V202.508H318.008V207.047H315V202.508H304.965V200.074H327.551ZM324.652 188.836V197.777H307.836V188.836H324.652ZM310.789 191.215V195.398H321.645V191.215H310.789ZM325.062 209.48V211.941H307.699V204.777H310.734V209.48H325.062ZM338.051 194.742C338.051 198.57 340.32 202.918 344.23 204.723L342.535 207.129C339.746 205.816 337.682 203.164 336.574 200.074C335.453 203.465 333.293 206.363 330.449 207.73L328.672 205.352C332.609 203.492 334.988 198.844 335.016 194.742V192.664H329.629V190.148H343.219V192.664H338.051V194.742ZM348.551 187.715V197.34H352.352V199.883H348.551V212.434H345.516V187.715H348.551ZM373.105 187.715V197.586H376.523V200.102H373.105V212.434H370.043V187.715H373.105ZM360.801 190.312C360.773 196.793 359.871 202.262 355.414 207.074L353.035 205.352C356.521 201.66 357.656 197.75 357.902 192.801H354.02V190.312H360.801ZM367.637 190.312C367.609 196.957 366.926 203.301 362.469 208.66L360.035 206.992C363.562 202.795 364.547 198.16 364.766 192.801H361.621V190.312H367.637ZM386.914 194.742C386.914 198.789 389.293 203.055 393.285 204.723L391.617 207.129C388.691 205.871 386.559 203.273 385.438 200.129C384.289 203.52 382.129 206.363 379.23 207.73L377.48 205.352C381.391 203.547 383.824 198.953 383.824 194.742V192.664H378.383V190.148H392.328V192.664H386.914V194.742ZM398.152 187.715V212.434H395.09V187.715H398.152ZM91.5195 233.742V251.844H88.4844V242.848H84.0273C83.3848 245.746 80.8281 247.715 77.6836 247.715C73.9648 247.715 71.1484 245.117 71.1484 241.48C71.1484 237.844 73.9648 235.273 77.6836 235.273C80.9102 235.273 83.5215 237.324 84.082 240.359H88.4844V233.742H91.5195ZM92.1484 255.48V257.941H75.3047V250.012H78.3398V255.48H92.1484ZM77.6836 237.926C75.6055 237.926 74.0469 239.293 74.0469 241.48C74.0469 243.668 75.6055 245.09 77.6836 245.09C79.707 245.09 81.2383 243.668 81.2656 241.48C81.2383 239.293 79.707 237.926 77.6836 237.926ZM116.293 233.715V258.434H113.395V233.715H116.293ZM111.262 234.18V257.23H108.391V244.789H104.836V242.328H108.391V234.18H111.262ZM102.648 240.469C102.648 244.652 104.152 248.836 107.68 250.859L105.875 253.102C103.592 251.734 102.074 249.383 101.227 246.566C100.352 249.615 98.7793 252.213 96.4414 253.676L94.582 251.406C98.1641 249.246 99.7227 244.762 99.7227 240.469V238.828H95.4297V236.367H106.641V238.828H102.648V240.469ZM132.617 235.52C135.967 235.52 138.441 238.309 138.879 242.82H143.582V233.715H146.59V258.461H143.582V245.281H138.906C138.578 250.053 136.062 252.992 132.617 252.992C128.898 252.992 126.273 249.629 126.273 244.242C126.273 238.91 128.898 235.52 132.617 235.52ZM132.617 238.254C130.566 238.254 129.172 240.469 129.199 244.242C129.172 248.043 130.566 250.258 132.617 250.258C134.668 250.258 136.035 248.043 136.062 244.242C136.035 240.469 134.668 238.254 132.617 238.254ZM170.625 233.715V258.461H167.562V233.715H170.625ZM163.516 235.957V238.445H154.656V249.93C159.209 249.916 162.066 249.779 165.348 249.191L165.648 251.707C162.121 252.363 158.922 252.5 153.699 252.5H151.594V235.957H163.516ZM183.395 239.648C183.395 244.242 185.582 248.754 189.52 250.477L187.688 252.91C184.885 251.543 182.916 248.918 181.863 245.691C180.783 249.096 178.773 251.926 175.93 253.375L174.016 250.914C178.035 249.027 180.277 244.27 180.305 239.648V235.711H183.395V239.648ZM194.988 233.715V258.461H191.98V244.16H186.785V241.699H191.98V233.715H194.988ZM221.02 246.02V248.453H198.461V246.02H221.02ZM218.504 241.316V243.777H201.223V234.699H218.285V237.105H204.258V241.316H218.504ZM218.668 255.453V257.914H201.25V250.613H204.23V255.453H218.668ZM248.801 233.715V238.691H252.246V241.207H248.801V246.129H245.766V233.715H248.801ZM248.801 247.195V253.676H235.676V255.727H249.566V258.133H232.668V251.461H245.766V249.547H232.641V247.195H248.801ZM236.141 234.535C239.914 234.535 242.676 236.805 242.703 240.086C242.676 243.312 239.914 245.609 236.141 245.609C232.367 245.609 229.551 243.312 229.578 240.086C229.551 236.805 232.367 234.535 236.141 234.535ZM236.141 236.996C234.062 236.996 232.531 238.199 232.559 240.086C232.531 241.945 234.062 243.203 236.141 243.203C238.219 243.203 239.75 241.945 239.75 240.086C239.75 238.199 238.219 236.996 236.141 236.996ZM272.863 233.715V243.121H276.664V245.691H272.863V258.434H269.828V233.715H272.863ZM257.387 235.738V241.918H263.211V235.738H266.246V252.637H254.379V235.738H257.387ZM257.387 250.148H263.211V244.297H257.387V250.148ZM285.414 238.309C285.414 240.988 286.973 243.668 290.227 244.898L288.613 247.223C286.412 246.375 284.881 244.803 283.992 242.875C283.09 245.09 281.477 246.977 279.125 247.961L277.484 245.637C280.875 244.133 282.461 241.043 282.488 238.309V235.246H285.414V238.309ZM298.84 233.742V248.891H295.941V242.465H293.48V248.125H290.637V234.207H293.48V239.977H295.941V233.742H298.84ZM290.5 249.301C295.668 249.301 298.949 250.996 298.977 253.84C298.949 256.684 295.668 258.406 290.5 258.406C285.277 258.406 282.023 256.684 282.023 253.84C282.023 250.996 285.277 249.301 290.5 249.301ZM290.5 251.598C287.082 251.598 285.059 252.391 285.059 253.84C285.059 255.316 287.082 256.082 290.5 256.082C293.891 256.082 295.914 255.316 295.914 253.84C295.914 252.391 293.891 251.598 290.5 251.598ZM313.141 234.098C318.773 234.098 322.027 235.602 322.055 238.336C322.027 241.098 318.773 242.574 313.141 242.602C307.508 242.574 304.227 241.098 304.227 238.336C304.227 235.602 307.508 234.098 313.141 234.098ZM313.141 236.34C309.367 236.34 307.398 237.051 307.426 238.336C307.398 239.703 309.367 240.332 313.141 240.332C316.969 240.332 318.91 239.703 318.91 238.336C318.91 237.051 316.969 236.34 313.141 236.34ZM324.434 243.914V246.348H301.902V243.914H324.434ZM321.617 248.016V254.059H307.562V255.891H322.301V258.215H304.582V251.898H318.637V250.258H304.555V248.016H321.617ZM352.516 235.219V237.434C352.516 239.744 352.516 242.273 351.859 245.773H355.277V248.234H345.461V258.461H342.398V248.234H332.746V245.773H348.77C349.453 242.41 349.48 239.895 349.48 237.68H335.398V235.219H352.516ZM369.004 237.652V240.086H356.891V237.652H361.484V234.426H364.492V237.652H369.004ZM362.988 241.398C366.133 241.398 368.375 243.777 368.375 247.141C368.375 250.559 366.133 252.965 362.988 252.965C359.871 252.965 357.574 250.559 357.602 247.141C357.574 243.777 359.871 241.398 362.988 241.398ZM362.988 243.914C361.375 243.914 360.254 245.199 360.281 247.141C360.254 249.137 361.375 250.395 362.988 250.367C364.574 250.395 365.695 249.137 365.695 247.141C365.695 245.199 364.574 243.914 362.988 243.914ZM378.191 233.715V258.434H375.293V246.348H372.887V257.312H370.043V234.234H372.887V243.887H375.293V233.715H378.191ZM403.73 252.965V255.453H381.145V252.965H390.879V248.152H383.633V235.355H386.668V239.402H398.125V235.355H401.16V248.152H393.887V252.965H403.73ZM386.668 245.691H398.125V241.836H386.668V245.691ZM413.055 240.195C413.055 244.188 414.449 248.344 417.785 250.449L416.117 252.773C413.889 251.434 412.439 249.123 411.633 246.402C410.73 249.396 409.145 251.926 406.82 253.348L404.934 251.078C408.516 248.891 410.129 244.543 410.129 240.332V235.902H413.055V240.195ZM426.672 233.715V258.434H423.746V233.715H426.672ZM421.531 234.152V257.23H418.66V244.734H415.133V242.219H418.66V234.152H421.531ZM452.129 252.938V255.426H429.543V252.938H434.766V246.676C432.797 245.555 431.607 243.791 431.621 241.59C431.594 237.652 435.477 235.055 440.781 235.055C446.113 235.055 449.996 237.652 449.996 241.59C449.996 243.75 448.848 245.486 446.934 246.621V252.938H452.129ZM440.781 237.461C437.09 237.461 434.574 239.02 434.602 241.59C434.574 244.133 437.09 245.719 440.781 245.719C444.473 245.719 447.016 244.133 447.016 241.59C447.016 239.02 444.473 237.461 440.781 237.461ZM437.773 252.938H443.844V247.77C442.9 247.988 441.875 248.098 440.781 248.098C439.715 248.098 438.703 247.988 437.773 247.797V252.938ZM456.75 256.219C455.574 256.219 454.617 255.262 454.617 254.086C454.617 252.938 455.574 251.98 456.75 251.98C457.871 251.98 458.855 252.938 458.855 254.086C458.855 255.262 457.871 256.219 456.75 256.219Z" fill="#8C9ECC"/>
<circle cx="66" cy="66" r="66" transform="matrix(1 0 0 -1 522 452.496)" fill="#B679EB"/>
<path d="M645 402L645 366L679 384L645 402Z" fill="#B679EB"/>
<rect x="546" y="357" width="84" height="57" fill="#EBEBEB"/>
<path d="M631 356V368.673L630.412 368.938L588.412 387.911L588 388.098L587.588 387.911L545.588 368.938L545 368.673V356H631Z" fill="#EBEBEB" stroke="#B679EB" stroke-width="2"/>
<circle cx="622" cy="220" r="66" fill="#4672E1"/>
<path d="M679.456 242.001L654 267.457L690.77 278.771L679.456 242.001Z" fill="#4672E1"/>
<rect x="586" y="179" width="66" height="81" fill="#EBEBEB"/>
<path d="M652 179H658V205C658 208.314 655.314 211 652 211V179Z" fill="#EBEBEB"/>
<rect x="603" y="193" width="35" height="13" stroke="#4672E1" stroke-width="2"/>
<defs>
<filter id="filter0_d_1240_71004" x="737" y="195" width="386" height="493" filterUnits="userSpaceOnUse" color-interpolation-filters="sRGB">
<feFlood flood-opacity="0" result="BackgroundImageFix"/>
<feColorMatrix in="SourceAlpha" type="matrix" values="0 0 0 0 0 0 0 0 0 0 0 0 0 0 0 0 0 0 127 0" result="hardAlpha"/>
<feOffset dx="2" dy="4"/>
<feGaussianBlur stdDeviation="8"/>
<feComposite in2="hardAlpha" operator="out"/>
<feColorMatrix type="matrix" values="0 0 0 0 0.778351 0 0 0 0 0.766148 0 0 0 0 0.766148 0 0 0 0.25 0"/>
<feBlend mode="normal" in2="BackgroundImageFix" result="effect1_dropShadow_1240_71004"/>
<feBlend mode="normal" in="SourceGraphic" in2="effect1_dropShadow_1240_71004" result="shape"/>
</filter>
<filter id="filter1_d_1240_71004" x="719" y="194" width="386" height="494" filterUnits="userSpaceOnUse" color-interpolation-filters="sRGB">
<feFlood flood-opacity="0" result="BackgroundImageFix"/>
<feColorMatrix in="SourceAlpha" type="matrix" values="0 0 0 0 0 0 0 0 0 0 0 0 0 0 0 0 0 0 127 0" result="hardAlpha"/>
<feOffset dx="2" dy="4"/>
<feGaussianBlur stdDeviation="8"/>
<feComposite in2="hardAlpha" operator="out"/>
<feColorMatrix type="matrix" values="0 0 0 0 0.778351 0 0 0 0 0.766148 0 0 0 0 0.766148 0 0 0 0.25 0"/>
<feBlend mode="normal" in2="BackgroundImageFix" result="effect1_dropShadow_1240_71004"/>
<feBlend mode="normal" in="SourceGraphic" in2="effect1_dropShadow_1240_71004" result="shape"/>
</filter>
</defs>
</svg>
