<svg width="327" height="344" viewBox="0 0 327 344" fill="none" xmlns="http://www.w3.org/2000/svg">
<rect width="327" height="344" rx="16" fill="#DCE6FF"/>
<path d="M29.4297 32.2734C31.832 32.2734 33.6191 34.2559 33.9805 37.4492H37.0664V31.0234H39.5273V48.8359H37.0664V39.4414H34C33.7363 42.8594 31.9102 44.9492 29.4297 44.9492C26.7344 44.9492 24.8008 42.5078 24.8203 38.6016C24.8008 34.7344 26.7344 32.2734 29.4297 32.2734ZM29.4297 34.5195C28.1016 34.5195 27.1836 35.9648 27.2031 38.6016C27.1836 41.2578 28.1016 42.6836 29.4297 42.6836C30.7773 42.6836 31.6562 41.2578 31.6562 38.6016C31.6562 35.9648 30.7773 34.5195 29.4297 34.5195ZM56.6953 31.0234V48.8359H54.1758V31.0234H56.6953ZM51.5391 32.5859V34.6172H45.3867V42.4883C48.5703 42.4785 50.5234 42.4102 52.7695 42L53.0039 44.0508C50.543 44.5195 48.2773 44.5977 44.4297 44.5977H42.8867V32.5859H51.5391ZM65.8164 35.0469C65.8164 38.3867 67.1641 41.6289 70.1328 42.918L68.6094 44.9102C66.6367 43.9434 65.3184 42.1758 64.5859 39.9883C63.8047 42.3125 62.4375 44.2168 60.4062 45.2227L58.8438 43.1914C61.8906 41.8242 63.2773 38.3867 63.2969 35.0469V32.3906H65.8164V35.0469ZM74.0977 31.0234V48.8359H71.6367V38.6211H68.1406V36.6094H71.6367V31.0234H74.0977ZM92.6328 39.793V41.7852H76.3828V39.793H92.6328ZM90.8555 36.3555V38.3477H78.3555V31.668H90.6797V33.6602H80.8359V36.3555H90.8555ZM90.9531 46.4727V48.4648H78.3359V43.1719H80.7969V46.4727H90.9531ZM105.172 35.8672C105.172 38.7383 106.637 41.8047 109.625 43.0547L108.277 45.0078C106.178 44.1191 104.732 42.3516 103.941 40.1836C103.131 42.5371 101.656 44.4902 99.5664 45.457L98.1406 43.4844C101.09 42.1758 102.613 38.875 102.613 35.8672V34.7734H98.8438V32.7422H108.883V34.7734H105.172V35.8672ZM113.16 31.0234V48.7969H110.641V31.0234H113.16ZM130.621 31.043V44.4609H128.121V43.0547H124.723V41.3555H128.121V31.043H130.621ZM131.012 46.4922V48.4844H117.77V43.1719H120.25V40.8086C118.658 40.877 117.145 40.8867 115.797 40.8867L115.504 38.9141C118.766 38.8945 123.16 38.8555 126.91 38.3867L127.047 40.1641C125.641 40.3984 124.186 40.5645 122.75 40.6719V44.0508H120.25V46.4922H131.012ZM121.285 31.6484C123.863 31.6289 125.719 32.9375 125.719 34.832C125.719 36.7266 123.863 37.957 121.285 37.957C118.648 37.957 116.812 36.7266 116.812 34.832C116.812 32.9375 118.629 31.6289 121.285 31.6484ZM121.285 33.4648C120.016 33.4648 119.156 33.9531 119.176 34.832C119.156 35.6914 120.016 36.1602 121.285 36.1602C122.477 36.1602 123.336 35.6914 123.355 34.832C123.336 33.9531 122.477 33.4648 121.285 33.4648ZM146.949 31.0234V35.0664H149.352V37.1172H146.949V41.3945H144.449V31.0234H146.949ZM135.855 32.0586V34.3242H139.488V32.0586H141.988V40.5156H133.375V32.0586H135.855ZM135.855 38.5625H139.488V36.2578H135.855V38.5625ZM147.047 42.1953V44.168H137.809V46.6094H147.379V48.5625H135.328V42.1953H147.047ZM158.238 31.9219C161.988 31.9414 164.918 33.9531 164.938 37.0391C164.918 40.1445 161.988 42.1758 158.238 42.1562C154.469 42.1758 151.559 40.1445 151.559 37.0391C151.559 33.9531 154.469 31.9414 158.238 31.9219ZM158.238 33.9531C155.777 33.9336 153.98 35.125 153.98 37.0391C153.98 38.9727 155.777 40.125 158.238 40.125C160.699 40.125 162.457 38.9727 162.477 37.0391C162.457 35.125 160.699 33.9336 158.238 33.9531ZM166.402 44.6172V46.6289H150.133V44.6172H166.402ZM173.121 35.4961C173.121 38.3672 173.922 41.3359 176.344 42.8984L174.996 44.832C173.463 43.9043 172.486 42.3809 171.93 40.5547C171.285 42.5664 170.221 44.2461 168.609 45.2227L167.086 43.3867C169.723 41.7461 170.699 38.6211 170.699 35.6133V32.5469H173.121V35.4961ZM182.828 31.0234V48.7969H180.445V31.0234H182.828ZM179.098 31.2773V47.9766H176.773V39.0508H174.469V37.0195H176.773V31.2773H179.098ZM200.973 44.6758V46.7266H184.703V44.6758H188.336V40.3203C186.959 39.5 186.129 38.2402 186.129 36.668C186.129 33.7969 188.941 31.8828 192.809 31.8828C196.656 31.8828 199.488 33.7969 199.508 36.668C199.498 38.2012 198.688 39.4512 197.359 40.2812V44.6758H200.973ZM192.809 33.8555C190.27 33.8555 188.59 34.8711 188.59 36.668C188.59 38.4062 190.27 39.4805 192.809 39.4805C195.328 39.4805 197.027 38.4062 197.047 36.668C197.027 34.8711 195.328 33.8555 192.809 33.8555ZM190.797 44.6758H194.84V41.2188C194.205 41.3457 193.521 41.4141 192.809 41.4141C192.096 41.4141 191.422 41.3555 190.797 41.2188V44.6758Z" fill="#3A5497"/>
<path d="M35.5312 70.2656V75.625H37.7031V77.0469H35.5312V84.4062H33.7969V70.2656H35.5312ZM31.6562 71.6094V73.0156H26.7812V79.5C28.9766 79.5 30.7109 79.3906 32.6562 79.0469L32.8594 80.5156C30.6719 80.8906 28.7656 80.9531 26.2188 80.9531H25.0469V71.6094H31.6562ZM51.3594 72.1562V73.5781H49.4375V75.1875H51.3594V76.625H49.4375V78.5625H47.7031V70.2656H49.4375V72.1562H51.3594ZM42.2656 71.0781C44.4375 71.0625 46.0625 72.4531 46.0781 74.4531C46.0625 76.4375 44.4375 77.8281 42.2656 77.8438C40.0781 77.8281 38.4375 76.4375 38.4531 74.4531C38.4375 72.4531 40.0781 71.0625 42.2656 71.0781ZM42.2656 72.5312C41.0469 72.5312 40.1406 73.2969 40.1562 74.4531C40.1406 75.625 41.0469 76.3594 42.2656 76.375C43.4688 76.3594 44.375 75.625 44.375 74.4531C44.375 73.2969 43.4688 72.5312 42.2656 72.5312ZM44.8438 78.8906C47.7344 78.8906 49.5625 79.9219 49.5781 81.6406C49.5625 83.3594 47.7344 84.375 44.8438 84.375C41.9219 84.375 40.0625 83.3594 40.0625 81.6406C40.0625 79.9219 41.9219 78.8906 44.8438 78.8906ZM44.8438 80.2812C42.9062 80.2812 41.7969 80.75 41.7969 81.6406C41.7969 82.5312 42.9062 82.9844 44.8438 82.9844C46.7812 82.9844 47.8594 82.5312 47.8594 81.6406C47.8594 80.75 46.7812 80.2812 44.8438 80.2812ZM63.2656 70.2812V74.7188H65.2344V76.1562H63.2656V80.8281H61.5312V70.2812H63.2656ZM60.5156 71.8438V73.2344H52.1406V71.8438H55.4688V70.2656H57.2031V71.8438H60.5156ZM56.3281 73.8125C58.3594 73.8125 59.7656 74.8906 59.7812 76.5156C59.7656 78.125 58.3594 79.1875 56.3281 79.1875C54.2812 79.1875 52.8594 78.125 52.8594 76.5156C52.8594 74.8906 54.2812 73.8125 56.3281 73.8125ZM56.3281 75.1562C55.25 75.1562 54.5469 75.6562 54.5469 76.5156C54.5469 77.3594 55.25 77.8594 56.3281 77.8438C57.4062 77.8594 58.125 77.3594 58.125 76.5156C58.125 75.6562 57.4062 75.1562 56.3281 75.1562ZM63.8281 82.7031V84.1094H54.2188V80H55.9531V82.7031H63.8281ZM74.7969 73.6562C74.7812 76.1719 76.0469 78.7344 78.2344 79.7812L77.1719 81.1719C75.6406 80.3984 74.5391 78.9062 73.9375 77.1094C73.3203 79.0312 72.1641 80.625 70.5469 81.4375L69.4844 80.0469C71.75 78.9688 73.0469 76.2656 73.0625 73.6562V71.4062H74.7969V73.6562ZM80.8125 70.2656V75.7969H82.9844V77.2812H80.8125V84.3906H79.0781V70.2656H80.8125ZM95.3281 70.2656V84.4062H93.5781V70.2656H95.3281ZM87.7188 71.2969C89.8438 71.2969 91.3906 73.2344 91.4062 76.2812C91.3906 79.3594 89.8438 81.2812 87.7188 81.2812C85.5781 81.2812 84.0312 79.3594 84.0312 76.2812C84.0312 73.2344 85.5781 71.2969 87.7188 71.2969ZM87.7188 72.8594C86.5156 72.8594 85.7031 74.125 85.7031 76.2812C85.7031 78.4531 86.5156 79.7188 87.7188 79.7188C88.9062 79.7188 89.7188 78.4531 89.7188 76.2812C89.7188 74.125 88.9062 72.8594 87.7188 72.8594ZM108.891 77.6719V79.0469H98.9844V71.375H108.766V72.7812H100.75V74.4844H108.438V75.8438H100.75V77.6719H108.891ZM110.312 81.25V82.6719H97.4062V81.25H110.312ZM113.984 81.8906L112.672 86.2656H111.188L112 81.8906H113.984ZM125.844 74.7969C125.75 73.8281 124.922 73.2656 123.703 73.2656C122.422 73.2656 121.641 73.8906 121.641 74.7344C121.641 75.6875 122.641 76.0781 123.578 76.2969L124.641 76.5781C126.328 76.9688 127.953 77.8594 127.953 79.8281C127.953 81.8125 126.391 83.1719 123.672 83.1719C121.031 83.1719 119.375 81.9062 119.281 79.6719H121.281C121.375 80.8594 122.375 81.4375 123.656 81.4375C125 81.4375 125.922 80.7812 125.922 79.8125C125.922 78.9219 125.094 78.5469 123.875 78.2344L122.594 77.9062C120.734 77.4219 119.578 76.4844 119.578 74.8594C119.578 72.8594 121.359 71.5312 123.734 71.5312C126.141 71.5312 127.766 72.8906 127.797 74.7969H125.844ZM138.938 71.6875V83H137.125L131.766 75.2656H131.672V83H129.641V71.6875H131.484L136.812 79.4219H136.922V71.6875H138.938ZM147.188 74.7969C147.094 73.8281 146.266 73.2656 145.047 73.2656C143.766 73.2656 142.984 73.8906 142.984 74.7344C142.984 75.6875 143.984 76.0781 144.922 76.2969L145.984 76.5781C147.672 76.9688 149.297 77.8594 149.297 79.8281C149.297 81.8125 147.734 83.1719 145.016 83.1719C142.375 83.1719 140.719 81.9062 140.625 79.6719H142.625C142.719 80.8594 143.719 81.4375 145 81.4375C146.344 81.4375 147.266 80.7812 147.266 79.8125C147.266 78.9219 146.438 78.5469 145.219 78.2344L143.938 77.9062C142.078 77.4219 140.922 76.4844 140.922 74.8594C140.922 72.8594 142.703 71.5312 145.078 71.5312C147.484 71.5312 149.109 72.8906 149.141 74.7969H147.188ZM153.156 81.8906L151.844 86.2656H150.359L151.172 81.8906H153.156ZM171.172 77.3281V78.7188H165.719V81.3125H164V78.7188H158.266V77.3281H171.172ZM169.516 70.9062V76.0156H159.906V70.9062H169.516ZM161.594 72.2656V74.6562H167.797V72.2656H161.594ZM169.75 82.7031V84.1094H159.828V80.0156H161.562V82.7031H169.75ZM177.172 74.2812C177.172 76.4688 178.469 78.9531 180.703 79.9844L179.734 81.3594C178.141 80.6094 176.961 79.0938 176.328 77.3281C175.688 79.2656 174.453 80.9219 172.828 81.7031L171.812 80.3438C174.062 79.2812 175.422 76.625 175.438 74.2812V73.0938H172.359V71.6562H180.125V73.0938H177.172V74.2812ZM183.172 70.2656V75.7656H185.344V77.2188H183.172V84.3906H181.438V70.2656H183.172ZM197.203 70.2656V75.9062H199.156V77.3438H197.203V84.3906H195.453V70.2656H197.203ZM190.172 71.75C190.156 75.4531 189.641 78.5781 187.094 81.3281L185.734 80.3438C187.727 78.2344 188.375 76 188.516 73.1719H186.297V71.75H190.172ZM194.078 71.75C194.062 75.5469 193.672 79.1719 191.125 82.2344L189.734 81.2812C191.75 78.8828 192.312 76.2344 192.438 73.1719H190.641V71.75H194.078ZM205.094 74.2812C205.094 76.5938 206.453 79.0312 208.734 79.9844L207.781 81.3594C206.109 80.6406 204.891 79.1562 204.25 77.3594C203.594 79.2969 202.359 80.9219 200.703 81.7031L199.703 80.3438C201.938 79.3125 203.328 76.6875 203.328 74.2812V73.0938H200.219V71.6562H208.188V73.0938H205.094V74.2812ZM211.516 70.2656V84.3906H209.766V70.2656H211.516ZM36.2969 96.2812V106.625H34.5625V101.484H32.0156C31.6484 103.141 30.1875 104.266 28.3906 104.266C26.2656 104.266 24.6562 102.781 24.6562 100.703C24.6562 98.625 26.2656 97.1562 28.3906 97.1562C30.2344 97.1562 31.7266 98.3281 32.0469 100.062H34.5625V96.2812H36.2969ZM36.6562 108.703V110.109H27.0312V105.578H28.7656V108.703H36.6562ZM28.3906 98.6719C27.2031 98.6719 26.3125 99.4531 26.3125 100.703C26.3125 101.953 27.2031 102.766 28.3906 102.766C29.5469 102.766 30.4219 101.953 30.4375 100.703C30.4219 99.4531 29.5469 98.6719 28.3906 98.6719ZM50.4531 96.2656V110.391H48.7969V96.2656H50.4531ZM47.5781 96.5312V109.703H45.9375V102.594H43.9062V101.188H45.9375V96.5312H47.5781ZM42.6562 100.125C42.6562 102.516 43.5156 104.906 45.5312 106.062L44.5 107.344C43.1953 106.562 42.3281 105.219 41.8438 103.609C41.3438 105.352 40.4453 106.836 39.1094 107.672L38.0469 106.375C40.0938 105.141 40.9844 102.578 40.9844 100.125V99.1875H38.5312V97.7812H44.9375V99.1875H42.6562V100.125ZM59.7812 97.2969C61.6953 97.2969 63.1094 98.8906 63.3594 101.469H66.0469V96.2656H67.7656V110.406H66.0469V102.875H63.375C63.1875 105.602 61.75 107.281 59.7812 107.281C57.6562 107.281 56.1562 105.359 56.1562 102.281C56.1562 99.2344 57.6562 97.2969 59.7812 97.2969ZM59.7812 98.8594C58.6094 98.8594 57.8125 100.125 57.8281 102.281C57.8125 104.453 58.6094 105.719 59.7812 105.719C60.9531 105.719 61.7344 104.453 61.75 102.281C61.7344 100.125 60.9531 98.8594 59.7812 98.8594ZM81.5 96.2656V110.406H79.75V96.2656H81.5ZM77.4375 97.5469V98.9688H72.375V105.531C74.9766 105.523 76.6094 105.445 78.4844 105.109L78.6562 106.547C76.6406 106.922 74.8125 107 71.8281 107H70.625V97.5469H77.4375ZM88.7969 99.6562C88.7969 102.281 90.0469 104.859 92.2969 105.844L91.25 107.234C89.6484 106.453 88.5234 104.953 87.9219 103.109C87.3047 105.055 86.1562 106.672 84.5312 107.5L83.4375 106.094C85.7344 105.016 87.0156 102.297 87.0312 99.6562V97.4062H88.7969V99.6562ZM95.4219 96.2656V110.406H93.7031V102.234H90.7344V100.828H93.7031V96.2656H95.4219ZM110.297 103.297V104.688H97.4062V103.297H110.297ZM108.859 100.609V102.016H98.9844V96.8281H108.734V98.2031H100.719V100.609H108.859ZM108.953 108.688V110.094H99V105.922H100.703V108.688H108.953ZM126.172 96.2656V99.1094H128.141V100.547H126.172V103.359H124.438V96.2656H126.172ZM126.172 103.969V107.672H118.672V108.844H126.609V110.219H116.953V106.406H124.438V105.312H116.938V103.969H126.172ZM118.938 96.7344C121.094 96.7344 122.672 98.0312 122.688 99.9062C122.672 101.75 121.094 103.062 118.938 103.062C116.781 103.062 115.172 101.75 115.188 99.9062C115.172 98.0312 116.781 96.7344 118.938 96.7344ZM118.938 98.1406C117.75 98.1406 116.875 98.8281 116.891 99.9062C116.875 100.969 117.75 101.688 118.938 101.688C120.125 101.688 121 100.969 121 99.9062C121 98.8281 120.125 98.1406 118.938 98.1406ZM139.922 96.2656V101.641H142.094V103.109H139.922V110.391H138.188V96.2656H139.922ZM131.078 97.4219V100.953H134.406V97.4219H136.141V107.078H129.359V97.4219H131.078ZM131.078 105.656H134.406V102.312H131.078V105.656ZM147.094 98.8906C147.094 100.422 147.984 101.953 149.844 102.656L148.922 103.984C147.664 103.5 146.789 102.602 146.281 101.5C145.766 102.766 144.844 103.844 143.5 104.406L142.562 103.078C144.5 102.219 145.406 100.453 145.422 98.8906V97.1406H147.094V98.8906ZM154.766 96.2812V104.938H153.109V101.266H151.703V104.5H150.078V96.5469H151.703V99.8438H153.109V96.2812H154.766ZM150 105.172C152.953 105.172 154.828 106.141 154.844 107.766C154.828 109.391 152.953 110.375 150 110.375C147.016 110.375 145.156 109.391 145.156 107.766C145.156 106.141 147.016 105.172 150 105.172ZM150 106.484C148.047 106.484 146.891 106.938 146.891 107.766C146.891 108.609 148.047 109.047 150 109.047C151.938 109.047 153.094 108.609 153.094 107.766C153.094 106.938 151.938 106.484 150 106.484ZM162.938 96.4844C166.156 96.4844 168.016 97.3438 168.031 98.9062C168.016 100.484 166.156 101.328 162.938 101.344C159.719 101.328 157.844 100.484 157.844 98.9062C157.844 97.3438 159.719 96.4844 162.938 96.4844ZM162.938 97.7656C160.781 97.7656 159.656 98.1719 159.672 98.9062C159.656 99.6875 160.781 100.047 162.938 100.047C165.125 100.047 166.234 99.6875 166.234 98.9062C166.234 98.1719 165.125 97.7656 162.938 97.7656ZM169.391 102.094V103.484H156.516V102.094H169.391ZM167.781 104.438V107.891H159.75V108.938H168.172V110.266H158.047V106.656H166.078V105.719H158.031V104.438H167.781ZM185.438 97.125V98.3906C185.438 99.7109 185.438 101.156 185.062 103.156H187.016V104.562H181.406V110.406H179.656V104.562H174.141V103.156H183.297C183.688 101.234 183.703 99.7969 183.703 98.5312H175.656V97.125H185.438ZM194.859 98.5156V99.9062H187.938V98.5156H190.562V96.6719H192.281V98.5156H194.859ZM191.422 100.656C193.219 100.656 194.5 102.016 194.5 103.938C194.5 105.891 193.219 107.266 191.422 107.266C189.641 107.266 188.328 105.891 188.344 103.938C188.328 102.016 189.641 100.656 191.422 100.656ZM191.422 102.094C190.5 102.094 189.859 102.828 189.875 103.938C189.859 105.078 190.5 105.797 191.422 105.781C192.328 105.797 192.969 105.078 192.969 103.938C192.969 102.828 192.328 102.094 191.422 102.094ZM200.109 96.2656V110.391H198.453V103.484H197.078V109.75H195.453V96.5625H197.078V102.078H198.453V96.2656H200.109ZM214.703 107.266V108.688H201.797V107.266H207.359V104.516H203.219V97.2031H204.953V99.5156H211.5V97.2031H213.234V104.516H209.078V107.266H214.703ZM204.953 103.109H211.5V100.906H204.953V103.109ZM220.031 99.9688C220.031 102.25 220.828 104.625 222.734 105.828L221.781 107.156C220.508 106.391 219.68 105.07 219.219 103.516C218.703 105.227 217.797 106.672 216.469 107.484L215.391 106.188C217.438 104.938 218.359 102.453 218.359 100.047V97.5156H220.031V99.9688ZM227.812 96.2656V110.391H226.141V96.2656H227.812ZM224.875 96.5156V109.703H223.234V102.562H221.219V101.125H223.234V96.5156H224.875ZM242.359 107.25V108.672H229.453V107.25H232.438V103.672C231.312 103.031 230.633 102.023 230.641 100.766C230.625 98.5156 232.844 97.0312 235.875 97.0312C238.922 97.0312 241.141 98.5156 241.141 100.766C241.141 102 240.484 102.992 239.391 103.641V107.25H242.359ZM235.875 98.4062C233.766 98.4062 232.328 99.2969 232.344 100.766C232.328 102.219 233.766 103.125 235.875 103.125C237.984 103.125 239.438 102.219 239.438 100.766C239.438 99.2969 237.984 98.4062 235.875 98.4062ZM234.156 107.25H237.625V104.297C237.086 104.422 236.5 104.484 235.875 104.484C235.266 104.484 234.688 104.422 234.156 104.312V107.25ZM245 109.125C244.328 109.125 243.781 108.578 243.781 107.906C243.781 107.25 244.328 106.703 245 106.703C245.641 106.703 246.203 107.25 246.203 107.906C246.203 108.578 245.641 109.125 245 109.125Z" fill="#8C9ECC"/>
<circle cx="26.4" cy="26.4" r="26.4" transform="matrix(1 0 0 -1 38 324)" fill="#B679EB"/>
<path d="M87.727 299.429L84 285.52L99.0001 288.954L87.727 299.429Z" fill="#B679EB"/>
<rect x="47.6001" y="285.801" width="33.6" height="22.8" fill="#EBEBEB"/>
<path d="M81.6001 285.4V290.47L81.3647 290.576L64.5649 298.165L64.3999 298.239L64.2358 298.165L47.4351 290.576L47.1997 290.47V285.4H81.6001Z" fill="#EBEBEB" stroke="#B679EB" stroke-width="0.8"/>
<circle cx="74.4" cy="230.4" r="26.4" fill="#4672E1"/>
<path d="M97.3825 239.2L87.2002 249.383L101.908 253.908L97.3825 239.2Z" fill="#4672E1"/>
<rect x="60" y="214" width="26.4" height="32.4" fill="#EBEBEB"/>
<path d="M86.3999 214H88.7999V224.4C88.7999 225.725 87.7254 226.8 86.3999 226.8V214Z" fill="#EBEBEB"/>
<rect x="66.7999" y="219.599" width="14" height="5.2" stroke="#4672E1" stroke-width="0.8"/>
<mask id="mask0_1240_71012" style="mask-type:alpha" maskUnits="userSpaceOnUse" x="0" y="0" width="327" height="344">
<rect width="327" height="344" rx="16" fill="#DCE6FF"/>
</mask>
<g mask="url(#mask0_1240_71012)">
<g filter="url(#filter0_d_1240_71012)">
<rect x="126" y="140.465" width="177" height="230.5" rx="6" fill="#1F1F1F"/>
</g>
<g filter="url(#filter1_d_1240_71012)">
<rect x="117" y="139.965" width="177" height="231" rx="6" fill="#D9D9D9"/>
</g>
<path d="M165 139.965H246V141.465C246 149.749 239.284 156.465 231 156.465H180C171.716 156.465 165 149.749 165 141.465V139.965Z" fill="#1F1F1F"/>
<rect x="183" y="146.715" width="45" height="3" rx="1.5" fill="#D9D9D9"/>
<path d="M159.258 185.465H155.637L159.873 172.738H164.426L168.645 185.465H165.041L164.285 182.969H160.014L159.258 185.465ZM160.787 180.438H163.512L162.193 176.166H162.088L160.787 180.438ZM169.765 189.051V175.92H173.052V177.572H173.14C173.509 176.623 174.388 175.797 175.83 175.797C177.746 175.797 179.574 177.256 179.574 180.701C179.574 183.988 177.851 185.588 175.795 185.588C174.424 185.588 173.527 184.85 173.14 183.9H173.088V189.051H169.765ZM173.017 180.684C173.017 182.125 173.597 183.039 174.599 183.039C175.584 183.039 176.164 182.143 176.164 180.684C176.164 179.242 175.584 178.363 174.599 178.363C173.597 178.363 173.017 179.242 173.017 180.684ZM180.87 189.051V175.92H184.158V177.572H184.245C184.615 176.623 185.494 175.797 186.935 175.797C188.851 175.797 190.679 177.256 190.679 180.701C190.679 183.988 188.956 185.588 186.9 185.588C185.529 185.588 184.632 184.85 184.245 183.9H184.193V189.051H180.87ZM184.122 180.684C184.122 182.125 184.702 183.039 185.704 183.039C186.689 183.039 187.269 182.143 187.269 180.684C187.269 179.242 186.689 178.363 185.704 178.363C184.702 178.363 184.122 179.242 184.122 180.684ZM195.298 172.738V185.465H191.976V172.738H195.298ZM196.893 185.465V175.92H200.216V185.465H196.893ZM198.546 174.883C197.632 174.883 196.893 174.197 196.893 173.354C196.893 172.51 197.632 171.824 198.546 171.824C199.46 171.824 200.198 172.51 200.198 173.354C200.198 174.197 199.46 174.883 198.546 174.883ZM206.364 185.641C203.287 185.641 201.442 183.654 201.442 180.719C201.442 177.783 203.287 175.797 206.364 175.797C209.123 175.797 210.881 177.379 210.916 179.84H207.823C207.735 178.838 207.19 178.293 206.416 178.293C205.467 178.293 204.834 179.084 204.834 180.684C204.834 182.301 205.467 183.109 206.416 183.109C207.19 183.109 207.735 182.564 207.823 181.545H210.916C210.864 184.041 209.159 185.641 206.364 185.641ZM211.721 182.828C211.721 180.719 213.285 179.91 215.236 179.787L217.469 179.699V178.926C217.469 178.398 217.029 178.1 216.379 178.1C215.693 178.1 215.254 178.398 215.166 178.996H212.09C212.213 177.256 213.619 175.797 216.432 175.797C219.086 175.797 220.791 177.098 220.791 178.943V185.465H217.68V184.129H217.609C217.047 185.166 216.098 185.623 214.832 185.623C213.004 185.623 211.721 184.727 211.721 182.828ZM214.85 182.635C214.85 183.197 215.289 183.496 215.904 183.496C216.731 183.496 217.504 182.969 217.486 182.072V181.562C217.152 181.571 216.274 181.606 215.834 181.65C215.236 181.721 214.85 182.125 214.85 182.635ZM227.906 175.92V178.328H226.236V182.406C226.236 182.863 226.465 183.039 226.922 183.057C227.168 183.074 227.66 183.039 228.029 183.004V185.482C227.713 185.535 227.203 185.605 226.447 185.605C224.127 185.605 222.896 184.727 222.914 182.74V178.328H221.683V175.92H222.914V173.635H226.236V175.92H227.906ZM229.15 185.465V175.92H232.472V185.465H229.15ZM230.802 174.883C229.888 174.883 229.15 174.197 229.15 173.354C229.15 172.51 229.888 171.824 230.802 171.824C231.716 171.824 232.455 172.51 232.455 173.354C232.455 174.197 231.716 174.883 230.802 174.883ZM238.62 185.641C235.544 185.641 233.698 183.654 233.698 180.719C233.698 177.783 235.544 175.797 238.62 175.797C241.696 175.797 243.525 177.783 243.525 180.719C243.525 183.654 241.696 185.641 238.62 185.641ZM238.638 183.18C239.569 183.18 240.132 182.213 240.132 180.701C240.132 179.172 239.569 178.223 238.638 178.223C237.671 178.223 237.091 179.172 237.091 180.701C237.091 182.213 237.671 183.18 238.638 183.18ZM248.108 180.068V185.465H244.786V175.92H247.932V177.713H248.038C248.46 176.518 249.55 175.797 250.956 175.797C252.977 175.797 254.296 177.273 254.278 179.383V185.465H250.956V180.068C250.973 179.084 250.446 178.504 249.55 178.504C248.671 178.504 248.108 179.084 248.108 180.068Z" fill="black"/>
<circle cx="205.5" cy="255.465" r="54.75" fill="#1F1F1F"/>
<ellipse cx="198.978" cy="260.18" rx="30.9781" ry="30.5356" fill="#F2F2F2"/>
<mask id="mask1_1240_71012" style="mask-type:alpha" maskUnits="userSpaceOnUse" x="168" y="228" width="62" height="63">
<path d="M229.956 259C229.956 276.427 216.087 290.554 198.978 290.554C181.869 290.554 168 276.427 168 259C168 241.574 178.326 228.465 197.429 228.465C216.532 228.465 229.956 241.574 229.956 259Z" fill="#FEB9BF"/>
</mask>
<g mask="url(#mask1_1240_71012)">
<ellipse cx="171.614" cy="229.661" rx="31.4944" ry="33.1141" fill="#EE893F"/>
<ellipse cx="212.918" cy="229.661" rx="31.4944" ry="33.1141" fill="#EE893F"/>
</g>
<ellipse cx="228.407" cy="265.269" rx="4.64672" ry="5.08926" fill="#F2F2F2"/>
<path d="M228.924 263.234C229.703 263.913 230.794 265.677 228.924 267.306" stroke="black" stroke-width="0.75"/>
<ellipse cx="185.038" cy="270.867" rx="1.54891" ry="1.52678" fill="#1F1F1F"/>
<ellipse cx="201.56" cy="270.867" rx="1.54891" ry="1.52678" fill="#1F1F1F"/>
<path d="M192.782 271.375C192.668 272.313 191.941 273.997 190.33 275.551C189.945 275.922 189.707 276.48 190.025 276.91C190.449 277.484 191.293 277.991 192.782 277.991" stroke="black" stroke-width="0.75"/>
<path d="M189.685 283.792C191.176 285.42 194.848 286.644 197.945 281.555" stroke="black" stroke-width="0.75"/>
<ellipse cx="217.049" cy="230.661" rx="11.8749" ry="11.1964" fill="#EE893F"/>
<ellipse cx="229.44" cy="238.803" rx="7.74453" ry="8.14282" fill="#EE893F"/>
<ellipse cx="236.668" cy="246.436" rx="6.71192" ry="6.61604" fill="#EE893F"/>
<ellipse cx="238.734" cy="254.58" rx="4.64672" ry="4.58033" fill="#EE893F"/>
<rect x="145.5" y="319.965" width="120" height="3.75" rx="1.875" fill="#C4C4C4"/>
<rect x="145.5" y="328.215" width="103.5" height="3.75" rx="1.875" fill="#C4C4C4"/>
<rect x="145.5" y="336.465" width="79.5" height="3.75" rx="1.875" fill="#C4C4C4"/>
</g>
<defs>
<filter id="filter0_d_1240_71012" x="119" y="134.465" width="193" height="246.5" filterUnits="userSpaceOnUse" color-interpolation-filters="sRGB">
<feFlood flood-opacity="0" result="BackgroundImageFix"/>
<feColorMatrix in="SourceAlpha" type="matrix" values="0 0 0 0 0 0 0 0 0 0 0 0 0 0 0 0 0 0 127 0" result="hardAlpha"/>
<feOffset dx="1" dy="2"/>
<feGaussianBlur stdDeviation="4"/>
<feComposite in2="hardAlpha" operator="out"/>
<feColorMatrix type="matrix" values="0 0 0 0 0.778351 0 0 0 0 0.766148 0 0 0 0 0.766148 0 0 0 0.25 0"/>
<feBlend mode="normal" in2="BackgroundImageFix" result="effect1_dropShadow_1240_71012"/>
<feBlend mode="normal" in="SourceGraphic" in2="effect1_dropShadow_1240_71012" result="shape"/>
</filter>
<filter id="filter1_d_1240_71012" x="110" y="133.965" width="193" height="247" filterUnits="userSpaceOnUse" color-interpolation-filters="sRGB">
<feFlood flood-opacity="0" result="BackgroundImageFix"/>
<feColorMatrix in="SourceAlpha" type="matrix" values="0 0 0 0 0 0 0 0 0 0 0 0 0 0 0 0 0 0 127 0" result="hardAlpha"/>
<feOffset dx="1" dy="2"/>
<feGaussianBlur stdDeviation="4"/>
<feComposite in2="hardAlpha" operator="out"/>
<feColorMatrix type="matrix" values="0 0 0 0 0.778351 0 0 0 0 0.766148 0 0 0 0 0.766148 0 0 0 0.25 0"/>
<feBlend mode="normal" in2="BackgroundImageFix" result="effect1_dropShadow_1240_71012"/>
<feBlend mode="normal" in="SourceGraphic" in2="effect1_dropShadow_1240_71012" result="shape"/>
</filter>
</defs>
</svg>
