<svg width="1140" height="640" viewBox="0 0 1140 640" fill="none" xmlns="http://www.w3.org/2000/svg">
<rect width="1140" height="640" rx="20" fill="#FEF2DD"/>
<path d="M105.109 80.7031V93.7812H110.875V98.6562H105.109V112.531H99.1094V80.7031H105.109ZM96.5781 85.1562V89.8906H71.2656V85.1562H80.9688V80.6094H86.9219V85.1562H96.5781ZM83.9219 91.3906C90.1094 91.3906 94.4219 94.7188 94.4219 99.6406C94.4219 104.562 90.1094 107.797 83.9219 107.797C77.6875 107.797 73.3281 104.562 73.3281 99.6406C73.3281 94.7188 77.6875 91.3906 83.9219 91.3906ZM83.9219 95.9375C81.0625 95.9844 79.1406 97.2969 79.1875 99.6406C79.1406 101.984 81.0625 103.25 83.9219 103.25C86.7812 103.25 88.75 101.984 88.75 99.6406C88.75 97.2969 86.7812 95.9844 83.9219 95.9375ZM106.656 117.781V122.562H77.4531V110.094H83.4062V117.781H106.656ZM158.031 82.625V85.9531C158.031 89.1875 158.031 92.8906 157 97.625L151.047 97.0625C151.891 93.0312 152.008 90.0781 152.078 87.3125H128.266V82.625H158.031ZM162.625 99.9219V104.656H123.906V99.9219H138.438V92H144.344V99.9219H162.625ZM146.078 108.547C146.078 112.953 150.531 117.406 160.047 118.531L157.891 123.125C150.812 122.211 145.75 119.422 143.078 115.531C140.406 119.422 135.344 122.211 128.312 123.125L126.203 118.531C135.578 117.406 140.031 112.953 140.031 108.547V107.234H146.078V108.547ZM202.281 80.6562V123.312H196.562V80.6562H202.281ZM193.375 81.2656V121.344H187.75V101.188H184.328C183.766 109.578 180.203 114.641 174.953 114.641C169.328 114.641 165.672 108.734 165.672 99.125C165.672 89.5625 169.328 83.7031 174.953 83.7031C180.086 83.7031 183.602 88.4844 184.281 96.4531H187.75V81.2656H193.375ZM174.953 89.3281C172.562 89.3281 171.156 92.6094 171.203 99.125C171.156 105.688 172.562 108.922 174.953 108.875C177.391 108.922 178.844 105.688 178.844 99.125C178.844 92.6094 177.391 89.3281 174.953 89.3281ZM222.906 90.3125C222.906 98.3281 226.141 106.109 233.266 109.203L229.609 113.984C224.875 111.664 221.711 107.422 219.953 102.172C218.078 107.75 214.797 112.32 209.922 114.734L206.172 109.859C213.484 106.578 216.812 98.3281 216.859 90.3125V83.9375H222.906V90.3125ZM242.781 80.6562V123.406H236.875V98.8906H228.484V94.0625H236.875V80.6562H242.781ZM271.703 118.109H289.234V115.109H271.703V118.109ZM295.141 80.7031V105.266H289.188V80.7031H295.141ZM259.375 98.6094C267.344 98.6094 277.703 98.6094 286.844 97.4844L287.125 101.703C283.844 102.266 280.469 102.641 277.141 102.875V107.891H271.703V110.609H289.234V107H295.141V122.844H265.797V107H271.188V103.203C267.227 103.367 263.453 103.391 260.078 103.391L259.375 98.6094ZM276.906 83.4688C276.906 87.0781 280 90.5 286.609 91.7656L284.078 96.2656C279.203 95.2812 275.781 93.0078 273.906 89.9375C272.055 93.2891 268.586 95.8203 263.5 96.9219L260.875 92.375C267.625 91.0156 270.719 87.3594 270.766 83.4688V81.7344H276.906V83.4688ZM337.797 80.6562V123.312H332.172V80.6562H337.797ZM328.703 81.5938V121.438H323.125V101.844H316.141C313.703 106.719 309.742 110.938 303.672 114.453L300.297 110.234C308.898 105.125 312.695 98.9141 313.516 90.5469H302.641V85.7188H319.469C319.445 89.7734 319.023 93.5938 318.016 97.1094H323.125V81.5938H328.703ZM377.266 83.75V86.4219C377.266 89.375 377.266 93.6406 376.281 98.9375L370.422 98.375C371.172 94.2734 371.359 91.1797 371.406 88.625H355.328V83.75H377.266ZM366.672 93.5938V101.75C370.914 101.586 375.273 101.258 379.281 100.672L379.609 104.984C370.75 106.625 360.719 106.766 353.312 106.812L352.797 102.031C355.188 102.031 357.883 102.031 360.719 101.938V93.5938H366.672ZM387.719 80.6562V93.6406H392.875V98.6562H387.719V112.578H381.578V80.6562H387.719ZM389.031 117.781V122.562H359.078V109.719H365.078V117.781H389.031ZM430.609 80.6562V123.406H424.656V80.6562H430.609ZM417.391 84.2188V100.672H403.328V108.5C409.82 108.477 415.352 108.102 421.609 107.094L422.125 111.922C415.094 113.141 408.766 113.422 400.984 113.422H397.141V95.9375H411.297V89.0469H397.094V84.2188H417.391ZM469.984 80.6562V97.3438H476.266V102.266H469.984V123.312H464.078V80.6562H469.984ZM461.172 87.0312V91.8125H436.094V87.0312H445.75V81.3125H451.75V87.0312H461.172ZM448.75 94.2031C454.984 94.2031 459.625 98.4219 459.625 104.375C459.625 110.328 454.984 114.547 448.75 114.547C442.469 114.547 437.828 110.328 437.828 104.375C437.828 98.4219 442.469 94.2031 448.75 94.2031ZM448.75 99.0312C445.75 99.0781 443.547 101.094 443.547 104.375C443.547 107.703 445.75 109.672 448.75 109.625C451.75 109.672 453.906 107.703 453.906 104.375C453.906 101.094 451.75 99.0781 448.75 99.0312ZM491.5 91.3906C491.5 98.2812 493.422 105.406 499.234 109.156L496 113.797C492.32 111.57 489.977 107.914 488.641 103.531C487.094 108.359 484.539 112.391 480.672 114.734L477.016 110.328C483.344 106.391 485.688 98.8906 485.688 91.6719V84.3125H491.5V91.3906ZM514.797 80.6562V123.312H509.078V80.6562H514.797ZM505.844 81.2656V121.344H500.266V99.9219H494.734V95.0469H500.266V81.2656H505.844ZM558.344 113.422V118.344H519.297V113.422H528.016V102.969C524.711 101 522.719 97.9766 522.719 94.2031C522.719 87.3125 529.469 82.7188 538.75 82.7188C547.984 82.7188 554.781 87.3125 554.828 94.2031C554.805 97.8828 552.859 100.883 549.672 102.875V113.422H558.344ZM538.75 87.4531C532.656 87.4531 528.625 89.8906 528.625 94.2031C528.625 98.375 532.656 100.953 538.75 100.953C544.797 100.953 548.875 98.375 548.922 94.2031C548.875 89.8906 544.797 87.4531 538.75 87.4531ZM533.922 113.422H543.625V105.125C542.102 105.43 540.461 105.594 538.75 105.594C537.039 105.594 535.422 105.453 533.922 105.125V113.422Z" fill="#F89A05"/>
<path d="M90.3164 180.715V185.691H93.7617V188.207H90.3164V193.129H87.2812V180.715H90.3164ZM90.3164 194.195V200.676H77.1914V202.727H91.082V205.133H74.1836V198.461H87.2812V196.547H74.1562V194.195H90.3164ZM77.6562 181.535C81.4297 181.535 84.1914 183.805 84.2188 187.086C84.1914 190.312 81.4297 192.609 77.6562 192.609C73.8828 192.609 71.0664 190.312 71.0938 187.086C71.0664 183.805 73.8828 181.535 77.6562 181.535ZM77.6562 183.996C75.5781 183.996 74.0469 185.199 74.0742 187.086C74.0469 188.945 75.5781 190.203 77.6562 190.203C79.7344 190.203 81.2656 188.945 81.2656 187.086C81.2656 185.199 79.7344 183.996 77.6562 183.996ZM114.379 180.715V190.121H118.18V192.691H114.379V205.434H111.344V180.715H114.379ZM98.9023 182.738V188.918H104.727V182.738H107.762V199.637H95.8945V182.738H98.9023ZM98.9023 197.148H104.727V191.297H98.9023V197.148ZM141.75 192.855V195.262H119.219V192.855H128.926V190.586H121.379V188.125H124.633V183.887H121.242V181.453H139.672V183.887H136.281V188.125H139.535V190.586H131.961V192.855H141.75ZM139.016 197.203V205.133H121.871V197.203H139.016ZM124.879 199.582V202.672H136.062V199.582H124.879ZM127.668 188.125H133.219V183.887H127.668V188.125ZM163.871 182.547V184.023C163.844 185.719 163.844 188.152 163.27 191.297L160.262 191.023C160.74 188.467 160.836 186.58 160.891 185.062H151.266V182.547H163.871ZM157.637 188.18V193.102C160.193 193.006 162.818 192.814 165.211 192.473L165.375 194.66C160.234 195.59 154.41 195.672 150.062 195.699L149.789 193.266C151.252 193.252 152.893 193.238 154.629 193.211V188.18H157.637ZM169.777 180.715V188.426H172.977V190.969H169.777V199.227H166.66V180.715H169.777ZM170.57 202.48V204.941H153.48V197.586H156.543V202.48H170.57ZM194.852 180.715V205.461H191.844V180.715H194.852ZM187.25 182.875V192.145H178.746V197.121C182.643 197.094 186.006 196.902 189.848 196.246L190.121 198.734C185.91 199.473 182.219 199.609 177.789 199.609H175.629V189.738H184.16V185.336H175.602V182.875H187.25ZM226.57 180.715V205.434H223.672V180.715H226.57ZM221.648 181.234V204.203H218.75V192.555H216.016V189.848H218.75V181.234H221.648ZM216.645 183.641V186.102H214.895V196.766C215.674 196.697 216.412 196.615 217.109 196.52L217.301 198.734C213.418 199.527 208.332 199.609 205.188 199.609L204.832 197.094L207.074 197.066V186.102H205.324V183.641H216.645ZM209.809 197.012L212.105 196.93V186.102H209.809V197.012ZM249.867 180.715V205.461H246.805V180.715H249.867ZM236.551 182.52C240.27 182.52 242.977 185.91 243.004 191.242C242.977 196.629 240.27 199.992 236.551 199.992C232.805 199.992 230.098 196.629 230.098 191.242C230.098 185.91 232.805 182.52 236.551 182.52ZM236.551 185.254C234.445 185.254 233.023 187.469 233.023 191.242C233.023 195.043 234.445 197.258 236.551 197.258C238.629 197.258 240.051 195.043 240.051 191.242C240.051 187.469 238.629 185.254 236.551 185.254ZM262.828 187.742C262.828 191.789 265.207 196.055 269.199 197.723L267.531 200.129C264.605 198.871 262.473 196.273 261.352 193.129C260.203 196.52 258.043 199.363 255.145 200.73L253.395 198.352C257.305 196.547 259.738 191.953 259.738 187.742V185.664H254.297V183.148H268.242V185.664H262.828V187.742ZM274.066 180.715V205.434H271.004V180.715H274.066ZM299.031 180.715V205.434H296.105V180.715H299.031ZM293.945 181.152V204.23H291.047V192.473H288.695C288.408 197.285 286.344 200.266 283.281 200.238C280.055 200.266 277.949 196.848 277.949 191.406C277.949 185.965 280.055 182.602 283.281 182.602C286.275 182.602 288.312 185.391 288.668 190.012H291.047V181.152H293.945ZM283.281 185.473C281.723 185.445 280.738 187.551 280.766 191.406C280.738 195.262 281.723 197.367 283.281 197.34C284.922 197.367 285.906 195.262 285.906 191.406C285.906 187.551 284.922 185.445 283.281 185.473ZM311.035 186.648C311.035 191.242 313.223 195.754 317.16 197.477L315.328 199.91C312.525 198.543 310.557 195.918 309.504 192.691C308.424 196.096 306.414 198.926 303.57 200.375L301.656 197.914C305.676 196.027 307.918 191.27 307.945 186.648V182.711H311.035V186.648ZM322.629 180.715V205.461H319.621V191.16H314.426V188.699H319.621V180.715H322.629ZM80.1445 233.742C80.1445 237.789 82.5234 242.055 86.5156 243.723L84.8477 246.129C81.9219 244.871 79.7891 242.273 78.668 239.129C77.5195 242.52 75.3594 245.363 72.4609 246.73L70.7109 244.352C74.6211 242.547 77.0547 237.953 77.0547 233.742V231.664H71.6133V229.148H85.5586V231.664H80.1445V233.742ZM91.3828 226.715V251.434H88.3203V226.715H91.3828ZM115.746 226.742V245.445H112.684V243.285H107.844V241.152H112.684V226.742H115.746ZM116.32 248.48V250.941H98.1914V243.641H101.227V248.48H116.32ZM94.9102 237.844C99.4766 237.816 105.602 237.762 110.852 237.105L111.016 239.293C108.979 239.635 106.873 239.867 104.781 240.004V244.762H101.746V240.168C99.4355 240.264 97.2344 240.277 95.293 240.277L94.9102 237.844ZM102.977 227.645C106.586 227.645 109.102 229.422 109.129 232.02C109.102 234.672 106.586 236.367 102.977 236.367C99.3125 236.367 96.7969 234.672 96.7969 232.02C96.7969 229.422 99.3125 227.645 102.977 227.645ZM102.977 229.887C101.008 229.887 99.668 230.68 99.668 232.02C99.668 233.359 101.008 234.152 102.977 234.152C104.863 234.152 106.203 233.359 106.23 232.02C106.203 230.68 104.863 229.887 102.977 229.887ZM146.562 226.742V245.555H143.527V240.688H139.863V238.254H143.527V235.492H139.863V233.031H143.527V226.742H146.562ZM139.727 229.477V231.91H125.918V229.477H131.441V226.715H134.477V229.477H139.727ZM132.918 232.922C136.281 232.922 138.688 234.891 138.715 237.734C138.688 240.578 136.281 242.547 132.918 242.547C129.582 242.547 127.176 240.578 127.203 237.734C127.176 234.891 129.582 232.922 132.918 232.922ZM132.918 235.301C131.223 235.328 130.02 236.23 130.047 237.734C130.02 239.293 131.223 240.195 132.918 240.195C134.613 240.195 135.844 239.293 135.844 237.734C135.844 236.23 134.613 235.328 132.918 235.301ZM147.109 248.48V250.941H130.266V243.941H133.355V248.48H147.109ZM169.641 226.742V233.906H172.977V236.395H169.641V243.449H166.605V226.742H169.641ZM161.465 243.668C166.715 243.668 169.75 245.062 169.777 247.578C169.75 250.094 166.715 251.434 161.465 251.434C156.133 251.434 153.125 250.094 153.125 247.578C153.125 245.062 156.133 243.668 161.465 243.668ZM161.465 245.91C157.91 245.883 156.16 246.457 156.16 247.578C156.16 248.617 157.91 249.191 161.465 249.191C164.965 249.191 166.688 248.617 166.715 247.578C166.688 246.457 164.965 245.883 161.465 245.91ZM149.844 240.277C151.717 240.277 153.85 240.277 156.078 240.195V238.582C153.303 238.268 151.594 237.01 151.594 235.137C151.594 232.949 153.918 231.609 157.555 231.609C161.191 231.609 163.516 232.949 163.516 235.137C163.516 236.996 161.848 238.24 159.113 238.555V240.086C161.219 239.99 163.338 239.812 165.32 239.539L165.566 241.645C160.289 242.547 154.547 242.629 150.172 242.629L149.844 240.277ZM164.664 228.629V230.871H150.473V228.629H156.078V226.523H159.113V228.629H164.664ZM157.555 233.633C155.641 233.633 154.492 234.207 154.52 235.137C154.492 236.121 155.641 236.668 157.555 236.668C159.469 236.668 160.617 236.121 160.617 235.137C160.617 234.207 159.469 233.633 157.555 233.633ZM185.5 227.098C191.133 227.098 194.387 228.602 194.414 231.336C194.387 234.098 191.133 235.574 185.5 235.602C179.867 235.574 176.586 234.098 176.586 231.336C176.586 228.602 179.867 227.098 185.5 227.098ZM185.5 229.34C181.727 229.34 179.758 230.051 179.785 231.336C179.758 232.703 181.727 233.332 185.5 233.332C189.328 233.332 191.27 232.703 191.27 231.336C191.27 230.051 189.328 229.34 185.5 229.34ZM196.793 236.914V239.348H174.262V236.914H196.793ZM193.977 241.016V247.059H179.922V248.891H194.66V251.215H176.941V244.898H190.996V243.258H176.914V241.016H193.977ZM224.684 226.742V233.934H228.02V236.449H224.684V243.449H221.648V226.742H224.684ZM204.887 240.496C206.746 240.496 208.893 240.482 211.121 240.414V238.91C208.373 238.568 206.637 237.242 206.637 235.301C206.637 233.031 209.016 231.609 212.598 231.637C216.207 231.609 218.559 233.031 218.559 235.301C218.559 237.229 216.863 238.541 214.156 238.883V240.305C216.262 240.209 218.381 240.045 220.363 239.785L220.609 241.891C215.332 242.82 209.562 242.875 205.215 242.875L204.887 240.496ZM224.684 244.516V251.434H221.648V246.895H208.004V244.516H224.684ZM219.707 228.684V230.926H205.516V228.684H211.121V226.523H214.156V228.684H219.707ZM212.598 233.688C210.684 233.66 209.535 234.234 209.562 235.301C209.535 236.312 210.684 236.969 212.598 236.941C214.512 236.969 215.66 236.312 215.66 235.301C215.66 234.234 214.512 233.66 212.598 233.688ZM249.895 226.742V244.598H246.832V226.742H249.895ZM250.578 248.48V250.941H233.543V242.793H236.605V248.48H250.578ZM236.414 228.355C240.16 228.355 243.059 230.953 243.059 234.535C243.059 238.199 240.16 240.742 236.414 240.742C232.641 240.742 229.742 238.199 229.742 234.535C229.742 230.953 232.641 228.355 236.414 228.355ZM236.414 231.008C234.309 231.008 232.695 232.402 232.723 234.535C232.695 236.723 234.309 238.09 236.414 238.09C238.465 238.09 240.078 236.723 240.078 234.535C240.078 232.402 238.465 231.008 236.414 231.008ZM272.863 226.715V236.559H276.664V239.074H272.863V251.434H269.855V226.715H272.863ZM267.941 230.516V232.949H253.367V230.516H259.219V227.07H262.254V230.516H267.941ZM260.75 234.562C264.305 234.562 266.957 236.969 266.957 240.387C266.957 243.805 264.305 246.184 260.75 246.184C257.141 246.184 254.488 243.805 254.516 240.387C254.488 236.969 257.141 234.562 260.75 234.562ZM260.75 237.051C258.809 237.051 257.414 238.363 257.414 240.387C257.414 242.41 258.809 243.695 260.75 243.668C262.637 243.695 264.031 242.41 264.059 240.387C264.031 238.363 262.637 237.051 260.75 237.051ZM297.883 228.984V231.363C297.855 234.426 297.855 237.871 296.898 243.039L293.836 242.711C294.793 237.898 294.793 234.385 294.82 231.418H280.055V228.984H297.883ZM300.234 245.746V248.234H277.703V245.746H286.016V237.16H289.023V245.746H300.234ZM80.1445 279.742C80.1445 283.789 82.5234 288.055 86.5156 289.723L84.8477 292.129C81.9219 290.871 79.7891 288.273 78.668 285.129C77.5195 288.52 75.3594 291.363 72.4609 292.73L70.7109 290.352C74.6211 288.547 77.0547 283.953 77.0547 279.742V277.664H71.6133V275.148H85.5586V277.664H80.1445V279.742ZM91.3828 272.715V297.434H88.3203V272.715H91.3828ZM115.746 272.742V291.445H112.684V289.285H107.844V287.152H112.684V272.742H115.746ZM116.32 294.48V296.941H98.1914V289.641H101.227V294.48H116.32ZM94.9102 283.844C99.4766 283.816 105.602 283.762 110.852 283.105L111.016 285.293C108.979 285.635 106.873 285.867 104.781 286.004V290.762H101.746V286.168C99.4355 286.264 97.2344 286.277 95.293 286.277L94.9102 283.844ZM102.977 273.645C106.586 273.645 109.102 275.422 109.129 278.02C109.102 280.672 106.586 282.367 102.977 282.367C99.3125 282.367 96.7969 280.672 96.7969 278.02C96.7969 275.422 99.3125 273.645 102.977 273.645ZM102.977 275.887C101.008 275.887 99.668 276.68 99.668 278.02C99.668 279.359 101.008 280.152 102.977 280.152C104.863 280.152 106.203 279.359 106.23 278.02C106.203 276.68 104.863 275.887 102.977 275.887ZM128.078 279.742C128.078 283.57 130.348 287.918 134.258 289.723L132.562 292.129C129.773 290.816 127.709 288.164 126.602 285.074C125.48 288.465 123.32 291.363 120.477 292.73L118.699 290.352C122.637 288.492 125.016 283.844 125.043 279.742V277.664H119.656V275.148H133.246V277.664H128.078V279.742ZM138.578 272.715V282.34H142.379V284.883H138.578V297.434H135.543V272.715H138.578ZM164.117 272.715V285.484H161.082V282.805H156.105V284.691H144.539V273.809H147.574V276.926H153.098V273.809H156.105V275.996H161.082V272.715H164.117ZM164.117 286.496V292.84H150.883V294.727H164.91V297.133H147.848V290.598H161.082V288.875H147.82V286.496H164.117ZM147.574 282.285H153.098V279.25H147.574V282.285ZM156.105 280.48H161.082V278.293H156.105V280.48ZM183.012 276.652C183.012 279.77 185.035 282.695 188.836 283.898L187.195 286.277C184.529 285.375 182.615 283.57 181.562 281.273C180.469 283.898 178.473 285.963 175.629 286.961L173.988 284.582C177.98 283.188 179.949 279.906 179.977 276.379V274.027H183.012V276.652ZM193.758 272.715V278.73H197.203V281.246H193.758V287.508H190.723V272.715H193.758ZM185.719 288.055C190.832 288.027 193.977 289.777 194.004 292.703C193.977 295.684 190.832 297.406 185.719 297.406C180.551 297.406 177.352 295.684 177.352 292.703C177.352 289.777 180.551 288.027 185.719 288.055ZM185.719 290.434C182.328 290.434 180.387 291.254 180.387 292.703C180.387 294.234 182.328 295 185.719 295C189.109 295 190.996 294.234 190.996 292.703C190.996 291.254 189.109 290.434 185.719 290.434ZM209.316 275.395V277.828H202.262V281.875H208.879V284.254H202.262V289.066C205.311 289.039 207.43 288.93 209.945 288.547L210.191 291.035C207.32 291.527 204.887 291.609 201.031 291.609H199.363V275.395H209.316ZM219.789 272.715V297.434H216.863V284.883H214.32V296.23H211.449V273.152H214.32V282.422H216.863V272.715H219.789ZM245.219 283.926V286.223H222.633V283.926H245.219ZM242.484 287.699V293.332H228.32V295.055H243.223V297.16H225.285V291.363H239.477V289.832H225.258V287.699H242.484ZM242.43 273.262V278.84H228.512V280.453H242.867V282.531H225.504V276.871H239.395V275.367H225.422V273.262H242.43ZM267.312 274.547V276.023C267.285 277.719 267.285 280.152 266.711 283.297L263.703 283.023C264.182 280.467 264.277 278.58 264.332 277.062H254.707V274.547H267.312ZM261.078 280.18V285.102C263.635 285.006 266.26 284.814 268.652 284.473L268.816 286.66C263.676 287.59 257.852 287.672 253.504 287.699L253.23 285.266C254.693 285.252 256.334 285.238 258.07 285.211V280.18H261.078ZM273.219 272.715V280.426H276.418V282.969H273.219V291.227H270.102V272.715H273.219ZM274.012 294.48V296.941H256.922V289.586H259.984V294.48H274.012ZM298.293 272.715V297.461H295.285V272.715H298.293ZM290.691 274.875V284.145H282.188V289.121C286.084 289.094 289.447 288.902 293.289 288.246L293.562 290.734C289.352 291.473 285.66 291.609 281.23 291.609H279.07V281.738H287.602V277.336H279.043V274.875H290.691ZM321.398 272.66V278.238H324.871V280.699H321.398V286.141H318.363V272.66H321.398ZM321.398 287.234V293.195H308.273V294.945H322.164V297.215H305.266V291.09H318.363V289.449H305.238V287.234H321.398ZM316.586 274.711V277.035H301.93V274.711H307.754V272.523H310.789V274.711H316.586ZM309.258 277.801C312.922 277.828 315.273 279.387 315.301 281.848C315.273 284.391 312.922 285.895 309.258 285.895C305.594 285.895 303.188 284.391 303.188 281.848C303.188 279.387 305.594 277.828 309.258 277.801ZM309.258 279.988C307.344 279.988 306.141 280.672 306.141 281.848C306.141 283.051 307.344 283.707 309.258 283.707C311.172 283.707 312.402 283.051 312.402 281.848C312.402 280.672 311.172 279.988 309.258 279.988ZM345.625 274.766C345.625 277.883 349.098 281.027 354.375 281.711L353.172 284.172C348.975 283.543 345.639 281.479 344.039 278.676C342.412 281.479 339.09 283.543 334.934 284.172L333.73 281.711C338.953 281.027 342.426 277.883 342.426 274.766V273.508H345.625V274.766ZM355.277 286.305V288.82H345.461V297.434H342.453V288.82H332.746V286.305H355.277ZM372.367 288.793C372.367 290.844 373.311 293.004 375.43 294.344C377.576 292.908 378.574 290.666 378.602 288.793V287.781H381.582V288.793C381.555 291.391 383.086 293.797 386.34 294.836L384.863 297.051C382.457 296.244 380.857 294.672 379.996 292.703C379.203 294.645 377.74 296.381 375.512 297.27C373.16 296.422 371.684 294.754 370.918 292.785C370.029 294.686 368.457 296.23 366.16 297.051L364.656 294.836C367.855 293.715 369.387 291.199 369.414 288.793V287.781H372.367V288.793ZM384.18 272.742V286.742H381.117V272.742H384.18ZM370.699 274.055C374.5 274.055 377.344 276.461 377.344 279.934C377.344 283.379 374.5 285.785 370.699 285.785C366.871 285.785 364.027 283.379 364.027 279.934C364.027 276.461 366.871 274.055 370.699 274.055ZM370.699 276.625C368.539 276.625 366.98 277.91 367.008 279.934C366.98 281.957 368.539 283.27 370.699 283.27C372.832 283.27 374.363 281.957 374.363 279.934C374.363 277.91 372.832 276.625 370.699 276.625ZM393.504 287.535V289.887H404.387V287.535H407.422V297.133H390.496V287.535H393.504ZM393.504 294.727H404.387V292.211H393.504V294.727ZM410.32 283.652V286.141H387.789V283.652H410.32ZM400.613 273.918C400.613 276.57 404.004 279.359 409.117 279.961L408.051 282.367C403.908 281.807 400.641 279.975 399.055 277.473C397.455 279.988 394.174 281.807 390.059 282.367L388.938 279.961C394.105 279.332 397.469 276.652 397.496 273.918V272.988H400.613V273.918ZM432.605 272.715V297.434H429.598V272.715H432.605ZM416.418 275.121V288.629C419.891 288.574 423.582 288.26 427.383 287.508L427.766 290.051C423.418 290.953 419.371 291.227 415.543 291.227H413.41V275.121H416.418ZM455.547 272.715V282.094H459.348V284.582H455.547V297.461H452.512V272.715H455.547ZM448.766 275.066V277.527H440.234V288.875C444.076 288.875 447.111 288.684 450.516 288.082L450.871 290.652C447.043 291.309 443.707 291.418 439.25 291.418H437.199V275.066H448.766ZM463.395 295.219C462.219 295.219 461.262 294.262 461.262 293.086C461.262 291.938 462.219 290.98 463.395 290.98C464.516 290.98 465.5 291.938 465.5 293.086C465.5 294.262 464.516 295.219 463.395 295.219Z" fill="#F9C675"/>
<mask id="mask0_1240_71006" style="mask-type:alpha" maskUnits="userSpaceOnUse" x="0" y="0" width="1140" height="640">
<rect width="1140" height="640" rx="20" fill="#FEF2DD"/>
</mask>
<g mask="url(#mask0_1240_71006)">
<g filter="url(#filter0_d_1240_71006)">
<path d="M635 202C635 184.327 649.327 170 667 170H1052C1069.67 170 1084 184.327 1084 202V640H635V202Z" fill="#FCFCFC"/>
</g>
<path d="M763 170H956L944.906 181.747C941.884 184.947 937.676 186.761 933.274 186.761H788.685C784.904 186.761 781.245 185.421 778.357 182.98L763 170Z" fill="#2A2C3D"/>
<g filter="url(#filter1_d_1240_71006)">
<rect width="379" height="110" transform="translate(670 260)" fill="#E9EAEC"/>
<circle cx="743.5" cy="315" r="30.5" fill="#CCCED2"/>
<rect x="799" y="281" width="61" height="8" rx="4" fill="#CCCED2"/>
<rect x="799" y="317" width="207" height="8" rx="4" fill="#CCCED2"/>
<rect x="799" y="341" width="121" height="8" rx="4" fill="#CCCED2"/>
</g>
<g filter="url(#filter2_d_1240_71006)">
<rect width="379" height="110" transform="translate(670 410)" fill="#F3F3F4"/>
<circle cx="743.5" cy="465" r="30.5" fill="#E9EAEC"/>
<rect x="799" y="431" width="61" height="8" rx="4" fill="#E9EAEC"/>
<rect x="799" y="467" width="207" height="8" rx="4" fill="#E9EAEC"/>
<rect x="799" y="491" width="121" height="8" rx="4" fill="#E9EAEC"/>
</g>
<path d="M670 560H1049V640H670V560Z" fill="#F3F3F4"/>
<mask id="mask1_1240_71006" style="mask-type:alpha" maskUnits="userSpaceOnUse" x="670" y="560" width="379" height="80">
<rect x="670" y="560" width="379" height="80" fill="#F3F3F4"/>
</mask>
<g mask="url(#mask1_1240_71006)">
<circle cx="739.5" cy="613.5" r="30.5" fill="#E9EAEC"/>
</g>
<rect x="799" y="617" width="207" height="8" rx="4" fill="#E9EAEC"/>
<rect x="799" y="581" width="61" height="8" rx="4" fill="#E9EAEC"/>
</g>
<g filter="url(#filter3_d_1240_71006)">
<rect x="536" y="289" width="470" height="162" rx="20" fill="#F89A05"/>
<circle cx="632" cy="370" r="48" fill="#FCC369"/>
<mask id="mask2_1240_71006" style="mask-type:alpha" maskUnits="userSpaceOnUse" x="584" y="322" width="96" height="96">
<circle cx="632" cy="370" r="48" fill="#FCC369"/>
</mask>
<g mask="url(#mask2_1240_71006)">
<ellipse cx="632" cy="410" rx="38" ry="29" fill="#FFF7EB"/>
</g>
<circle cx="632" cy="355" r="20" fill="#FFF7EB"/>
<rect x="705" y="330" width="88" height="12" rx="6" fill="#FCC369"/>
<rect x="705" y="370" width="253" height="12" rx="6" fill="#FCC369"/>
<rect x="705" y="398" width="192" height="12" rx="6" fill="#FCC369"/>
</g>
<defs>
<filter id="filter0_d_1240_71006" x="621" y="158" width="481" height="502" filterUnits="userSpaceOnUse" color-interpolation-filters="sRGB">
<feFlood flood-opacity="0" result="BackgroundImageFix"/>
<feColorMatrix in="SourceAlpha" type="matrix" values="0 0 0 0 0 0 0 0 0 0 0 0 0 0 0 0 0 0 127 0" result="hardAlpha"/>
<feOffset dx="2" dy="4"/>
<feGaussianBlur stdDeviation="8"/>
<feComposite in2="hardAlpha" operator="out"/>
<feColorMatrix type="matrix" values="0 0 0 0 0.872266 0 0 0 0 0.872266 0 0 0 0 0.872266 0 0 0 0.25 0"/>
<feBlend mode="normal" in2="BackgroundImageFix" result="effect1_dropShadow_1240_71006"/>
<feBlend mode="normal" in="SourceGraphic" in2="effect1_dropShadow_1240_71006" result="shape"/>
</filter>
<filter id="filter1_d_1240_71006" x="656" y="248" width="411" height="142" filterUnits="userSpaceOnUse" color-interpolation-filters="sRGB">
<feFlood flood-opacity="0" result="BackgroundImageFix"/>
<feColorMatrix in="SourceAlpha" type="matrix" values="0 0 0 0 0 0 0 0 0 0 0 0 0 0 0 0 0 0 127 0" result="hardAlpha"/>
<feOffset dx="2" dy="4"/>
<feGaussianBlur stdDeviation="8"/>
<feComposite in2="hardAlpha" operator="out"/>
<feColorMatrix type="matrix" values="0 0 0 0 0.842627 0 0 0 0 0.842627 0 0 0 0 0.842627 0 0 0 0.25 0"/>
<feBlend mode="normal" in2="BackgroundImageFix" result="effect1_dropShadow_1240_71006"/>
<feBlend mode="normal" in="SourceGraphic" in2="effect1_dropShadow_1240_71006" result="shape"/>
</filter>
<filter id="filter2_d_1240_71006" x="656" y="398" width="411" height="142" filterUnits="userSpaceOnUse" color-interpolation-filters="sRGB">
<feFlood flood-opacity="0" result="BackgroundImageFix"/>
<feColorMatrix in="SourceAlpha" type="matrix" values="0 0 0 0 0 0 0 0 0 0 0 0 0 0 0 0 0 0 127 0" result="hardAlpha"/>
<feOffset dx="2" dy="4"/>
<feGaussianBlur stdDeviation="8"/>
<feComposite in2="hardAlpha" operator="out"/>
<feColorMatrix type="matrix" values="0 0 0 0 0.91486 0 0 0 0 0.91486 0 0 0 0 0.91486 0 0 0 0.25 0"/>
<feBlend mode="normal" in2="BackgroundImageFix" result="effect1_dropShadow_1240_71006"/>
<feBlend mode="normal" in="SourceGraphic" in2="effect1_dropShadow_1240_71006" result="shape"/>
</filter>
<filter id="filter3_d_1240_71006" x="522" y="277" width="502" height="194" filterUnits="userSpaceOnUse" color-interpolation-filters="sRGB">
<feFlood flood-opacity="0" result="BackgroundImageFix"/>
<feColorMatrix in="SourceAlpha" type="matrix" values="0 0 0 0 0 0 0 0 0 0 0 0 0 0 0 0 0 0 127 0" result="hardAlpha"/>
<feOffset dx="2" dy="4"/>
<feGaussianBlur stdDeviation="8"/>
<feComposite in2="hardAlpha" operator="out"/>
<feColorMatrix type="matrix" values="0 0 0 0 0.74929 0 0 0 0 0.727033 0 0 0 0 0.700905 0 0 0 0.25 0"/>
<feBlend mode="normal" in2="BackgroundImageFix" result="effect1_dropShadow_1240_71006"/>
<feBlend mode="normal" in="SourceGraphic" in2="effect1_dropShadow_1240_71006" result="shape"/>
</filter>
</defs>
</svg>
