<svg width="327" height="344" viewBox="0 0 327 344" fill="none" xmlns="http://www.w3.org/2000/svg">
<rect width="327" height="344" rx="16" fill="#F89A05"/>
<path d="M103.2 232.172C106.328 241.04 119.708 262.994 145.8 276.662" stroke="#F2F2F2" stroke-width="17.6"/>
<path d="M280.8 232.172C277.671 241.04 264.291 262.994 238.2 276.662" stroke="#F2F2F2" stroke-width="17.6"/>
<path fill-rule="evenodd" clip-rule="evenodd" d="M139.378 259.43L169.17 276.665H213.235L243.027 259.43L256.579 287.57L237.051 297.066L241.775 344.001H148.175L150.543 299.102L126.342 287.938L139.378 259.43Z" fill="#1F1F1F"/>
<path d="M111.067 220.093C111.655 210.676 85.3565 220.951 89.432 229.707C94.8193 241.282 99.82 244.932 99.82 244.932L114.899 236.814C114.899 236.814 110.762 224.981 111.067 220.093Z" fill="#F2F2F2"/>
<rect width="5.83197" height="21.2519" rx="2.91598" transform="matrix(0.993448 0.108112 -0.0665761 0.998436 105.836 209.031)" fill="#F2F2F2"/>
<path d="M95.9319 210.773C95.3377 209.316 95.9909 207.648 97.416 206.982C98.8913 206.292 100.644 206.93 101.332 208.407L107.654 221.991C108.468 223.739 107.623 225.812 105.82 226.493C104.143 227.126 102.268 226.308 101.591 224.648L95.9319 210.773Z" fill="#F2F2F2"/>
<path d="M88.8155 211.333C88.1946 209.881 88.8379 208.197 90.2686 207.528C91.7318 206.844 93.4705 207.477 94.1521 208.941L100.656 222.915C101.394 224.501 100.708 226.387 99.1227 227.128C97.5022 227.885 95.5785 227.151 94.8752 225.506L88.8155 211.333Z" fill="#F2F2F2"/>
<path d="M83.9595 218.219C83.2686 216.735 83.911 214.969 85.3943 214.276C86.8156 213.612 88.5067 214.171 89.252 215.551L96.4377 228.86C97.3713 230.59 96.6568 232.75 94.8763 233.583C93.168 234.381 91.1382 233.642 90.3425 231.933L83.9595 218.219Z" fill="#F2F2F2"/>
<path d="M272.932 220.089C272.344 210.672 298.643 220.947 294.568 229.703C289.18 241.278 284.18 244.928 284.18 244.928L269.1 236.811C269.1 236.811 273.237 224.977 272.932 220.089Z" fill="#F2F2F2"/>
<rect width="5.83197" height="21.2519" rx="2.91598" transform="matrix(-0.993448 0.108112 0.0665761 0.998436 278.163 209.027)" fill="#F2F2F2"/>
<path d="M288.068 210.769C288.662 209.312 288.009 207.644 286.584 206.978C285.108 206.289 283.355 206.926 282.668 208.403L276.345 221.987C275.532 223.735 276.376 225.808 278.179 226.489C279.857 227.122 281.732 226.305 282.409 224.644L288.068 210.769Z" fill="#F2F2F2"/>
<path d="M295.184 211.33C295.805 209.877 295.162 208.193 293.731 207.524C292.268 206.841 290.529 207.473 289.847 208.938L283.344 222.911C282.605 224.497 283.292 226.383 284.877 227.124C286.497 227.882 288.421 227.147 289.124 225.502L295.184 211.33Z" fill="#F2F2F2"/>
<path d="M300.04 218.215C300.731 216.731 300.089 214.965 298.605 214.272C297.184 213.608 295.493 214.167 294.748 215.547L287.562 228.856C286.628 230.586 287.343 232.747 289.123 233.579C290.831 234.377 292.861 233.638 293.657 231.929L300.04 218.215Z" fill="#F2F2F2"/>
<ellipse cx="24.7866" cy="24.4738" rx="24.7866" ry="24.4738" transform="matrix(0.922138 0.387209 -0.385776 0.922446 180.384 215.234)" fill="#F2F2F2"/>
<mask id="mask0_1240_71015" style="mask-type:alpha" maskUnits="userSpaceOnUse" x="169" y="221" width="51" height="51">
<path d="M217.02 256.13C211.632 269.014 197.031 275.162 184.407 269.861C171.784 264.56 165.918 249.819 171.307 236.935C176.695 224.051 188.367 217.559 202.462 223.477C216.557 229.396 222.408 243.246 217.02 256.13Z" fill="#FEB9BF"/>
</mask>
<g mask="url(#mask0_1240_71015)">
<ellipse cx="25.1997" cy="26.5404" rx="25.1997" ry="26.5404" transform="matrix(0.922138 0.387209 -0.385776 0.922446 170.046 182.125)" fill="#4570EF"/>
<ellipse cx="25.1997" cy="26.5404" rx="25.1997" ry="26.5404" transform="matrix(0.922138 0.387209 -0.385776 0.922446 200.521 194.922)" fill="#4570EF"/>
</g>
<ellipse cx="3.718" cy="4.07896" rx="3.718" ry="4.07896" transform="matrix(0.922138 0.387209 -0.385776 0.922446 212.084 255.082)" fill="#F2F2F2"/>
<path d="M214.95 258.941C215.315 259.685 215.574 261.327 213.691 261.952" stroke="black" stroke-width="0.6"/>
<ellipse cx="1.23933" cy="1.22369" rx="1.23933" ry="1.22369" transform="matrix(0.922138 0.387209 -0.385776 0.922446 179.539 249.379)" fill="#1F1F1F"/>
<ellipse cx="1.23933" cy="1.22369" rx="1.23933" ry="1.22369" transform="matrix(0.922138 0.387209 -0.385776 0.922446 191.729 254.496)" fill="#1F1F1F"/>
<path d="M185.766 253.764C185.391 254.423 184.334 255.443 182.664 256.092C182.266 256.247 181.918 256.585 182.019 257C182.154 257.557 182.62 258.194 183.72 258.656" stroke="black" stroke-width="0.6"/>
<path d="M179.641 261.982C180.239 263.648 182.569 265.69 186.428 262.887" stroke="black" stroke-width="0.6"/>
<ellipse cx="9.50154" cy="8.97371" rx="9.50154" ry="8.97371" transform="matrix(0.922138 0.387209 -0.385776 0.922446 210.959 219.223)" fill="#4570EF"/>
<ellipse cx="6.19666" cy="6.52634" rx="6.19666" ry="6.52634" transform="matrix(0.922138 0.387209 -0.385776 0.922446 219.688 232.621)" fill="#4570EF"/>
<ellipse cx="5.37044" cy="5.30265" rx="5.37044" ry="5.30265" transform="matrix(0.922138 0.387209 -0.385776 0.922446 222.95 241.953)" fill="#4570EF"/>
<ellipse cx="3.718" cy="3.67106" rx="3.718" ry="3.67106" transform="matrix(0.922138 0.387209 -0.385776 0.922446 222.851 250.758)" fill="#4570EF"/>
<path d="M140.2 146L152.325 153.014V167.042L140.2 174.057L128.076 167.042V153.014L140.2 146Z" fill="#FEF2DD"/>
<path fill-rule="evenodd" clip-rule="evenodd" d="M197.221 181.22C199.955 178.481 199.955 174.04 197.221 171.3C194.488 168.561 190.055 168.561 187.322 171.3L185.936 172.689L184.55 171.301C181.816 168.561 177.384 168.561 174.65 171.301C171.917 174.04 171.917 178.481 174.65 181.22L176.036 182.609L174.65 183.997C171.917 186.737 171.917 191.178 174.65 193.917C177.384 196.656 181.816 196.656 184.55 193.917L185.936 192.528L187.322 193.917C190.055 196.656 194.488 196.656 197.221 193.917C199.955 191.178 199.955 186.737 197.221 183.998L195.835 182.609L197.221 181.22Z" fill="#FEF2DD"/>
<path fill-rule="evenodd" clip-rule="evenodd" d="M238.056 159.242L229.639 150.809L213.8 166.68L229.639 182.551L235.835 176.343L237.515 182.624L259.151 176.815L253.354 155.135L238.056 159.242Z" fill="#FEF2DD"/>
<path d="M29.6836 46.6289H36.9883V45.3789H29.6836V46.6289ZM39.4492 31.043V41.2773H36.9688V31.043H39.4492ZM24.5469 38.5039C27.8672 38.5039 32.1836 38.5039 35.9922 38.0352L36.1094 39.793C34.7422 40.0273 33.3359 40.1836 31.9492 40.2812V42.3711H29.6836V43.5039H36.9883V42H39.4492V48.6016H27.2227V42H29.4688V40.418C27.8184 40.4863 26.2461 40.4961 24.8398 40.4961L24.5469 38.5039ZM31.8516 32.1953C31.8516 33.6992 33.1406 35.125 35.8945 35.6523L34.8398 37.5273C32.8086 37.1172 31.3828 36.1699 30.6016 34.8906C29.8301 36.2871 28.3848 37.3418 26.2656 37.8008L25.1719 35.9062C27.9844 35.3398 29.2734 33.8164 29.293 32.1953V31.4727H31.8516V32.1953ZM56.4609 32.5664V34.2461C56.4609 36.4727 56.4609 38.9727 55.7383 42.7422L53.2383 42.4883C53.9121 39.1289 53.9414 36.6289 53.9609 34.5391H43.4922V32.5664H56.4609ZM58.0234 44.5977V46.6289H41.8125V44.5977H47.6133V38.4844H50.0938V44.5977H58.0234ZM78.4531 31.0234V37.5859H80.25V39.6562H78.4531V48.7969H75.9922V31.0234H78.4531ZM65.8945 32.625V36.7461H67.0273V32.625H69.0586V44.6953H63.8438V32.625H65.8945ZM65.8945 42.6445H67.0273V38.7188H65.8945V42.6445ZM71.793 32.625V36.7461H72.9453V32.625H74.9766V44.6953H69.7812V32.625H71.793ZM71.793 42.6445H72.9453V38.7188H71.793V42.6445ZM97.2617 44.7344V46.7656H80.9922V44.7344H97.2617ZM95.3867 32.2148V38.1328H85.3672V40.1641H95.7969V42.1172H82.8672V36.1406H92.9258V34.207H82.8477V32.2148H95.3867ZM113.688 31.0234V48.7969H111.344V31.0234H113.688ZM109.898 31.4141V48.0156H107.574V39.8516H104.664C103.648 41.8828 101.998 43.6406 99.4688 45.1055L98.0625 43.3477C101.646 41.2188 103.229 38.6309 103.57 35.1445H99.0391V33.1328H106.051C106.041 34.8223 105.865 36.4141 105.445 37.8789H107.574V31.4141H109.898ZM134.273 31.0234V34.4609H136.676V36.5117H134.273V39.9102H131.773V31.0234H134.273ZM134.273 40.6133V45.457H124.957V46.6484H134.781V48.6016H122.516V43.6602H131.793V42.5273H122.477V40.6133H134.273ZM125.074 31.5508C127.809 31.5703 129.84 33.2109 129.84 35.5742C129.84 37.918 127.809 39.5977 125.074 39.5977C122.34 39.5977 120.289 37.918 120.289 35.5742C120.289 33.2109 122.34 31.5703 125.074 31.5508ZM125.074 33.582C123.707 33.582 122.711 34.3242 122.73 35.5742C122.711 36.8438 123.707 37.625 125.074 37.625C126.441 37.625 127.418 36.8438 127.418 35.5742C127.418 34.3242 126.441 33.582 125.074 33.582ZM151.48 31.0234V37.6641H154.098V39.7539H151.48V48.7969H148.98V31.0234H151.48ZM140.504 32.4297V36.7656H144.195V32.4297H146.676V44.6758H138.023V32.4297H140.504ZM140.504 42.6641H144.195V38.6992H140.504V42.6641ZM166.246 35.8672C166.246 38.7383 167.711 41.8047 170.699 43.0547L169.352 45.0078C167.252 44.1191 165.807 42.3516 165.016 40.1836C164.205 42.5371 162.73 44.4902 160.641 45.457L159.215 43.4844C162.164 42.1758 163.688 38.875 163.688 35.8672V34.7734H159.918V32.7422H169.957V34.7734H166.246V35.8672ZM174.234 31.0234V48.7969H171.715V31.0234H174.234ZM191.695 31.043V44.4609H189.195V43.0547H185.797V41.3555H189.195V31.043H191.695ZM192.086 46.4922V48.4844H178.844V43.1719H181.324V40.8086C179.732 40.877 178.219 40.8867 176.871 40.8867L176.578 38.9141C179.84 38.8945 184.234 38.8555 187.984 38.3867L188.121 40.1641C186.715 40.3984 185.26 40.5645 183.824 40.6719V44.0508H181.324V46.4922H192.086ZM182.359 31.6484C184.938 31.6289 186.793 32.9375 186.793 34.832C186.793 36.7266 184.938 37.957 182.359 37.957C179.723 37.957 177.887 36.7266 177.887 34.832C177.887 32.9375 179.703 31.6289 182.359 31.6484ZM182.359 33.4648C181.09 33.4648 180.23 33.9531 180.25 34.832C180.23 35.6914 181.09 36.1602 182.359 36.1602C183.551 36.1602 184.41 35.6914 184.43 34.832C184.41 33.9531 183.551 33.4648 182.359 33.4648Z" fill="#FFF7EB"/>
<path d="M35.6094 70.2656V74.3281H37.5781V75.7812H35.6094V80.4531H33.8438V70.2656H35.6094ZM31.7656 71.3438C31.7656 75.0938 29.3281 77.7656 25.1406 78.9844L24.4219 77.6094C27.6484 76.6797 29.5703 74.9219 29.875 72.7656H25.0156V71.3438H31.7656ZM36.1406 82.7031V84.1094H26.5312V79.4062H28.2969V82.7031H36.1406ZM49.4375 70.2656V74.2344H51.4219V75.6719H49.4375V80.4844H47.7031V70.2656H49.4375ZM45.2188 71.4375V72.8281H40.6094V76.6719C43.2656 76.6797 44.7422 76.5859 46.4219 76.2344L46.6094 77.6406C44.7656 78 43.1094 78.0938 40.0312 78.0938H38.8906V71.4375H45.2188ZM50 82.7031V84.1094H40.3906V79.4062H42.125V82.7031H50ZM63.2656 70.2812V74.7188H65.2344V76.1562H63.2656V80.8281H61.5312V70.2812H63.2656ZM60.5156 71.8438V73.2344H52.1406V71.8438H55.4688V70.2656H57.2031V71.8438H60.5156ZM56.3281 73.8125C58.3594 73.8125 59.7656 74.8906 59.7812 76.5156C59.7656 78.125 58.3594 79.1875 56.3281 79.1875C54.2812 79.1875 52.8594 78.125 52.8594 76.5156C52.8594 74.8906 54.2812 73.8125 56.3281 73.8125ZM56.3281 75.1562C55.25 75.1562 54.5469 75.6562 54.5469 76.5156C54.5469 77.3594 55.25 77.8594 56.3281 77.8438C57.4062 77.8594 58.125 77.3594 58.125 76.5156C58.125 75.6562 57.4062 75.1562 56.3281 75.1562ZM63.8281 82.7031V84.1094H54.2188V80H55.9531V82.7031H63.8281ZM81.5781 70.2656V78.6562H79.8438V75.2031H77.4375V73.7812H79.8438V70.2656H81.5781ZM76.7969 79.0156C79.7969 79.0156 81.625 80 81.625 81.7031C81.625 83.4062 79.7969 84.3906 76.7969 84.3906C73.8125 84.3906 71.9844 83.4062 72 81.7031C71.9844 80 73.8125 79.0156 76.7969 79.0156ZM76.7969 80.3438C74.8281 80.3438 73.7188 80.8125 73.7188 81.7031C73.7188 82.5781 74.8281 83.0469 76.7969 83.0469C78.7656 83.0469 79.8906 82.5781 79.8906 81.7031C79.8906 80.8125 78.7656 80.3438 76.7969 80.3438ZM74.9375 72.6875C74.9375 74.4062 76.0781 76.1406 78.2656 76.875L77.3906 78.25C75.8203 77.7188 74.7031 76.6406 74.0938 75.3125C73.4688 76.8203 72.2891 78.0234 70.6094 78.625L69.7031 77.25C71.9688 76.4688 73.1719 74.5625 73.1719 72.7031V72.5938H70.2344V71.1875H77.8594V72.5938H74.9375V72.6875ZM96.4844 81.2656V82.6875H83.5781V81.2656H89.1406V78.5156H85V71.2031H86.7344V73.5156H93.2812V71.2031H95.0156V78.5156H90.8594V81.2656H96.4844ZM86.7344 77.1094H93.2812V74.9062H86.7344V77.1094ZM104.578 71.4844V78.1562H97.8906V71.4844H104.578ZM99.5938 72.875V76.7812H102.875V72.875H99.5938ZM108.547 70.2656V74.4062H110.516V75.8594H108.547V80.5781H106.812V70.2656H108.547ZM109.109 82.7031V84.1094H99.5V79.5781H101.234V82.7031H109.109ZM126.797 70.2656V77.8438H125.047V70.2656H126.797ZM119.172 78.5V79.9531H125.062V78.5H126.797V84.2188H117.453V78.5H119.172ZM119.172 82.8125H125.062V81.3125H119.172V82.8125ZM119.094 70.8906C121.266 70.875 122.891 72.2344 122.891 74.2031C122.891 76.125 121.266 77.4844 119.094 77.4844C116.906 77.4844 115.281 76.125 115.281 74.2031C115.281 72.2344 116.906 70.875 119.094 70.8906ZM119.094 72.3438C117.859 72.3438 116.969 73.0625 116.984 74.2031C116.969 75.3281 117.859 76.0469 119.094 76.0625C120.312 76.0469 121.188 75.3281 121.188 74.2031C121.188 73.0625 120.312 72.3438 119.094 72.3438ZM135.609 71.1094V75.3594H131.156V77.0938C133.422 77.1016 134.727 77.0312 136.219 76.75L136.391 78.1562C134.703 78.4375 133.234 78.4844 130.469 78.4844H129.438V74.0625H133.875V72.4844H129.406V71.1094H135.609ZM140.688 70.2812V78.9688H138.953V76.6406H136.453V75.25H138.953V73.6719H136.453V72.2812H138.953V70.2812H140.688ZM140.688 79.6406V84.3906H138.953V81.0312H131.031V79.6406H140.688ZM149.578 72.5156V73.9062H142.656V72.5156H145.281V70.6719H147V72.5156H149.578ZM146.141 74.6562C147.938 74.6562 149.219 76.0156 149.219 77.9375C149.219 79.8906 147.938 81.2656 146.141 81.2656C144.359 81.2656 143.047 79.8906 143.062 77.9375C143.047 76.0156 144.359 74.6562 146.141 74.6562ZM146.141 76.0938C145.219 76.0938 144.578 76.8281 144.594 77.9375C144.578 79.0781 145.219 79.7969 146.141 79.7812C147.047 79.7969 147.688 79.0781 147.688 77.9375C147.688 76.8281 147.047 76.0938 146.141 76.0938ZM154.828 70.2656V84.3906H153.172V77.4844H151.797V83.75H150.172V70.5625H151.797V76.0781H153.172V70.2656H154.828ZM167.984 76.6875V78.0625H163.797V81.2969H169.422V82.7188H156.516V81.2969H162.078V78.0625H158.078V71.3125H167.875V72.7031H159.812V76.6875H167.984ZM35.6094 96.2656V99.1094H37.5781V100.547H35.6094V103.359H33.875V96.2656H35.6094ZM35.6094 103.969V107.672H28.1094V108.844H36.0469V110.219H26.3906V106.406H33.875V105.312H26.375V103.969H35.6094ZM28.375 96.7344C30.5312 96.7344 32.1094 98.0312 32.125 99.9062C32.1094 101.75 30.5312 103.062 28.375 103.062C26.2188 103.062 24.6094 101.75 24.625 99.9062C24.6094 98.0312 26.2188 96.7344 28.375 96.7344ZM28.375 98.1406C27.1875 98.1406 26.3125 98.8281 26.3281 99.9062C26.3125 100.969 27.1875 101.688 28.375 101.688C29.5625 101.688 30.4375 100.969 30.4375 99.9062C30.4375 98.8281 29.5625 98.1406 28.375 98.1406ZM49.3594 96.2656V101.641H51.5312V103.109H49.3594V110.391H47.625V96.2656H49.3594ZM40.5156 97.4219V100.953H43.8438V97.4219H45.5781V107.078H38.7969V97.4219H40.5156ZM40.5156 105.656H43.8438V102.312H40.5156V105.656ZM61.25 100.281C61.25 102.594 62.6094 105.031 64.8906 105.984L63.9375 107.359C62.2656 106.641 61.0469 105.156 60.4062 103.359C59.75 105.297 58.5156 106.922 56.8594 107.703L55.8594 106.344C58.0938 105.312 59.4844 102.688 59.4844 100.281V99.0938H56.375V97.6562H64.3438V99.0938H61.25V100.281ZM67.6719 96.2656V110.391H65.9219V96.2656H67.6719ZM81.5938 96.2812V106.969H79.8438V105.734H77.0781V104.516H79.8438V96.2812H81.5938ZM81.9219 108.703V110.109H71.5625V105.938H73.2969V108.703H81.9219ZM69.6875 102.625C72.2969 102.609 75.7969 102.578 78.7969 102.203L78.8906 103.453C77.7266 103.648 76.5234 103.781 75.3281 103.859V106.578H73.5938V103.953C72.2734 104.008 71.0156 104.016 69.9062 104.016L69.6875 102.625ZM74.2969 96.7969C76.3594 96.7969 77.7969 97.8125 77.8125 99.2969C77.7969 100.812 76.3594 101.781 74.2969 101.781C72.2031 101.781 70.7656 100.812 70.7656 99.2969C70.7656 97.8125 72.2031 96.7969 74.2969 96.7969ZM74.2969 98.0781C73.1719 98.0781 72.4062 98.5312 72.4062 99.2969C72.4062 100.062 73.1719 100.516 74.2969 100.516C75.375 100.516 76.1406 100.062 76.1562 99.2969C76.1406 98.5312 75.375 98.0781 74.2969 98.0781ZM98.4375 96.2656V101.781H100.531V103.234H98.4375V110.359H96.7031V96.2656H98.4375ZM94.7031 97.7344C94.7031 101.891 92.9844 105.531 88.2812 107.844L87.2969 106.5C90.7344 104.789 92.5938 102.383 92.9531 99.1719H88.0625V97.7344H94.7031ZM112.625 99.9375V101.344H102.875V96.5156H104.609V99.9375H112.625ZM114.094 102.703V104.109H101.203V102.703H114.094ZM107.625 105.125C110.672 105.141 112.5 106.078 112.516 107.734C112.5 109.391 110.672 110.328 107.625 110.328C104.547 110.328 102.703 109.391 102.703 107.734C102.703 106.078 104.547 105.141 107.625 105.125ZM107.625 106.484C105.562 106.5 104.453 106.891 104.469 107.734C104.453 108.547 105.562 109 107.625 109C109.641 109 110.766 108.547 110.781 107.734C110.766 106.891 109.641 106.5 107.625 106.484ZM126.172 96.2656V99.75H128.141V101.188H126.172V104.516H124.438V96.2656H126.172ZM118.766 105.078V106.297H124.438V105.078H126.172V110.219H117.047V105.078H118.766ZM118.766 108.844H124.438V107.641H118.766V108.844ZM123.422 97.5781V98.9688H115.047V97.5781H118.375V96.1562H120.109V97.5781H123.422ZM119.234 99.4531C121.281 99.4531 122.672 100.438 122.688 101.938C122.672 103.438 121.281 104.422 119.234 104.422C117.172 104.422 115.766 103.438 115.766 101.938C115.766 100.438 117.172 99.4531 119.234 99.4531ZM119.234 100.734C118.156 100.734 117.453 101.188 117.453 101.938C117.453 102.703 118.156 103.141 119.234 103.141C120.312 103.141 121.031 102.703 121.031 101.938C121.031 101.188 120.312 100.734 119.234 100.734ZM140.641 96.2656V110.391H138.922V96.2656H140.641ZM131.391 97.6406V105.359C133.375 105.328 135.484 105.148 137.656 104.719L137.875 106.172C135.391 106.688 133.078 106.844 130.891 106.844H129.672V97.6406H131.391ZM153.75 96.2656V101.625H155.922V103.047H153.75V110.406H152.016V96.2656H153.75ZM149.875 97.6094V99.0156H145V105.5C147.195 105.5 148.93 105.391 150.875 105.047L151.078 106.516C148.891 106.891 146.984 106.953 144.438 106.953H143.266V97.6094H149.875ZM158.234 109.125C157.562 109.125 157.016 108.578 157.016 107.906C157.016 107.25 157.562 106.703 158.234 106.703C158.875 106.703 159.438 107.25 159.438 107.906C159.438 108.578 158.875 109.125 158.234 109.125Z" fill="#FFE1B2"/>
</svg>
